# Blender v3.1.2 OBJ File: 'Buckyball.blend'
# www.blender.org
mtllib Buckyball.mtl
o Icosphere
v 0.000000 -0.187792 -0.883938
v -0.178601 -0.058030 -0.883937
v -0.110380 0.151927 -0.883937
v 0.110380 0.151927 -0.883937
v 0.178601 -0.058030 -0.883937
v 0.304957 0.723600 -0.447215
v 0.415340 0.759466 -0.259422
v 0.593939 0.629704 -0.259423
v 0.593941 0.513642 -0.447215
v 0.415340 0.571673 -0.563278
v 0.672039 -0.218355 -0.563278
v 0.782419 -0.066427 -0.447215
v 0.850640 -0.160326 -0.259421
v 0.782421 -0.370281 -0.259423
v 0.672040 -0.406148 -0.447215
v 0.000000 -0.706633 -0.563277
v 0.178600 -0.764662 -0.447215
v 0.110380 -0.858559 -0.259422
v -0.110380 -0.858559 -0.259422
v -0.178600 -0.764662 -0.447215
v -0.672039 -0.218355 -0.563278
v -0.672040 -0.406148 -0.447215
v -0.782421 -0.370281 -0.259423
v -0.850640 -0.160326 -0.259421
v -0.782419 -0.066427 -0.447215
v -0.304957 0.723600 -0.447215
v -0.415340 0.571673 -0.563278
v -0.593941 0.513642 -0.447215
v -0.593939 0.629704 -0.259423
v -0.415340 0.759466 -0.259422
v 0.850640 0.160326 0.259421
v 0.782421 0.370281 0.259423
v 0.672040 0.406148 0.447215
v 0.672039 0.218355 0.563278
v 0.782419 0.066427 0.447215
v 0.415340 -0.759466 0.259422
v 0.593939 -0.629704 0.259423
v 0.593941 -0.513642 0.447215
v 0.415340 -0.571673 0.563278
v 0.304957 -0.723600 0.447215
v -0.593939 -0.629704 0.259423
v -0.415340 -0.759466 0.259422
v -0.304957 -0.723600 0.447215
v -0.415340 -0.571673 0.563278
v -0.593941 -0.513642 0.447215
v -0.782421 0.370281 0.259423
v -0.850640 0.160326 0.259421
v -0.782419 0.066427 0.447215
v -0.672039 0.218355 0.563278
v -0.672040 0.406148 0.447215
v 0.110380 0.858559 0.259422
v -0.110380 0.858559 0.259422
v -0.178600 0.764662 0.447215
v 0.000000 0.706633 0.563277
v 0.178600 0.764662 0.447215
v 0.178601 0.058030 0.883937
v 0.000000 0.187792 0.883938
v -0.178601 0.058030 0.883937
v -0.110380 -0.151927 0.883937
v 0.110380 -0.151927 0.883937
vt 0.435459 0.124400
vt 0.416371 0.157461
vt 0.291815 0.124400
vt 0.674538 0.157461
vt 0.655451 0.124400
vt 0.746360 0.033060
vt 0.234553 0.157461
vt 0.129085 0.157461
vt 0.109997 0.124400
vt 0.598189 0.157461
vt 0.492721 0.157461
vt 0.473633 0.124400
vt 0.253641 0.190521
vt 0.200906 0.281861
vt 0.162732 0.281861
vt 0.325463 0.314921
vt 0.219993 0.314921
vt 0.435459 0.190521
vt 0.382724 0.281861
vt 0.344550 0.281861
vt 0.143644 0.314921
vt 0.038175 0.314921
vt 0.019087 0.281861
vt 0.870916 0.314921
vt 0.765448 0.314921
vt 0.746360 0.281861
vt 0.689098 0.314921
vt 0.583630 0.314921
vt 0.564542 0.281861
vt 0.980913 0.190521
vt 0.928178 0.281861
vt 0.890004 0.281861
vt 0.799095 0.190521
vt 0.708186 0.281861
vt 0.617277 0.190521
vt 0.526368 0.281861
vt 0.507281 0.314921
vt 0.401811 0.314921
vt 0.291815 0.439322
vt 0.253641 0.439321
vt 0.162732 0.347982
vt 0.109997 0.439321
vt 0.071823 0.439321
vt 0.890004 0.347982
vt 0.837269 0.439321
vt 0.799095 0.439321
vt 0.708186 0.347982
vt 0.655451 0.439321
vt 0.617277 0.439321
vt 0.526368 0.347982
vt 0.473633 0.439321
vt 0.435459 0.439322
vt 0.708186 0.033061
vt 0.344550 0.033061
vt 0.162732 0.033061
vt 0.291815 0.190521
vt 0.109997 0.190521
vt 0.071823 0.190521
vt 0.856356 0.157461
vt 0.780008 0.157461
vt 0.655451 0.190521
vt 0.473633 0.190521
vt 0.200906 0.347982
vt 0.019088 0.347982
vt 0.746360 0.347982
vt 0.564542 0.347982
vt 0.382724 0.347981
vt 0.961826 0.157461
vt 0.837269 0.124401
vt 0.310903 0.157461
vt 0.382724 0.033061
vt 0.799095 0.124401
vt 0.200906 0.033061
vt 0.253641 0.124400
vt 0.526368 0.033061
vt 0.564542 0.033061
vt 0.617277 0.124400
vt 0.837269 0.190521
vt 0.344550 0.347981
vt 0.890004 0.033060
vt 0.980913 0.124400
vt 0.928178 0.033061
vn 0.0000 0.6071 -0.7947
vn -0.3568 -0.4911 -0.7947
vn 0.5774 0.1876 -0.7947
vn -0.5774 0.1876 -0.7947
vn 0.9342 0.3035 -0.1876
vn 0.5774 0.7946 0.1876
vn 0.0000 0.9822 -0.1876
vn 0.9342 -0.3035 0.1876
vn 0.0000 -0.9822 0.1876
vn -0.9342 -0.3035 0.1876
vn 0.5774 -0.7946 -0.1876
vn -0.5774 -0.7946 -0.1876
vn -0.9342 0.3035 -0.1876
vn -0.5774 0.7946 0.1876
vn 0.3568 0.4911 0.7947
vn 0.5774 -0.1876 0.7947
vn 0.0000 -0.6071 0.7947
vn -0.5774 -0.1876 0.7947
vn -0.3568 0.4911 0.7947
vn 0.0000 -0.0000 -1.0000
vn 0.5257 0.7236 -0.4472
vn 0.8506 -0.2764 -0.4472
vn 0.0000 -0.8944 -0.4472
vn -0.8506 -0.2764 -0.4472
vn -0.5257 0.7236 -0.4472
vn 0.8507 0.2764 0.4472
vn 0.5257 -0.7236 0.4472
vn -0.5257 -0.7236 0.4472
vn -0.8507 0.2764 0.4472
vn 0.0000 0.8944 0.4472
vn -0.0000 -0.0000 1.0000
vn 0.3568 -0.4911 -0.7947
vn 0.8507 -0.2764 -0.4472
vn -0.8507 -0.2764 -0.4472
vn 0.8506 0.2764 0.4472
usemtl None
s off
f 27/1/1 26/2/1 10/3/1
f 22/4/2 21/5/2 1/6/2
f 9/7/3 12/8/3 11/9/3
f 25/10/4 28/11/4 27/12/4
f 8/13/5 32/14/5 31/15/5
f 55/16/6 33/17/6 32/14/6
f 30/18/7 52/19/7 51/20/7
f 35/21/8 38/22/8 37/23/8
f 40/24/9 43/25/9 42/26/9
f 45/27/10 48/28/10 47/29/10
f 14/30/11 37/31/11 36/32/11
f 19/33/12 42/26/12 41/34/12
f 24/35/13 47/29/13 46/36/13
f 50/37/14 53/38/14 52/19/14
f 57/39/15 56/40/15 33/17/15
f 34/41/16 56/42/16 60/43/16
f 39/44/17 60/45/17 59/46/17
f 44/47/18 59/48/18 58/49/18
f 49/50/19 58/51/19 57/52/19
f 2/53/20 4/54/20 5/55/20
f 7/56/21 8/13/21 9/7/21
f 12/8/22 13/57/22 14/58/22
f 17/59/23 19/33/23 20/60/23
f 23/61/24 24/35/24 25/10/24
f 27/1/25 28/11/25 29/62/25
f 32/14/26 34/63/26 35/21/26
f 38/22/27 39/64/27 40/24/27
f 43/25/28 44/65/28 45/27/28
f 47/29/29 48/28/29 49/66/29
f 53/38/30 54/67/30 55/16/30
f 57/39/31 58/51/31 59/48/31
f 15/68/32 17/59/32 16/69/32
f 26/2/1 6/70/1 10/3/1
f 10/3/1 4/54/1 3/71/1
f 3/71/1 27/1/1 10/3/1
f 21/5/2 2/53/2 1/6/2
f 1/6/2 16/72/2 20/60/2
f 20/60/2 22/4/2 1/6/2
f 11/9/3 5/55/3 4/73/3
f 4/73/3 10/74/3 11/9/3
f 10/74/3 9/7/3 11/9/3
f 27/12/4 3/75/4 2/76/4
f 2/76/4 21/77/4 27/12/4
f 21/77/4 25/10/4 27/12/4
f 31/15/5 13/57/5 8/13/5
f 13/57/5 12/8/5 8/13/5
f 12/8/5 9/7/5 8/13/5
f 32/14/6 8/13/6 7/56/6
f 7/56/6 51/20/6 32/14/6
f 51/20/6 55/16/6 32/14/6
f 51/20/7 7/56/7 30/18/7
f 7/56/7 6/70/7 30/18/7
f 6/70/7 26/2/7 30/18/7
f 37/23/8 14/58/8 13/57/8
f 13/57/8 31/15/8 37/23/8
f 31/15/8 35/21/8 37/23/8
f 42/26/9 19/33/9 18/78/9
f 18/78/9 36/32/9 42/26/9
f 36/32/9 40/24/9 42/26/9
f 47/29/10 24/35/10 23/61/10
f 23/61/10 41/34/10 47/29/10
f 41/34/10 45/27/10 47/29/10
f 36/32/11 18/78/11 14/30/11
f 18/78/11 17/59/11 14/30/11
f 17/59/11 15/68/11 14/30/11
f 41/34/12 23/61/12 19/33/12
f 23/61/12 22/4/12 19/33/12
f 22/4/12 20/60/12 19/33/12
f 46/36/13 29/62/13 24/35/13
f 29/62/13 28/11/13 24/35/13
f 28/11/13 25/10/13 24/35/13
f 52/19/14 30/18/14 29/62/14
f 29/62/14 46/36/14 52/19/14
f 46/36/14 50/37/14 52/19/14
f 56/40/15 34/63/15 33/17/15
f 33/17/15 55/16/15 54/79/15
f 54/79/15 57/39/15 33/17/15
f 60/43/16 39/64/16 34/41/16
f 39/64/16 38/22/16 34/41/16
f 38/22/16 35/21/16 34/41/16
f 59/46/17 44/65/17 39/44/17
f 44/65/17 43/25/17 39/44/17
f 43/25/17 40/24/17 39/44/17
f 58/49/18 49/66/18 44/47/18
f 49/66/18 48/28/18 44/47/18
f 48/28/18 45/27/18 44/47/18
f 57/52/19 54/67/19 53/38/19
f 53/38/19 50/37/19 57/52/19
f 50/37/19 49/50/19 57/52/19
f 5/55/20 1/80/20 2/53/20
f 2/53/20 3/75/20 4/54/20
f 10/74/21 6/70/21 9/7/21
f 6/70/21 7/56/21 9/7/21
f 15/68/33 11/81/33 14/58/33
f 11/81/33 12/8/33 14/58/33
f 20/60/23 16/72/23 17/59/23
f 17/59/23 18/78/23 19/33/23
f 25/10/34 21/77/34 22/4/34
f 22/4/34 23/61/34 25/10/34
f 30/18/25 26/2/25 29/62/25
f 26/2/25 27/1/25 29/62/25
f 35/21/35 31/15/35 32/14/35
f 32/14/26 33/17/26 34/63/26
f 40/24/27 36/32/27 37/31/27
f 37/31/27 38/22/27 40/24/27
f 45/27/28 41/34/28 42/26/28
f 42/26/28 43/25/28 45/27/28
f 50/37/29 46/36/29 49/66/29
f 46/36/29 47/29/29 49/66/29
f 55/16/30 51/20/30 52/19/30
f 52/19/30 53/38/30 55/16/30
f 60/45/31 56/42/31 59/48/31
f 56/42/31 57/39/31 59/48/31
f 16/69/32 1/80/32 15/68/32
f 1/80/32 5/82/32 15/68/32
f 5/82/32 11/81/32 15/68/32
