# Blender v2.93.5 OBJ File: 'PlayerSpawn.blend'
# www.blender.org
mtllib PlayerSpawn.mtl
o Cylinder
v -0.832907 0.000000 0.000000
v -0.629183 0.000000 0.412874
v -0.588954 0.588954 0.000000
v -0.444899 0.444899 0.412874
v 0.000000 0.832907 0.000000
v 0.000000 0.629183 0.412874
v 0.588954 0.588954 0.000000
v 0.444900 0.444899 0.412874
v 0.832907 -0.000000 0.000000
v 0.629183 -0.000000 0.412874
v 0.588954 -0.588954 0.000000
v 0.444900 -0.444899 0.412874
v -0.000000 -0.832907 0.000000
v -0.000000 -0.629183 0.412874
v -0.588954 -0.588954 0.000000
v -0.444899 -0.444900 0.412874
v -0.377189 0.377189 0.688990
v -0.533426 -0.000000 0.688990
v 0.000000 0.533426 0.688990
v 0.377189 0.377189 0.688990
v 0.533426 -0.000000 0.688990
v 0.377189 -0.377189 0.688990
v 0.000000 -0.533426 0.688990
v -0.377189 -0.377189 0.688990
v -0.377189 0.377189 1.367182
v -0.456574 -0.000000 1.367182
v 0.000000 0.456574 1.367182
v 0.377189 0.377189 1.367182
v 0.456574 -0.000000 1.367182
v 0.377189 -0.377189 1.367182
v 0.000000 -0.456574 1.367182
v -0.377189 -0.377189 1.367182
v -0.377189 0.377189 2.303443
v -0.377189 -0.000000 2.303443
v 0.000000 0.377189 2.303443
v 0.377189 0.377189 2.303443
v 0.377189 -0.000000 2.303443
v 0.377189 -0.377189 2.303443
v 0.000000 -0.377189 2.303443
v -0.377189 -0.377189 2.303443
v -0.377189 0.377189 2.862001
v 0.377189 0.234022 3.320619
v -0.377189 0.377189 3.320619
v 0.377189 0.377189 2.862001
v 0.377189 -0.234022 3.320619
v 0.377189 -0.377189 2.862001
v -0.377189 -0.377189 3.320619
v -0.377189 -0.377189 2.862001
v -1.170995 0.189466 2.976125
v -1.170995 -0.189467 2.976125
v -1.170995 0.189466 3.206495
v -1.170995 -0.189467 3.206495
v -0.769861 0.211296 3.219766
v -0.769861 -0.211296 3.219766
v -0.769861 -0.211296 2.962854
v -0.769861 0.211296 2.962854
v -0.809804 0.329134 3.216837
v -0.809804 0.329134 2.965784
v -0.809804 -0.329134 3.216837
v -0.809804 -0.329134 2.965784
vt 0.838996 0.090088
vt 0.718899 0.008568
vt 0.838996 0.000000
vt 0.000000 0.671401
vt 0.125846 0.597009
vt 0.122044 0.686635
vt 0.239353 0.685853
vt 0.689525 0.094696
vt 0.598803 0.000000
vt 0.718900 0.007155
vt 0.598803 0.089291
vt 0.478707 0.007155
vt 0.453815 0.090218
vt 0.361397 0.000000
vt 0.478707 0.000783
vt 0.368134 0.148236
vt 0.365199 0.089626
vt 0.239353 0.015234
vt 0.929717 0.096560
vt 0.959092 0.008568
vt 0.478707 0.905663
vt 0.570431 0.683674
vt 0.791873 0.775172
vt 0.521889 0.152401
vt 0.598803 0.286927
vt 0.521889 0.289256
vt 0.598803 0.147818
vt 0.289973 0.157992
vt 0.273006 0.101134
vt 0.033653 0.585501
vt 0.128781 0.538399
vt 0.508082 0.094696
vt 0.838996 0.148914
vt 0.762081 0.154401
vt 0.748274 0.096560
vt 0.203911 0.537898
vt 0.214462 0.596418
vt 0.299465 0.294228
vt 0.389214 0.477677
vt 0.312569 0.482304
vt 0.137527 0.399641
vt 0.213402 0.401662
vt 0.838996 0.287839
vt 0.762081 0.290627
vt 0.915910 0.154401
vt 0.443264 0.148737
vt 0.376881 0.286994
vt 0.675718 0.152401
vt 0.050619 0.528643
vt 0.521889 0.590901
vt 0.598803 0.478188
vt 0.675718 0.590901
vt 0.521889 0.478188
vt 0.149861 0.208958
vt 0.226506 0.213586
vt 0.838996 0.478692
vt 0.762081 0.478692
vt 0.915910 0.290627
vt 0.452756 0.284973
vt 0.675718 0.289256
vt 0.060111 0.392407
vt 0.473677 0.585253
vt 0.326805 0.686635
vt 0.320386 0.594508
vt 0.234324 0.101382
vt 0.081033 0.092128
vt 0.762081 0.590888
vt 0.915910 0.590888
vt 0.945702 0.846551
vt 0.821067 1.000000
vt 0.791873 0.846551
vt 0.551083 0.683448
vt 0.301184 0.763905
vt 0.254910 0.686635
vt 0.301184 0.686635
vt 0.825701 0.765233
vt 0.907422 0.683448
vt 0.911874 0.765233
vt 0.087451 0.000000
vt 0.239353 0.004555
vt 0.120001 0.768421
vt 0.115549 0.686635
vt 0.144029 0.760254
vt 0.935902 0.757066
vt 0.038279 0.686635
vt 0.000000 0.849738
vt 0.153829 0.849738
vt 0.004638 0.009996
vt 0.243992 0.676639
vt 0.240396 0.625031
vt 0.204369 0.687789
vt 0.157993 0.761946
vt 0.153829 0.686635
vt 0.204369 0.763005
vt 0.254910 0.761851
vt 0.325213 0.687216
vt 0.349242 0.737297
vt 0.325213 0.739059
vt 0.033828 0.768421
vt 0.009799 0.760254
vt 0.830152 0.683448
vt 0.801672 0.757066
vt 0.301184 0.738479
vt 0.325213 0.688398
vt 0.325213 0.739059
vt 0.791873 0.905117
vt 0.700149 0.997162
vt 0.570431 0.997388
vt 0.478707 0.775719
vt 0.700149 0.683448
vt 0.675718 0.478188
vt 0.915910 0.478692
vt 0.465860 0.473050
vt 0.073215 0.204331
vt 0.478707 0.682080
vt 0.916508 1.000000
vt 0.646524 0.683448
vt 0.254910 0.763905
vt 0.001043 0.061605
vt 0.204369 0.763005
vt 0.208533 0.687694
vt 0.349242 0.686635
vt 0.301184 0.686635
vn -0.9202 0.0000 0.3913
vn -0.6306 0.6306 -0.4523
vn -0.8918 0.0000 -0.4523
vn 0.0000 0.9202 0.3913
vn 0.0000 0.8918 -0.4523
vn 0.6306 0.6306 -0.4523
vn 0.6507 0.6507 0.3913
vn 0.8918 0.0000 -0.4523
vn 0.9202 0.0000 0.3913
vn 0.6306 -0.6306 -0.4523
vn 0.6507 -0.6507 0.3913
vn 0.0000 -0.8918 -0.4523
vn 0.0000 -0.9738 0.2275
vn 0.0000 -0.9202 0.3913
vn -0.6306 -0.6306 -0.4523
vn -0.6507 -0.6507 0.3913
vn 0.6911 -0.6911 0.2116
vn 0.9981 0.0000 0.0607
vn 0.7066 -0.7066 0.0382
vn 0.9738 0.0000 0.2275
vn -0.6911 -0.6911 0.2116
vn -0.6507 0.6507 0.3913
vn 0.0000 0.9738 0.2275
vn -0.9738 0.0000 0.2275
vn -0.6911 0.6911 0.2116
vn 0.6911 0.6911 0.2116
vn -0.7066 -0.7066 0.0382
vn 0.0000 -0.9999 0.0103
vn -0.7071 -0.7071 0.0000
vn 0.0000 0.9981 0.0607
vn 0.7066 0.7066 0.0382
vn -0.9981 0.0000 0.0607
vn -0.7066 0.7066 0.0382
vn 0.0000 -0.9981 0.0607
vn 0.6962 -0.7143 0.0710
vn 0.9999 0.0000 0.0103
vn 0.6962 0.7143 0.0710
vn 0.7071 -0.7071 0.0000
vn 0.0000 0.9999 0.0103
vn 0.7071 0.7071 0.0000
vn -0.9999 0.0000 0.0103
vn -0.7071 0.7071 0.0000
vn -0.1804 -0.7081 0.6827
vn -0.4666 -0.8556 -0.2240
vn -0.4666 0.8556 -0.2240
vn 0.6328 0.4202 0.6503
vn -0.1804 0.7081 0.6827
vn 0.6328 -0.4202 0.6503
vn -0.6704 -0.4530 -0.5877
vn -0.6704 0.4530 0.5877
vn -0.6704 0.4530 -0.5877
vn 0.0351 0.4190 0.9073
vn -0.6704 -0.4530 0.5877
vn 0.0351 -0.4190 0.9073
vn 0.0351 0.4190 -0.9073
vn 0.3397 0.7435 -0.5760
vn 0.3397 -0.7435 0.5760
vn 0.0351 -0.4190 -0.9073
vn 0.3397 -0.7435 -0.5760
vn 0.3397 0.7435 0.5760
usemtl Material.001
s 1
f 2/1/1 3/2/2 1/3/3
f 3/4/2 6/5/4 5/6/5
f 6/5/4 7/7/6 5/6/5
f 8/8/7 9/9/8 7/10/6
f 10/11/9 11/12/10 9/9/8
f 12/13/11 13/14/12 11/15/10
f 12/13/11 23/16/13 14/17/14
f 14/17/14 15/18/15 13/14/12
f 16/19/16 1/3/3 15/20/15
f 7/21/6 11/22/10 15/23/15
f 22/24/17 29/25/18 30/26/19
f 8/8/7 21/27/20 10/11/9
f 14/17/14 24/28/21 16/29/16
f 4/30/22 19/31/23 6/5/4
f 10/11/9 22/24/17 12/32/11
f 16/19/16 18/33/24 2/1/1
f 2/1/1 17/34/25 4/35/22
f 6/5/4 20/36/26 8/37/7
f 32/38/27 39/39/28 40/40/29
f 20/36/26 27/41/30 28/42/31
f 17/34/25 26/43/32 25/44/33
f 24/45/21 26/43/32 18/33/24
f 22/46/17 31/47/34 23/16/13
f 20/48/26 29/25/18 21/27/20
f 17/49/25 27/41/30 19/31/23
f 24/28/21 31/47/34 32/38/27
f 46/50/35 37/51/36 44/52/37
f 30/26/19 37/51/36 38/53/38
f 28/42/31 35/54/39 36/55/40
f 25/44/33 34/56/41 33/57/42
f 32/58/27 34/56/41 26/43/32
f 30/59/19 39/39/28 31/47/34
f 28/60/31 37/51/36 29/25/18
f 25/61/33 35/54/39 27/41/30
f 46/62/35 47/63/43 48/64/44
f 44/65/37 35/54/39 41/66/45
f 41/67/45 34/56/41 48/68/44
f 47/69/43 42/70/46 43/71/47
f 44/52/37 45/72/48 46/50/35
f 50/73/49 51/74/50 49/75/51
f 53/76/52 52/77/53 54/78/54
f 44/65/37 43/79/47 42/80/46
f 48/64/44 39/39/28 46/62/35
f 56/81/55 49/82/51 58/83/56
f 54/78/54 52/77/53 59/84/57
f 56/81/55 50/85/49 49/82/51
f 48/86/44 56/81/55 41/87/45
f 41/66/45 53/88/52 43/79/47
f 48/64/44 54/89/54 55/90/58
f 43/71/47 54/78/54 47/69/43
f 59/91/57 50/92/49 60/93/59
f 58/94/56 51/74/50 57/95/60
f 54/96/54 60/97/59 55/98/58
f 50/85/49 55/99/58 60/100/59
f 51/101/50 53/76/52 57/102/60
f 53/103/52 58/104/56 57/105/60
f 2/1/1 4/35/22 3/2/2
f 3/4/2 4/30/22 6/5/4
f 6/5/4 8/37/7 7/7/6
f 8/8/7 10/11/9 9/9/8
f 10/11/9 12/32/11 11/12/10
f 12/13/11 14/17/14 13/14/12
f 12/13/11 22/46/17 23/16/13
f 14/17/14 16/29/16 15/18/15
f 16/19/16 2/1/1 1/3/3
f 15/23/15 1/106/3 3/107/2
f 3/107/2 5/108/5 7/21/6
f 7/21/6 9/109/8 11/22/10
f 11/22/10 13/110/12 15/23/15
f 15/23/15 3/107/2 7/21/6
f 22/24/17 21/27/20 29/25/18
f 8/8/7 20/48/26 21/27/20
f 14/17/14 23/16/13 24/28/21
f 4/30/22 17/49/25 19/31/23
f 10/11/9 21/27/20 22/24/17
f 16/19/16 24/45/21 18/33/24
f 2/1/1 18/33/24 17/34/25
f 6/5/4 19/31/23 20/36/26
f 32/38/27 31/47/34 39/39/28
f 20/36/26 19/31/23 27/41/30
f 17/34/25 18/33/24 26/43/32
f 24/45/21 32/58/27 26/43/32
f 22/46/17 30/59/19 31/47/34
f 20/48/26 28/60/31 29/25/18
f 17/49/25 25/61/33 27/41/30
f 24/28/21 23/16/13 31/47/34
f 38/53/38 37/51/36 46/50/35
f 37/51/36 36/111/40 44/52/37
f 30/26/19 29/25/18 37/51/36
f 28/42/31 27/41/30 35/54/39
f 25/44/33 26/43/32 34/56/41
f 32/58/27 40/112/29 34/56/41
f 30/59/19 38/113/38 39/39/28
f 28/60/31 36/111/40 37/51/36
f 25/61/33 33/114/42 35/54/39
f 46/62/35 45/115/48 47/63/43
f 36/55/40 35/54/39 44/65/37
f 35/54/39 33/114/42 41/66/45
f 33/57/42 34/56/41 41/67/45
f 34/56/41 40/112/29 48/68/44
f 47/69/43 45/116/48 42/70/46
f 44/52/37 42/117/46 45/72/48
f 50/73/49 52/118/53 51/74/50
f 53/76/52 51/101/50 52/77/53
f 44/65/37 41/66/45 43/79/47
f 40/40/29 39/39/28 48/64/44
f 39/39/28 38/113/38 46/62/35
f 56/81/55 55/99/58 50/85/49
f 48/86/44 55/99/58 56/81/55
f 41/66/45 56/119/55 53/88/52
f 48/64/44 47/63/43 54/89/54
f 43/71/47 53/76/52 54/78/54
f 59/91/57 52/120/53 50/92/49
f 58/94/56 49/121/51 51/74/50
f 54/96/54 59/122/57 60/97/59
f 53/103/52 56/123/55 58/104/56
