# Blender 4.1.1
# www.blender.org
mtllib Ship.mtl
o Cube
v -6.789836 0.764827 -1.205380
v -6.789836 -0.764827 -1.205380
v -6.789836 0.764827 0.324274
v -6.789836 -0.764827 0.324274
v -6.387134 0.764827 0.324274
v -6.387134 0.764827 -1.205380
v -6.387134 -0.764827 -1.205380
v -6.387134 -0.764827 0.324274
v -5.962757 1.173985 0.309055
v -5.962757 1.173985 -1.190162
v -5.962757 -1.173985 -1.190162
v -5.962757 -1.173985 0.309055
v -4.699413 1.173985 0.309055
v -4.699413 1.173985 -1.190162
v -4.699413 -1.173985 -1.190162
v -4.699413 -1.173985 0.309055
v -6.387134 1.173985 0.733432
v -6.387134 1.173985 -1.614538
v -6.387134 -1.173985 0.733432
v -6.387134 -1.173985 -1.614538
v -4.275037 1.173985 0.733432
v -4.275037 1.173985 -1.614538
v -4.275037 -1.173985 0.733432
v -4.275037 -1.173985 -1.614538
v -5.962757 2.942073 0.309055
v -5.962757 2.942073 -1.190162
v -5.962757 -2.942073 0.309055
v -5.962757 -2.942073 -1.190162
v -4.699413 2.942073 0.309055
v -4.699413 2.942073 -1.190162
v -4.699413 -2.942073 0.309055
v -4.699413 -2.942073 -1.190162
v -6.488491 4.363518 -0.227002
v -6.488491 4.363518 -0.654104
v -6.488491 -4.363518 -0.227002
v -6.488491 -4.363518 -0.654104
v -3.814026 3.671927 0.464588
v -3.814026 3.671927 -1.345694
v -3.814026 -3.671927 0.464588
v -3.814026 -3.671927 -1.345694
v -6.848145 5.500000 1.190873
v -6.115784 4.767640 -2.009127
v -6.848145 -5.500000 1.190873
v -6.115784 -4.767640 -2.009127
v -3.814026 2.942073 1.190873
v -4.546387 3.674434 -2.009127
v -3.814026 -2.942073 1.190873
v -4.546387 -3.674434 -2.009127
v -5.235471 5.140347 -0.227002
v -5.235471 5.140347 -0.654104
v -5.235471 -5.140347 -0.227002
v -5.235471 -5.140347 -0.654104
v 5.855806 3.671927 0.464588
v 5.855806 3.671927 -1.345694
v 5.855806 -3.671927 0.464588
v 5.855806 -3.671927 -1.345694
v -4.275037 1.638890 -2.079443
v -4.275037 -1.638890 -2.079443
v 5.855840 1.638890 -2.079443
v 5.855840 -1.638890 -2.079443
v 5.855806 3.671927 0.464588
v 5.855806 3.671927 -1.345694
v 5.855806 -3.671927 0.464588
v 5.855806 -3.671927 -1.345694
v 5.855806 4.770146 0.464588
v 5.855806 4.770146 -1.345694
v 5.855806 -4.770146 0.464588
v 5.855806 -4.770146 -1.345694
v 6.403589 3.284041 0.852474
v 6.403589 3.284041 -1.733580
v 6.403589 -3.284041 0.852474
v 6.403589 -3.284041 -1.733580
v 6.403589 5.158032 0.852474
v 6.403589 5.158032 -1.733580
v 6.403589 -5.158032 0.852474
v 6.403589 -5.158032 -1.733580
v 9.316414 2.754662 1.381853
v 9.316414 2.754662 -2.262960
v 9.316414 -2.754662 1.381853
v 9.316414 -2.754662 -2.262960
v 9.316414 5.687411 1.381853
v 9.316414 5.687411 -2.262960
v 9.316414 -5.687411 1.381853
v 9.316414 -5.687411 -2.262960
v 8.645159 -2.760022 -2.257599
v 8.645159 -5.682051 -2.257599
v 8.645159 -5.682051 1.376493
v 8.645159 -2.760022 1.376493
v 8.645159 5.682051 -2.257599
v 8.645159 2.760022 -2.257599
v 8.645159 2.760022 1.376493
v 8.645159 5.682051 1.376493
v 4.867007 0.650057 2.989945
v 4.867007 -0.650057 2.989945
v -3.286204 -0.650057 2.989945
v -3.286204 0.650057 2.989945
v -6.848145 2.942073 1.190873
v -6.115784 3.674434 -2.009127
v -6.848145 -2.942073 1.190873
v -6.115784 -3.674434 -2.009127
v -3.814026 5.500000 1.190873
v -4.546387 4.767640 -2.009127
v -3.814026 -5.500000 1.190873
v -4.546387 -4.767640 -2.009127
v -6.848145 5.500000 0.337427
v -6.848145 5.500000 -1.218533
v -6.848145 -5.500000 -1.218533
v -6.848145 -5.500000 0.337427
v -6.848145 3.799088 0.337427
v -6.848145 3.799088 -1.218533
v -6.848145 -3.799088 0.337427
v -6.848145 -3.799088 -1.218533
v -4.671041 5.500000 0.337427
v -4.671041 5.500000 -1.218533
v -4.671041 -5.500000 0.337427
v -4.671041 -5.500000 -1.218533
v -6.593831 5.245687 -0.227002
v -6.593831 5.245687 -0.654104
v -6.593831 -5.245687 -0.654104
v -6.593831 -5.245687 -0.227002
v -3.814026 4.770146 0.464588
v -3.814026 4.770146 -1.345694
v -3.814026 -4.770146 0.464588
v -3.814026 -4.770146 -1.345694
v 5.855806 4.770146 0.464588
v 5.855806 4.770146 -1.345694
v 5.855806 -4.770146 0.464588
v 5.855806 -4.770146 -1.345694
v -3.814026 2.942073 -2.009127
v -6.848145 2.942073 -2.009127
v -6.848145 -2.942073 -2.009127
v -3.814026 -2.942073 -2.009127
v -3.814026 5.500000 -2.009127
v -6.848145 5.500000 -2.009127
v -6.848145 -5.500000 -2.009127
v -3.814026 -5.500000 -2.009127
v -4.546387 3.674434 -1.558645
v -6.115784 3.674434 -1.558645
v -6.115784 -3.674434 -1.558645
v -4.546387 -3.674434 -1.558645
v -4.546387 4.767640 -1.558645
v -6.115784 4.767640 -1.558645
v -6.115784 -4.767640 -1.558645
v -4.546387 -4.767640 -1.558645
v -8.015035 1.195243 -0.034326
v -9.771700 1.668643 0.480932
v -9.771700 1.668643 -1.299187
v -8.015035 1.195243 -0.783929
v -9.771700 -1.668643 -1.299187
v -8.015035 -1.195243 -0.783929
v -8.015035 -1.195243 -0.034326
v -9.771700 -1.668643 0.480932
v -6.789836 1.668643 1.190873
v -9.771700 1.668643 1.190873
v -9.771700 1.668643 -2.009127
v -6.789836 1.668643 -2.009127
v -9.771700 -1.668643 -2.009127
v -6.789836 -1.668643 -2.009127
v -6.789836 -1.668643 1.190873
v -9.771700 -1.668643 1.190873
v -7.499776 1.668643 0.480932
v -9.436955 1.333899 -0.034326
v -9.436955 1.333899 -0.783928
v -7.499776 1.668643 -1.299187
v -9.436955 -1.333899 -0.783928
v -7.499776 -1.668643 -1.299187
v -7.499776 -1.668643 0.480932
v -9.436955 -1.333899 -0.034326
v 5.855840 1.638890 2.989945
v 5.855840 -1.638890 2.989945
v -4.275037 -1.638890 2.989945
v -4.275037 1.638890 2.989945
v 4.867007 0.650057 5.664035
v 4.867007 -0.650057 5.664035
v -3.286204 -0.650057 5.664035
v -3.286204 0.650057 5.664035
vn -0.0000 -0.0000 -1.0000
vn 1.0000 -0.0000 -0.0000
vn -1.0000 -0.0000 -0.0000
vn -0.0000 -0.0000 1.0000
vn -0.0000 1.0000 -0.0000
vn -0.0000 -1.0000 -0.0000
vn 0.0773 -0.9970 -0.0000
vn 0.0773 0.9970 -0.0000
vn -0.9929 -0.1186 -0.0000
vn -0.9929 0.1186 -0.0000
vn -0.5779 -0.0000 -0.8161
vn -0.5779 -0.0000 0.8161
vn -0.0080 -0.0000 -1.0000
vn -0.0080 -1.0000 -0.0000
vn -0.0080 1.0000 -0.0000
vn -0.0080 -0.0000 1.0000
vn -0.5779 -0.8161 -0.0000
vn -0.5779 0.8161 -0.0000
vn -0.2276 -0.0000 0.9737
vn -0.2276 0.9737 -0.0000
vn -0.2276 -0.9737 -0.0000
vn -0.2276 -0.0000 -0.9737
vn -0.8433 0.5374 -0.0000
vn -0.8433 -0.5374 -0.0000
vn -0.5374 0.8433 -0.0000
vn -0.5374 -0.8433 -0.0000
vn -0.0000 0.8433 -0.5374
vn 0.0714 0.9211 0.3828
vn -0.0000 -0.8433 0.5374
vn 0.0714 -0.9211 -0.3828
vn -0.9238 -0.1103 -0.3665
vn -0.8433 -0.0000 0.5374
vn -0.8433 -0.0000 -0.5374
vn -0.9238 0.1103 0.3665
vn 0.0971 0.9953 -0.0000
vn 0.0971 -0.9953 -0.0000
vn -0.0000 0.7364 -0.6766
vn 0.0838 0.8596 0.5040
vn -0.0000 -0.7364 0.6766
vn 0.0838 -0.8596 -0.5040
vn -0.6766 0.7364 -0.0000
vn -0.6766 -0.7364 -0.0000
vn -0.8386 -0.0000 -0.5448
vn -0.8386 -0.0000 0.5448
vn 0.0714 0.9211 -0.3828
vn -0.0000 0.8433 0.5374
vn 0.0714 -0.9211 0.3828
vn -0.0000 -0.8433 -0.5374
vn -0.9238 -0.1103 0.3665
vn -0.9238 0.1103 -0.3665
vn 0.0838 0.8596 -0.5040
vn -0.0000 0.7364 0.6766
vn 0.0838 -0.8596 0.5040
vn -0.0000 -0.7364 -0.6766
vt 0.404397 0.279397
vt 0.404397 0.470603
vt 0.595603 0.470603
vt 0.000000 0.000000
vt 0.595603 0.279397
vt 0.438956 0.279397
vt 0.438956 0.279397
vt 0.561044 0.470603
vt 0.561044 0.279397
vt 0.438956 0.470603
vt 0.438956 0.470603
vt 0.492027 0.470603
vt 0.507973 0.470603
vt 0.507973 0.470603
vt 0.507973 0.279397
vt 0.492027 0.279397
vt 0.492027 0.279397
vt 0.507973 0.279397
vt 0.466206 0.279397
vt 0.466206 0.279397
vt 0.492027 0.470603
vt 0.507973 0.470603
vt 0.533794 0.279397
vt 0.533794 0.470603
vt 0.533794 0.279397
vt 0.533794 0.470603
vt 0.466206 0.470603
vt 0.466206 0.470603
vt 0.466206 0.279397
vt 0.466206 0.470603
vt 0.466206 0.470603
vt 0.533794 0.470603
vt 0.529047 0.279397
vt 0.529047 0.470603
vt 0.470953 0.470603
vt 0.470953 0.279397
vt 0.470953 0.279397
vt 0.470953 0.470603
vt 0.529047 0.470603
vt 0.529047 0.279397
vt 0.470953 0.279397
vt 0.507973 0.279397
vt 0.438956 0.470603
vt 0.477605 0.279397
vt 0.522395 0.279397
vt 0.522395 0.279397
vt 0.522395 0.470603
vt 0.477605 0.470603
vt 0.477605 0.470603
vt 0.553183 0.279397
vt 0.446817 0.279397
vt 0.446817 0.470603
vt 0.553183 0.470603
vt 0.553183 0.279397
vt 0.446817 0.470603
vt 0.522395 0.470603
s 0
f 1/1/1 7/2/1 2/2/1
f 2/2/2 156/1/2 1/1/2
f 4/3/2 158/2/2 2/2/2
f 168/4/3 163/4/3 165/4/3
f 4/3/4 5/5/4 3/5/4
f 3/5/5 6/1/5 1/1/5
f 2/2/6 8/3/6 4/3/6
f 21/5/3 57/1/3 22/1/3
f 6/1/3 20/2/3 7/2/3
f 7/2/3 19/3/3 8/3/3
f 10/6/1 30/7/1 14/7/1
f 12/8/4 31/8/4 16/8/4
f 18/1/1 24/2/1 20/2/1
f 19/3/4 21/5/4 17/5/4
f 8/3/3 17/5/3 5/5/3
f 5/5/3 18/1/3 6/1/3
f 10/6/5 17/5/5 9/9/5
f 12/8/6 20/2/6 11/10/6
f 13/9/5 22/1/5 14/7/5
f 15/11/6 23/3/6 16/8/6
f 9/9/5 21/5/5 13/9/5
f 14/7/5 18/1/5 10/6/5
f 11/10/6 24/2/6 15/11/6
f 16/8/6 19/3/6 12/8/6
f 119/12/7 51/13/7 120/14/7
f 27/8/5 47/8/5 31/8/5
f 16/8/2 32/11/2 15/11/2
f 11/10/3 27/8/3 12/8/3
f 15/11/1 28/10/1 11/10/1
f 13/9/4 25/9/4 9/9/4
f 14/7/2 29/9/2 13/9/2
f 9/9/3 26/6/3 10/6/3
f 28/10/5 132/11/5 131/10/5
f 117/15/8 50/16/8 118/17/8
f 26/6/6 129/7/6 30/7/6
f 25/9/6 45/9/6 97/9/6
f 45/9/4 41/9/4 97/9/4
f 33/18/9 118/17/9 34/16/9
f 99/8/4 103/8/4 47/8/4
f 44/10/5 144/11/5 104/11/5
f 122/19/1 54/20/1 38/20/1
f 36/21/10 120/14/10 35/22/10
f 42/6/2 138/7/2 98/7/2
f 25/9/6 130/6/6 26/6/6
f 27/8/5 131/10/5 99/8/5
f 29/9/6 129/7/6 45/9/6
f 31/8/5 132/11/5 32/11/5
f 37/23/2 129/7/2 38/20/2
f 39/24/2 132/11/2 47/8/2
f 121/25/2 133/7/2 101/9/2
f 123/26/2 136/11/2 124/27/2
f 37/23/2 101/9/2 45/9/2
f 122/19/2 129/7/2 133/7/2
f 39/24/2 103/8/2 123/26/2
f 124/27/2 132/11/2 40/28/2
f 128/27/4 64/28/4 68/27/4
f 39/24/5 56/28/5 40/28/5
f 123/26/4 55/24/4 39/24/4
f 37/23/4 125/25/4 121/25/4
f 38/20/6 53/23/6 37/23/6
f 40/28/1 128/27/1 124/27/1
f 23/3/3 172/5/3 21/5/3
f 169/5/2 60/2/2 59/1/2
f 172/5/5 59/1/5 57/1/5
f 58/2/6 170/3/6 171/3/6
f 23/3/3 58/2/3 171/3/3
f 22/1/3 58/2/3 24/2/3
f 81/25/2 78/20/2 82/19/2
f 55/24/4 67/26/4 63/24/4
f 54/20/4 66/19/4 62/20/4
f 125/25/4 61/23/4 65/25/4
f 68/27/11 72/28/11 76/27/11
f 67/26/12 71/24/12 63/24/12
f 66/19/11 70/20/11 62/20/11
f 80/28/2 83/26/2 84/27/2
f 65/25/12 69/23/12 73/25/12
f 53/23/4 62/20/4 61/23/4
f 56/28/4 63/24/4 64/28/4
f 126/4/4 65/4/4 66/4/4
f 127/4/4 68/4/4 67/4/4
f 89/19/13 78/20/13 90/29/13
f 85/30/13 84/27/13 86/31/13
f 86/31/14 83/26/14 87/32/14
f 88/24/15 80/28/15 85/30/15
f 87/32/16 79/24/16 88/24/16
f 91/23/16 81/25/16 92/25/16
f 92/25/15 82/19/15 89/19/15
f 90/29/14 77/23/14 91/23/14
f 62/20/17 69/23/17 61/23/17
f 63/24/18 72/28/18 64/28/18
f 65/25/18 74/19/18 66/19/18
f 68/27/17 75/26/17 67/26/17
f 71/24/19 87/32/19 88/24/19
f 71/24/20 85/30/20 72/28/20
f 76/27/21 87/32/21 75/26/21
f 72/28/22 86/31/22 76/27/22
f 70/20/21 91/23/21 69/23/21
f 73/25/20 89/19/20 74/19/20
f 69/23/19 92/25/19 73/25/19
f 74/19/22 90/29/22 70/20/22
f 58/4/1 59/4/1 60/4/1
f 96/4/5 173/4/5 93/4/5
f 109/33/3 130/6/3 97/9/3
f 111/34/3 131/10/3 112/35/3
f 113/33/5 133/7/5 114/36/5
f 115/34/6 136/11/6 103/8/6
f 113/33/5 41/9/5 101/9/5
f 114/36/5 134/6/5 106/37/5
f 116/38/6 135/10/6 136/11/6
f 115/34/6 43/8/6 108/39/6
f 109/33/3 41/9/3 105/40/3
f 110/41/3 134/6/3 130/6/3
f 111/34/3 43/8/3 99/8/3
f 112/35/3 135/10/3 107/38/3
f 34/16/23 109/33/23 33/18/23
f 35/22/24 112/35/24 36/21/24
f 49/42/25 114/36/25 50/16/25
f 52/12/26 115/34/26 51/13/26
f 49/42/27 105/40/27 113/33/27
f 50/16/28 106/37/28 118/17/28
f 52/12/29 107/38/29 116/38/29
f 51/13/30 108/39/30 120/14/30
f 33/18/31 105/40/31 117/15/31
f 34/16/32 106/37/32 110/41/32
f 35/22/33 108/39/33 111/34/33
f 36/21/34 107/38/34 119/12/34
f 46/7/1 130/6/1 98/7/1
f 100/11/1 132/11/1 48/43/1
f 42/6/1 133/7/1 102/7/1
f 104/11/1 135/10/1 44/10/1
f 102/7/1 129/7/1 46/7/1
f 98/7/1 134/6/1 42/6/1
f 48/43/1 136/11/1 104/11/1
f 44/10/1 131/10/1 100/11/1
f 138/7/1 141/7/1 137/7/1
f 140/43/1 143/10/1 139/11/1
f 48/43/6 139/11/6 100/11/6
f 104/11/3 140/43/3 48/43/3
f 46/7/3 141/7/3 102/7/3
f 102/7/6 142/6/6 42/6/6
f 98/7/5 137/7/5 46/7/5
f 100/11/2 143/10/2 44/10/2
f 148/44/35 162/45/35 145/46/35
f 153/5/4 160/3/4 159/3/4
f 151/47/36 165/48/36 150/49/36
f 158/2/1 155/1/1 156/1/1
f 3/5/2 159/3/2 4/3/2
f 3/5/2 156/1/2 153/5/2
f 161/50/5 154/5/5 153/5/5
f 164/51/5 155/1/5 147/51/5
f 166/52/6 157/2/6 158/2/6
f 167/53/6 160/3/6 152/53/6
f 161/50/5 156/1/5 164/51/5
f 166/52/6 159/3/6 167/53/6
f 152/4/3 154/4/3 146/4/3
f 147/4/3 157/4/3 149/4/3
f 145/46/37 146/54/37 161/50/37
f 148/44/38 147/51/38 163/44/38
f 150/49/39 149/55/39 166/52/39
f 151/47/40 152/53/40 168/56/40
f 145/46/41 164/51/41 148/44/41
f 150/49/42 167/53/42 151/47/42
f 168/4/43 146/4/43 162/4/43
f 163/4/44 149/4/44 165/4/44
f 121/4/5 65/4/5 122/4/5
f 123/4/6 124/4/6 68/4/6
f 94/4/4 169/4/4 93/4/4
f 95/4/4 170/4/4 94/4/4
f 93/4/4 172/4/4 96/4/4
f 96/4/4 171/4/4 95/4/4
f 176/4/4 174/4/4 173/4/4
f 93/4/2 174/4/2 94/4/2
f 95/4/3 176/4/3 96/4/3
f 94/4/6 175/4/6 95/4/6
f 1/1/1 6/1/1 7/2/1
f 2/2/2 158/2/2 156/1/2
f 4/3/2 159/3/2 158/2/2
f 168/4/3 162/4/3 163/4/3
f 4/3/4 8/3/4 5/5/4
f 3/5/5 5/5/5 6/1/5
f 2/2/6 7/2/6 8/3/6
f 21/5/3 172/5/3 57/1/3
f 6/1/3 18/1/3 20/2/3
f 7/2/3 20/2/3 19/3/3
f 10/6/1 26/6/1 30/7/1
f 12/8/4 27/8/4 31/8/4
f 18/1/1 22/1/1 24/2/1
f 19/3/4 23/3/4 21/5/4
f 8/3/3 19/3/3 17/5/3
f 5/5/3 17/5/3 18/1/3
f 10/6/5 18/1/5 17/5/5
f 12/8/6 19/3/6 20/2/6
f 13/9/5 21/5/5 22/1/5
f 15/11/6 24/2/6 23/3/6
f 9/9/5 17/5/5 21/5/5
f 14/7/5 22/1/5 18/1/5
f 11/10/6 20/2/6 24/2/6
f 16/8/6 23/3/6 19/3/6
f 119/12/7 52/12/7 51/13/7
f 27/8/5 99/8/5 47/8/5
f 16/8/2 31/8/2 32/11/2
f 11/10/3 28/10/3 27/8/3
f 15/11/1 32/11/1 28/10/1
f 13/9/4 29/9/4 25/9/4
f 14/7/2 30/7/2 29/9/2
f 9/9/3 25/9/3 26/6/3
f 28/10/5 32/11/5 132/11/5
f 117/15/8 49/42/8 50/16/8
f 26/6/6 130/6/6 129/7/6
f 25/9/6 29/9/6 45/9/6
f 45/9/4 101/9/4 41/9/4
f 33/18/9 117/15/9 118/17/9
f 99/8/4 43/8/4 103/8/4
f 44/10/5 143/10/5 144/11/5
f 122/19/1 126/19/1 54/20/1
f 36/21/10 119/12/10 120/14/10
f 42/6/2 142/6/2 138/7/2
f 25/9/6 97/9/6 130/6/6
f 27/8/5 28/10/5 131/10/5
f 29/9/6 30/7/6 129/7/6
f 31/8/5 47/8/5 132/11/5
f 37/23/2 45/9/2 129/7/2
f 39/24/2 40/28/2 132/11/2
f 121/25/2 122/19/2 133/7/2
f 123/26/2 103/8/2 136/11/2
f 37/23/2 121/25/2 101/9/2
f 122/19/2 38/20/2 129/7/2
f 39/24/2 47/8/2 103/8/2
f 124/27/2 136/11/2 132/11/2
f 128/27/4 56/28/4 64/28/4
f 39/24/5 55/24/5 56/28/5
f 123/26/4 127/26/4 55/24/4
f 37/23/4 53/23/4 125/25/4
f 38/20/6 54/20/6 53/23/6
f 40/28/1 56/28/1 128/27/1
f 23/3/3 171/3/3 172/5/3
f 169/5/2 170/3/2 60/2/2
f 172/5/5 169/5/5 59/1/5
f 58/2/6 60/2/6 170/3/6
f 23/3/3 24/2/3 58/2/3
f 22/1/3 57/1/3 58/2/3
f 81/25/2 77/23/2 78/20/2
f 55/24/4 127/26/4 67/26/4
f 54/20/4 126/19/4 66/19/4
f 125/25/4 53/23/4 61/23/4
f 68/27/11 64/28/11 72/28/11
f 67/26/12 75/26/12 71/24/12
f 66/19/11 74/19/11 70/20/11
f 80/28/2 79/24/2 83/26/2
f 65/25/12 61/23/12 69/23/12
f 53/23/4 54/20/4 62/20/4
f 56/28/4 55/24/4 63/24/4
f 126/4/4 125/4/4 65/4/4
f 127/4/4 128/4/4 68/4/4
f 89/19/13 82/19/13 78/20/13
f 85/30/13 80/28/13 84/27/13
f 86/31/14 84/27/14 83/26/14
f 88/24/15 79/24/15 80/28/15
f 87/32/16 83/26/16 79/24/16
f 91/23/16 77/23/16 81/25/16
f 92/25/15 81/25/15 82/19/15
f 90/29/14 78/20/14 77/23/14
f 62/20/17 70/20/17 69/23/17
f 63/24/18 71/24/18 72/28/18
f 65/25/18 73/25/18 74/19/18
f 68/27/17 76/27/17 75/26/17
f 71/24/19 75/26/19 87/32/19
f 71/24/20 88/24/20 85/30/20
f 76/27/21 86/31/21 87/32/21
f 72/28/22 85/30/22 86/31/22
f 70/20/21 90/29/21 91/23/21
f 73/25/20 92/25/20 89/19/20
f 69/23/19 91/23/19 92/25/19
f 74/19/22 89/19/22 90/29/22
f 58/4/1 57/4/1 59/4/1
f 96/4/5 176/4/5 173/4/5
f 109/33/3 110/41/3 130/6/3
f 111/34/3 99/8/3 131/10/3
f 113/33/5 101/9/5 133/7/5
f 115/34/6 116/38/6 136/11/6
f 113/33/5 105/40/5 41/9/5
f 114/36/5 133/7/5 134/6/5
f 116/38/6 107/38/6 135/10/6
f 115/34/6 103/8/6 43/8/6
f 109/33/3 97/9/3 41/9/3
f 110/41/3 106/37/3 134/6/3
f 111/34/3 108/39/3 43/8/3
f 112/35/3 131/10/3 135/10/3
f 34/16/23 110/41/23 109/33/23
f 35/22/24 111/34/24 112/35/24
f 49/42/25 113/33/25 114/36/25
f 52/12/26 116/38/26 115/34/26
f 49/42/45 117/15/45 105/40/45
f 50/16/46 114/36/46 106/37/46
f 52/12/47 119/12/47 107/38/47
f 51/13/48 115/34/48 108/39/48
f 33/18/33 109/33/33 105/40/33
f 34/16/49 118/17/49 106/37/49
f 35/22/50 120/14/50 108/39/50
f 36/21/32 112/35/32 107/38/32
f 46/7/1 129/7/1 130/6/1
f 100/11/1 131/10/1 132/11/1
f 42/6/1 134/6/1 133/7/1
f 104/11/1 136/11/1 135/10/1
f 102/7/1 133/7/1 129/7/1
f 98/7/1 130/6/1 134/6/1
f 48/43/1 132/11/1 136/11/1
f 44/10/1 135/10/1 131/10/1
f 138/7/1 142/6/1 141/7/1
f 140/43/1 144/11/1 143/10/1
f 48/43/6 140/43/6 139/11/6
f 104/11/3 144/11/3 140/43/3
f 46/7/3 137/7/3 141/7/3
f 102/7/6 141/7/6 142/6/6
f 98/7/5 138/7/5 137/7/5
f 100/11/2 139/11/2 143/10/2
f 148/44/35 163/44/35 162/45/35
f 153/5/4 154/5/4 160/3/4
f 151/47/36 168/56/36 165/48/36
f 158/2/1 157/2/1 155/1/1
f 3/5/2 153/5/2 159/3/2
f 3/5/2 1/1/2 156/1/2
f 161/50/5 146/54/5 154/5/5
f 164/51/5 156/1/5 155/1/5
f 166/52/6 149/55/6 157/2/6
f 167/53/6 159/3/6 160/3/6
f 161/50/5 153/5/5 156/1/5
f 166/52/6 158/2/6 159/3/6
f 152/4/3 160/4/3 154/4/3
f 147/4/3 155/4/3 157/4/3
f 145/46/51 162/45/51 146/54/51
f 148/44/52 164/51/52 147/51/52
f 150/49/53 165/48/53 149/55/53
f 151/47/54 167/53/54 152/53/54
f 145/46/41 161/50/41 164/51/41
f 150/49/42 166/52/42 167/53/42
f 168/4/43 152/4/43 146/4/43
f 163/4/44 147/4/44 149/4/44
f 125/4/4 66/4/4 65/4/4
f 65/4/5 126/4/5 122/4/5
f 121/4/4 125/4/4 65/4/4
f 128/4/4 67/4/4 68/4/4
f 68/4/6 127/4/6 123/4/6
f 124/4/4 128/4/4 68/4/4
f 94/4/4 170/4/4 169/4/4
f 95/4/4 171/4/4 170/4/4
f 93/4/4 169/4/4 172/4/4
f 96/4/4 172/4/4 171/4/4
f 176/4/4 175/4/4 174/4/4
f 93/4/2 173/4/2 174/4/2
f 95/4/3 175/4/3 176/4/3
f 94/4/6 174/4/6 175/4/6
