# Blender 4.1.1
# www.blender.org
mtllib TestBox.mtl
o Cube
v 1.000000 1.000000 -1.000000
v 1.000000 -0.709949 -1.000000
v 1.000000 1.000000 1.000000
v 1.000000 -1.000000 1.000000
v -1.000000 1.000000 -1.000000
v -1.000000 -0.709949 -1.000000
v -1.000000 1.000000 1.000000
v -1.000000 -0.709949 1.000000
v -1.000000 -1.000000 -1.000000
v -1.000000 -1.000000 1.000000
v 1.000000 -1.000000 -1.000000
v 1.000000 0.709949 1.000000
v -1.000000 0.709949 1.000000
v 1.000000 0.709949 -1.000000
v 1.000000 -0.709949 1.000000
v -1.000000 0.709949 -1.000000
v -0.859682 -0.424609 -0.859682
v -0.859682 -0.424609 0.859682
v 0.859682 -0.424609 -0.859682
v 0.859682 0.424609 0.859682
v -0.859682 0.424609 0.859682
v 0.859682 0.424609 -0.859682
v 0.859682 -0.424609 0.859682
v -0.859682 0.424609 -0.859682
vn -0.0000 1.0000 -0.0000
vn -0.0000 -0.0000 1.0000
vn -1.0000 -0.0000 -0.0000
vn -0.0000 -1.0000 -0.0000
vn 1.0000 -0.0000 -0.0000
vn -0.0000 -0.0000 -1.0000
vn -0.8974 0.4413 -0.0000
vn -0.0000 0.4413 -0.8974
vn -0.0000 -0.4413 0.8974
vn 0.8974 -0.4413 -0.0000
vn -0.0000 0.4413 0.8974
vn -0.8974 -0.4413 -0.0000
vn -0.0000 -0.4413 -0.8974
vn 0.8974 0.4413 -0.0000
vt 0.625000 0.500000
vt 0.875000 0.500000
vt 0.875000 0.750000
vt 0.625000 0.750000
vt 0.446924 0.750000
vt 0.553076 0.750000
vt 0.553076 1.000000
vt 0.446924 1.000000
vt 0.446924 0.000000
vt 0.553076 0.000000
vt 0.553076 0.250000
vt 0.446924 0.250000
vt 0.125000 0.500000
vt 0.375000 0.500000
vt 0.375000 0.750000
vt 0.125000 0.750000
vt 0.446924 0.500000
vt 0.553076 0.500000
vt 0.411256 0.000000
vt 0.411256 0.250000
vt 0.375000 0.250000
vt 0.375000 0.000000
vt 0.411256 0.500000
vt 0.588744 1.000000
vt 0.588744 0.750000
vt 0.625000 1.000000
vt 0.588744 0.500000
vt 0.411256 0.750000
vt 0.411256 1.000000
vt 0.375000 1.000000
vt 0.588744 0.250000
vt 0.588744 0.000000
vt 0.625000 0.000000
vt 0.625000 0.250000
s 0
usemtl Material
f 1/1/1 5/2/1 7/3/1 3/4/1
f 23/5/2 20/6/2 21/7/2 18/8/2
f 18/9/3 21/10/3 24/11/3 17/12/3
f 9/13/4 11/14/4 4/15/4 10/16/4
f 19/17/5 22/18/5 20/6/5 23/5/5
f 17/12/6 24/11/6 22/18/6 19/17/6
f 8/19/3 6/20/3 9/21/3 10/22/3
f 6/20/6 2/23/6 11/14/6 9/21/6
f 13/24/2 12/25/2 3/4/2 7/26/2
f 12/25/5 14/27/5 1/1/5 3/4/5
f 15/28/2 8/29/2 10/30/2 4/15/2
f 16/31/3 13/32/3 7/33/3 5/34/3
f 14/27/6 16/31/6 5/34/6 1/1/6
f 2/23/5 15/28/5 4/15/5 11/14/5
f 18/9/7 17/12/7 6/20/7 8/19/7
f 17/12/8 19/17/8 2/23/8 6/20/8
f 21/7/9 20/6/9 12/25/9 13/24/9
f 20/6/10 22/18/10 14/27/10 12/25/10
f 23/5/11 18/8/11 8/29/11 15/28/11
f 24/11/12 21/10/12 13/32/12 16/31/12
f 22/18/13 24/11/13 16/31/13 14/27/13
f 19/17/14 23/5/14 15/28/14 2/23/14
