# Blender 5.0.1
# www.blender.org
mtllib CrappyLamp.mtl
o Cylinder
v 0.212837 0.000000 -0.291302
v 0.237841 0.000000 -0.313714
v 0.301730 -0.000000 0.151691
v 0.330353 -0.000000 0.169247
v 0.065770 -0.202420 -0.291302
v 0.073497 -0.226200 -0.313714
v 0.093240 -0.286962 0.151691
v 0.102085 -0.314185 0.169247
v -0.172189 -0.125103 -0.291302
v -0.192418 -0.139800 -0.313714
v -0.244105 -0.177352 0.151691
v -0.267261 -0.194177 0.169247
v -0.172189 0.125103 -0.291302
v -0.192418 0.139800 -0.313714
v -0.244105 0.177352 0.151691
v -0.267261 0.194177 0.169247
v 0.065770 0.202420 -0.291302
v 0.073497 0.226200 -0.313714
v 0.093240 0.286962 0.151691
v 0.102085 0.314185 0.169247
v 0.220353 -0.010198 -0.290137
v 0.307264 -0.009104 0.149426
v 0.103608 -0.289412 0.149426
v 0.077792 -0.206417 -0.290137
v 0.058394 -0.212720 -0.290137
v 0.086291 -0.295038 0.149426
v -0.243231 -0.187970 0.149426
v -0.172275 -0.137771 -0.290137
v -0.184264 -0.121270 -0.290137
v -0.253933 -0.173240 0.149426
v -0.253933 0.173240 0.149426
v -0.184264 0.121270 -0.290137
v -0.172275 0.137771 -0.290137
v -0.243231 0.187970 0.149426
v 0.086291 0.295038 0.149426
v 0.058394 0.212720 -0.290137
v 0.077792 0.206417 -0.290137
v 0.103608 0.289412 0.149426
v 0.307264 0.009104 0.149426
v 0.220353 0.010198 -0.290137
v 0.208550 0.000000 -0.302508
v 0.064446 -0.198343 -0.302508
v -0.168721 -0.122583 -0.302508
v -0.168721 0.122583 -0.302508
v 0.064446 0.198343 -0.302508
v 0.092474 -0.284606 0.160469
v 0.299252 -0.000000 0.160469
v 0.092474 0.284606 0.160469
v -0.242100 0.175896 0.160469
v -0.242100 -0.175896 0.160469
vn -0.8032 -0.5736 0.1612
vn 0.4253 -0.9014 -0.0815
vn -0.1817 0.1320 -0.9745
vn 0.6713 -0.4878 -0.5580
vn 0.2607 0.9513 0.1643
vn 0.9896 -0.1188 -0.0806
vn -0.0776 0.0564 0.9954
vn 0.7646 -0.5555 0.3268
vn -0.7937 0.5866 0.1612
vn -0.7258 -0.6831 -0.0815
vn 0.0694 0.2136 -0.9745
vn -0.2564 -0.7892 -0.5580
vn 0.9853 0.0460 0.1643
vn 0.1928 -0.9779 -0.0806
vn 0.0297 0.0913 0.9954
vn -0.2920 -0.8988 0.3268
vn 0.3126 0.9361 0.1612
vn -0.8739 0.4792 -0.0815
vn 0.2246 -0.0000 -0.9745
vn -0.8298 -0.0000 -0.5580
vn 0.3483 -0.9229 0.1643
vn -0.8705 -0.4856 -0.0806
vn 0.0960 -0.0000 0.9954
vn -0.9451 -0.0000 0.3268
vn 0.9869 -0.0081 0.1612
vn 0.1857 0.9792 -0.0815
vn 0.0694 -0.2136 -0.9745
vn -0.2564 0.7892 -0.5580
vn -0.7701 -0.6164 0.1643
vn -0.7308 0.6778 -0.0806
vn 0.0297 -0.0913 0.9954
vn -0.2920 0.8988 0.3268
vn 0.2973 -0.9411 0.1612
vn 0.9887 0.1260 -0.0815
vn -0.1817 -0.1320 -0.9745
vn 0.6713 0.4878 -0.5580
vn -0.8242 0.5419 0.1643
vn 0.4188 0.9045 -0.0806
vn -0.0776 -0.0564 0.9954
vn 0.7646 0.5555 0.3268
vn -0.7728 0.5615 0.2957
vn -0.3459 0.2513 -0.9040
vn 0.2952 0.9085 0.2957
vn 0.1321 0.4066 -0.9040
vn 0.9553 -0.0000 0.2957
vn 0.4275 -0.0000 -0.9040
vn 0.2952 -0.9085 0.2957
vn 0.1321 -0.4066 -0.9040
vn -0.7728 -0.5615 0.2957
vn -0.3459 -0.2513 -0.9040
vn -0.7887 0.5730 -0.2226
vn -0.2665 0.1936 0.9442
vn -0.7887 -0.5730 -0.2226
vn -0.2665 -0.1936 0.9442
vn 0.3013 -0.9272 -0.2226
vn 0.1018 -0.3133 0.9442
vn 0.9749 -0.0000 -0.2226
vn 0.3294 -0.0000 0.9442
vn 0.3013 0.9272 -0.2226
vn 0.1018 0.3133 0.9442
vn -0.8242 -0.5419 0.1643
vn 0.4188 -0.9045 -0.0806
vn 0.2973 0.9411 0.1612
vn 0.9887 -0.1260 -0.0815
vn -0.7701 0.6164 0.1643
vn -0.7308 -0.6778 -0.0806
vn 0.9869 0.0081 0.1612
vn 0.1857 -0.9792 -0.0815
vn 0.3483 0.9229 0.1643
vn -0.8705 0.4856 -0.0806
vn 0.3126 -0.9361 0.1612
vn -0.8739 -0.4792 -0.0815
vn 0.9853 -0.0460 0.1643
vn 0.1928 0.9779 -0.0806
vn -0.7937 -0.5866 0.1612
vn -0.7258 0.6831 -0.0815
vn 0.2607 -0.9513 0.1643
vn 0.9896 0.1188 -0.0806
vn -0.8032 0.5736 0.1612
vn 0.4253 0.9014 -0.0815
vt 1.000000 0.500000
vt 1.000000 1.000000
vt 0.800000 1.000000
vt 0.800000 0.500000
vt 0.600000 1.000000
vt 0.600000 0.500000
vt 0.400000 1.000000
vt 0.400000 0.500000
vt 0.200000 1.000000
vt 0.200000 0.500000
vt 0.000000 1.000000
vt 0.000000 0.500000
vt 0.978254 0.324164
vt 0.750000 0.490000
vt 0.891068 0.055836
vt 0.608932 0.055836
vt 0.521746 0.324164
s 0
f 21/1/1 3/2/1 1/1/1
f 22/2/2 2/1/2 4/2/2
f 23/3/3 3/2/3 22/2/3
f 22/2/4 8/3/4 23/3/4
f 24/4/5 7/3/5 23/3/5
f 23/3/6 6/4/6 24/4/6
f 21/1/7 5/4/7 24/4/7
f 24/4/8 2/1/8 21/1/8
f 25/4/9 7/3/9 5/4/9
f 26/3/10 6/4/10 8/3/10
f 26/3/11 11/5/11 7/3/11
f 27/5/12 8/3/12 12/5/12
f 28/6/13 11/5/13 27/5/13
f 27/5/14 10/6/14 28/6/14
f 25/4/15 9/6/15 28/6/15
f 28/6/16 6/4/16 25/4/16
f 29/6/17 11/5/17 9/6/17
f 30/5/18 10/6/18 12/5/18
f 31/7/19 11/5/19 30/5/19
f 31/7/20 12/5/20 16/7/20
f 32/8/21 15/7/21 31/7/21
f 31/7/22 14/8/22 32/8/22
f 29/6/23 13/8/23 32/8/23
f 29/6/24 14/8/24 10/6/24
f 33/8/25 15/7/25 13/8/25
f 34/7/26 14/8/26 16/7/26
f 35/9/27 15/7/27 34/7/27
f 34/7/28 20/9/28 35/9/28
f 36/10/29 19/9/29 35/9/29
f 35/9/30 18/10/30 36/10/30
f 33/8/31 17/10/31 36/10/31
f 36/10/32 14/8/32 33/8/32
f 37/10/33 19/9/33 17/10/33
f 38/9/34 18/10/34 20/9/34
f 38/9/35 3/11/35 19/9/35
f 38/9/36 4/11/36 39/11/36
f 40/12/37 3/11/37 39/11/37
f 39/11/38 2/12/38 40/12/38
f 37/10/39 1/12/39 40/12/39
f 40/12/40 18/10/40 37/10/40
f 42/13/41 1/14/41 41/14/41
f 41/14/42 6/13/42 42/13/42
f 43/15/43 5/13/43 42/13/43
f 42/13/44 10/15/44 43/15/44
f 44/16/45 9/15/45 43/15/45
f 43/15/46 14/16/46 44/16/46
f 45/17/47 13/16/47 44/16/47
f 44/16/48 18/17/48 45/17/48
f 41/14/49 17/17/49 45/17/49
f 45/17/50 2/14/50 41/14/50
f 47/11/51 7/3/51 46/3/51
f 47/11/52 8/3/52 4/11/52
f 48/9/53 3/11/53 47/11/53
f 47/11/54 20/9/54 48/9/54
f 49/7/55 19/9/55 48/9/55
f 49/7/56 20/9/56 16/7/56
f 50/5/57 15/7/57 49/7/57
f 49/7/58 12/5/58 50/5/58
f 46/3/59 11/5/59 50/5/59
f 46/3/60 12/5/60 8/3/60
f 21/1/61 22/2/61 3/2/61
f 22/2/62 21/1/62 2/1/62
f 23/3/3 7/3/3 3/2/3
f 22/2/4 4/2/4 8/3/4
f 24/4/63 5/4/63 7/3/63
f 23/3/64 8/3/64 6/4/64
f 21/1/7 1/1/7 5/4/7
f 24/4/8 6/4/8 2/1/8
f 25/4/65 26/3/65 7/3/65
f 26/3/66 25/4/66 6/4/66
f 26/3/11 27/5/11 11/5/11
f 27/5/12 26/3/12 8/3/12
f 28/6/67 9/6/67 11/5/67
f 27/5/68 12/5/68 10/6/68
f 25/4/15 5/4/15 9/6/15
f 28/6/16 10/6/16 6/4/16
f 29/6/69 30/5/69 11/5/69
f 30/5/70 29/6/70 10/6/70
f 31/7/19 15/7/19 11/5/19
f 31/7/20 30/5/20 12/5/20
f 32/8/71 13/8/71 15/7/71
f 31/7/72 16/7/72 14/8/72
f 29/6/23 9/6/23 13/8/23
f 29/6/24 32/8/24 14/8/24
f 33/8/73 34/7/73 15/7/73
f 34/7/74 33/8/74 14/8/74
f 35/9/27 19/9/27 15/7/27
f 34/7/28 16/7/28 20/9/28
f 36/10/75 17/10/75 19/9/75
f 35/9/76 20/9/76 18/10/76
f 33/8/31 13/8/31 17/10/31
f 36/10/32 18/10/32 14/8/32
f 37/10/77 38/9/77 19/9/77
f 38/9/78 37/10/78 18/10/78
f 38/9/35 39/11/35 3/11/35
f 38/9/36 20/9/36 4/11/36
f 40/12/79 1/12/79 3/11/79
f 39/11/80 4/11/80 2/12/80
f 37/10/39 17/10/39 1/12/39
f 40/12/40 2/12/40 18/10/40
f 42/13/41 5/13/41 1/14/41
f 41/14/42 2/14/42 6/13/42
f 43/15/43 9/15/43 5/13/43
f 42/13/44 6/13/44 10/15/44
f 44/16/45 13/16/45 9/15/45
f 43/15/46 10/15/46 14/16/46
f 45/17/47 17/17/47 13/16/47
f 44/16/48 14/16/48 18/17/48
f 41/14/49 1/14/49 17/17/49
f 45/17/50 18/17/50 2/14/50
f 47/11/51 3/11/51 7/3/51
f 47/11/52 46/3/52 8/3/52
f 48/9/53 19/9/53 3/11/53
f 47/11/54 4/11/54 20/9/54
f 49/7/55 15/7/55 19/9/55
f 49/7/56 48/9/56 20/9/56
f 50/5/57 11/5/57 15/7/57
f 49/7/58 16/7/58 12/5/58
f 46/3/59 7/3/59 11/5/59
f 46/3/60 50/5/60 12/5/60
o Cylinder.001
v 0.316042 -0.000000 0.271698
v 0.097662 -0.300573 0.271698
v -0.255683 -0.185765 0.271698
v -0.255683 0.185765 0.271698
v 0.097662 0.300573 0.271698
v 0.391673 -0.000000 0.217009
v 0.121034 -0.372503 0.217009
v -0.316870 -0.230219 0.217009
v -0.316870 0.230219 0.217009
v 0.121034 0.372503 0.217009
vn -0.0000 -0.0000 1.0000
vn -0.0000 -0.0000 -1.0000
vn 0.5391 -0.3917 0.7456
vn -0.2059 -0.6338 0.7456
vn -0.6664 -0.0000 0.7456
vn -0.2059 0.6338 0.7456
vn 0.5391 0.3917 0.7456
vt 0.250000 0.490000
vt 0.108932 0.055836
vt 0.391068 0.055836
vt 0.021746 0.324164
vt 0.478254 0.324164
s 0
f 51/18/81 54/19/81 53/20/81
f 58/20/82 60/21/82 56/18/82
f 51/18/83 57/22/83 56/18/83
f 52/22/84 58/20/84 57/22/84
f 54/19/85 58/20/85 53/20/85
f 55/21/86 59/19/86 54/19/86
f 55/21/87 56/18/87 60/21/87
f 53/20/81 52/22/81 51/18/81
f 51/18/81 55/21/81 54/19/81
f 56/18/82 57/22/82 58/20/82
f 58/20/82 59/19/82 60/21/82
f 51/18/83 52/22/83 57/22/83
f 52/22/84 53/20/84 58/20/84
f 54/19/85 59/19/85 58/20/85
f 55/21/86 60/21/86 59/19/86
f 55/21/87 51/18/87 56/18/87
