# Blender 5.0.1
# www.blender.org
mtllib DirectedLightThing.mtl
o Cylinder
v 0.513555 0.000000 0.509561
v -0.349705 0.000000 0.410567
v 0.513555 -0.236805 0.451194
v -0.349705 -0.190800 0.363539
v 0.513555 -0.419360 0.289463
v -0.349705 -0.337890 0.233229
v 0.513555 -0.505845 0.061421
v -0.349705 -0.407574 0.049488
v 0.513555 -0.476447 -0.180693
v -0.349705 -0.383887 -0.145589
v 0.513555 -0.337901 -0.381412
v -0.349705 -0.272257 -0.307314
v 0.513555 -0.121946 -0.494754
v -0.349704 -0.098255 -0.398637
v 0.513555 0.121946 -0.494754
v -0.349704 0.098255 -0.398637
v 0.513555 0.337901 -0.381412
v -0.349705 0.272257 -0.307314
v 0.513555 0.476448 -0.180693
v -0.349705 0.383887 -0.145589
v 0.513555 0.505845 0.061421
v -0.349705 0.407574 0.049488
v 0.513555 0.419360 0.289463
v -0.349705 0.337890 0.233229
v 0.513555 0.236805 0.451194
v -0.349705 0.190800 0.363539
v -0.505567 -0.236805 0.451194
v -0.505567 0.000000 0.509561
v -0.505567 -0.419360 0.289463
v -0.505567 -0.505845 0.061421
v -0.505567 -0.476447 -0.180693
v -0.505567 -0.337901 -0.381412
v -0.505567 -0.121946 -0.494754
v -0.505567 0.121946 -0.494754
v -0.505567 0.337901 -0.381412
v -0.505567 0.476448 -0.180693
v -0.505567 0.505845 0.061421
v -0.505567 0.419360 0.289463
v -0.505567 0.236805 0.451194
v 0.374291 -0.190800 0.363539
v 0.374291 0.000000 0.410567
v 0.374291 -0.337890 0.233229
v 0.374291 -0.407574 0.049488
v 0.374291 -0.383887 -0.145589
v 0.374291 -0.272257 -0.307314
v 0.374291 -0.098255 -0.398637
v 0.374291 0.098255 -0.398637
v 0.374291 0.272257 -0.307314
v 0.374291 0.383887 -0.145589
v 0.374291 0.407574 0.049488
v 0.374291 0.337890 0.233229
v 0.374291 0.190800 0.363539
vn -0.0000 -0.2393 0.9709
vn -0.0000 -0.6631 0.7485
vn -0.0000 -0.9350 0.3546
vn -0.0000 -0.9927 -0.1205
vn -0.0000 -0.8230 -0.5681
vn -0.0000 -0.4647 -0.8855
vn -0.0000 -0.0000 -1.0000
vn -0.0000 0.4647 -0.8855
vn -0.0000 0.8230 -0.5681
vn -0.0000 0.9927 -0.1205
vn -0.0000 0.9350 0.3546
vn -0.0000 -0.0000 1.0000
vn -0.0000 0.6631 0.7485
vn -0.0000 0.2393 0.9709
vn 1.0000 -0.0000 -0.0000
vn -0.5249 0.2037 -0.8264
vn -0.5249 0.5644 -0.6371
vn -0.5249 0.7959 -0.3018
vn -0.5249 0.8450 0.1026
vn -0.5249 0.7005 0.4835
vn -0.5249 0.3956 0.7537
vn -0.5249 -0.0000 0.8512
vn -0.5249 -0.3956 0.7537
vn -0.5249 -0.7005 0.4835
vn -0.5249 -0.8450 0.1026
vn -0.5249 -0.7959 -0.3018
vn -0.5249 -0.5644 -0.6371
vn -0.5249 -0.2037 -0.8264
vn -1.0000 -0.0000 -0.0000
vn -0.0000 -0.4647 0.8855
vn -0.0000 0.2393 -0.9709
vn -0.0000 -0.8230 0.5681
vn -0.0000 0.6631 -0.7485
vn -0.0000 -0.9927 0.1205
vn -0.0000 0.9350 -0.3546
vn -0.0000 -0.9350 -0.3546
vn -0.0000 0.9927 0.1205
vn -0.0000 -0.6631 -0.7485
vn -0.0000 0.8230 0.5681
vn -0.0000 -0.2393 -0.9709
vn -0.0000 0.4647 0.8855
vt 1.000000 1.000000
vt 0.923077 0.500000
vt 1.000000 0.500000
vt 0.923077 1.000000
vt 0.846154 0.500000
vt 0.846154 1.000000
vt 0.769231 0.500000
vt 0.769231 1.000000
vt 0.692308 0.500000
vt 0.692308 1.000000
vt 0.615385 0.500000
vt 0.615385 1.000000
vt 0.538462 0.500000
vt 0.538462 1.000000
vt 0.461538 0.500000
vt 0.461538 1.000000
vt 0.384615 0.500000
vt 0.384615 1.000000
vt 0.307692 0.500000
vt 0.307692 1.000000
vt 0.230769 0.500000
vt 0.230769 1.000000
vt 0.153846 0.500000
vt 0.296278 0.062244
vt 0.203722 0.062244
vt 0.153846 1.000000
vt 0.076923 0.500000
vt 0.076923 1.000000
vt 0.000000 0.500000
vt 0.861534 0.462509
vt 0.909149 0.070357
vt 0.525596 0.164895
vt 0.339866 0.421225
vt 0.250000 0.490000
vt 0.250000 0.443375
vt 0.409144 0.359849
vt 0.361534 0.462509
vt 0.441965 0.273309
vt 0.447516 0.386336
vt 0.474404 0.164895
vt 0.488250 0.278929
vt 0.378231 0.105257
vt 0.430809 0.181428
vt 0.409149 0.070357
vt 0.307436 0.016974
vt 0.121769 0.105257
vt 0.192564 0.016974
vt 0.025596 0.164895
vt 0.090851 0.070357
vt 0.069191 0.181428
vt 0.011750 0.278929
vt 0.090856 0.359849
vt 0.058035 0.273309
vt 0.160134 0.421225
vt 0.052484 0.386336
vt 0.138466 0.462509
vt 0.000000 1.000000
vt 0.638466 0.462509
vt 0.750000 0.490000
vt 0.947516 0.386336
vt 0.988250 0.278929
vt 0.974404 0.164895
vt 0.807436 0.016974
vt 0.692564 0.016974
vt 0.590851 0.070357
vt 0.511750 0.278929
vt 0.552484 0.386336
s 0
f 28/1/1 3/2/1 1/3/1
f 27/4/2 5/5/2 3/2/2
f 29/6/3 7/7/3 5/5/3
f 30/8/4 9/9/4 7/7/4
f 31/10/5 11/11/5 9/9/5
f 32/12/6 13/13/6 11/11/6
f 33/14/7 15/15/7 13/13/7
f 34/16/8 17/17/8 15/15/8
f 35/18/9 19/19/9 17/17/9
f 36/20/10 21/21/10 19/19/10
f 37/22/11 23/23/11 21/21/11
f 14/24/12 47/25/12 16/25/12
f 38/26/13 25/27/13 23/23/13
f 39/28/14 1/29/14 25/27/14
f 3/30/15 11/31/15 19/32/15
f 4/33/16 28/34/16 2/35/16
f 6/36/17 27/37/17 4/33/17
f 8/38/18 29/39/18 6/36/18
f 8/38/19 31/40/19 30/41/19
f 12/42/20 31/40/20 10/43/20
f 14/24/21 32/44/21 12/42/21
f 16/25/22 33/45/22 14/24/22
f 18/46/23 34/47/23 16/25/23
f 18/46/24 36/48/24 35/49/24
f 20/50/25 37/51/25 36/48/25
f 24/52/26 37/51/26 22/53/26
f 26/54/27 38/55/27 24/52/27
f 2/35/28 39/56/28 26/54/28
f 41/35/29 49/50/29 45/42/29
f 16/25/30 48/46/30 18/46/30
f 2/35/31 40/33/31 4/33/31
f 18/46/32 49/50/32 20/50/32
f 4/33/33 42/36/33 6/36/33
f 20/50/34 50/53/34 22/53/34
f 6/36/35 43/38/35 8/38/35
f 22/53/36 51/52/36 24/52/36
f 8/38/37 44/43/37 10/43/37
f 24/52/38 52/54/38 26/54/38
f 10/43/39 45/42/39 12/42/39
f 26/54/40 41/35/40 2/35/40
f 12/42/41 46/24/41 14/24/41
f 28/1/1 27/4/1 3/2/1
f 27/4/2 29/6/2 5/5/2
f 29/6/3 30/8/3 7/7/3
f 30/8/4 31/10/4 9/9/4
f 31/10/5 32/12/5 11/11/5
f 32/12/6 33/14/6 13/13/6
f 33/14/7 34/16/7 15/15/7
f 34/16/8 35/18/8 17/17/8
f 35/18/9 36/20/9 19/19/9
f 36/20/10 37/22/10 21/21/10
f 37/22/11 38/26/11 23/23/11
f 14/24/12 46/24/12 47/25/12
f 38/26/13 39/28/13 25/27/13
f 39/28/14 28/57/14 1/29/14
f 25/58/15 1/59/15 3/30/15
f 3/30/15 5/60/15 7/61/15
f 7/61/15 9/62/15 11/31/15
f 11/31/15 13/63/15 15/64/15
f 15/64/15 17/65/15 19/32/15
f 19/32/15 21/66/15 23/67/15
f 23/67/15 25/58/15 3/30/15
f 3/30/15 7/61/15 11/31/15
f 11/31/15 15/64/15 19/32/15
f 19/32/15 23/67/15 3/30/15
f 4/33/16 27/37/16 28/34/16
f 6/36/17 29/39/17 27/37/17
f 8/38/18 30/41/18 29/39/18
f 8/38/19 10/43/19 31/40/19
f 12/42/20 32/44/20 31/40/20
f 14/24/21 33/45/21 32/44/21
f 16/25/22 34/47/22 33/45/22
f 18/46/23 35/49/23 34/47/23
f 18/46/24 20/50/24 36/48/24
f 20/50/25 22/53/25 37/51/25
f 24/52/26 38/55/26 37/51/26
f 26/54/27 39/56/27 38/55/27
f 2/35/28 28/34/28 39/56/28
f 42/36/29 40/33/29 41/35/29
f 41/35/29 52/54/29 51/52/29
f 51/52/29 50/53/29 49/50/29
f 49/50/29 48/46/29 47/25/29
f 47/25/29 46/24/29 45/42/29
f 45/42/29 44/43/29 43/38/29
f 43/38/29 42/36/29 41/35/29
f 41/35/29 51/52/29 49/50/29
f 49/50/29 47/25/29 45/42/29
f 45/42/29 43/38/29 41/35/29
f 16/25/30 47/25/30 48/46/30
f 2/35/31 41/35/31 40/33/31
f 18/46/32 48/46/32 49/50/32
f 4/33/33 40/33/33 42/36/33
f 20/50/34 49/50/34 50/53/34
f 6/36/35 42/36/35 43/38/35
f 22/53/36 50/53/36 51/52/36
f 8/38/37 43/38/37 44/43/37
f 24/52/38 51/52/38 52/54/38
f 10/43/39 44/43/39 45/42/39
f 26/54/40 52/54/40 41/35/40
f 12/42/41 45/42/41 46/24/41
