# Blender 5.0.1
# www.blender.org
mtllib quit.mtl
o Cylinder
v 0.551971 0.000000 -0.344428
v 0.641434 0.000000 0.938440
v 0.275986 -0.478021 -0.344428
v 0.320717 -0.555498 0.938440
v -0.275986 -0.478021 -0.344428
v -0.320717 -0.555498 0.938440
v -0.551971 0.000000 -0.344428
v -0.641434 0.000000 0.938440
v -0.275986 0.478021 -0.344428
v -0.320717 0.555498 0.938440
v 0.275986 0.478021 -0.344428
v 0.320717 0.555498 0.938440
v 0.641434 0.000000 -0.344428
v 0.320717 -0.555498 -0.344428
v -0.320717 -0.555498 -0.344428
v -0.641434 0.000000 -0.344428
v -0.320717 0.555498 -0.344428
v 0.320717 0.555498 -0.344428
v 0.848133 0.000000 -1.096118
v 0.424067 -0.734505 -1.096118
v -0.424067 -0.734505 -1.096118
v -0.848133 0.000000 -1.096118
v -0.424067 0.734505 -1.096118
v 0.424067 0.734505 -1.096118
v 0.729841 0.000000 -1.096118
v 0.364921 -0.632061 -1.096118
v -0.364921 -0.632061 -1.096118
v -0.729841 0.000000 -1.096118
v -0.364921 0.632061 -1.096118
v 0.364921 0.632061 -1.096118
vn 0.8660 -0.5000 -0.0000
vn -0.0000 -1.0000 -0.0000
vn -0.8660 -0.5000 -0.0000
vn -0.8660 0.5000 -0.0000
vn -0.0000 -0.0000 1.0000
vn -0.0000 1.0000 -0.0000
vn 0.8660 0.5000 -0.0000
vn -0.0000 -0.0000 -1.0000
vn -0.8425 -0.4864 0.2317
vn 0.8425 -0.4864 0.2317
vn -0.8484 0.4898 -0.2008
vn -0.0000 -0.9796 -0.2008
vn -0.0000 0.9728 0.2317
vn 0.8484 0.4898 -0.2008
vt 1.000000 1.000000
vt 0.833333 0.500000
vt 1.000000 0.500000
vt 0.833333 1.000000
vt 0.666667 0.500000
vt 0.666667 1.000000
vt 0.500000 0.500000
vt 0.500000 1.000000
vt 0.333333 0.500000
vt 0.250000 0.490000
vt 0.042154 0.130000
vt 0.457846 0.130000
vt 0.333333 1.000000
vt 0.166667 0.500000
vt 0.166667 1.000000
vt -0.000000 0.500000
vt 0.928857 0.353263
vt 0.750000 0.043474
vt 0.571143 0.353263
vt 0.957846 0.130000
vt 0.928857 0.146737
vt 0.542154 0.130000
vt 0.571143 0.146737
vt 0.750000 0.010000
vt 0.750000 0.456526
vt 0.542154 0.370000
vt 0.750000 0.490000
vt 0.957846 0.370000
vt 0.457846 0.370000
vt 0.042154 0.370000
vt 0.250000 0.010000
vt -0.000000 1.000000
s 0
f 2/1/1 14/2/1 13/3/1
f 4/4/2 15/5/2 14/2/2
f 6/6/3 16/7/3 15/5/3
f 8/8/4 17/9/4 16/7/4
f 2/10/5 10/11/5 6/12/5
f 10/13/6 18/14/6 17/9/6
f 12/15/7 13/16/7 18/14/7
f 3/17/8 7/18/8 11/19/8
f 16/7/9 21/5/9 15/5/9
f 3/17/8 15/20/8 5/21/8
f 14/2/10 19/3/10 13/3/10
f 7/18/8 17/22/8 9/23/8
f 16/24/6 28/18/6 22/24/6
f 1/25/8 18/26/8 13/27/8
f 25/25/8 20/28/8 26/17/8
f 27/21/8 22/24/8 28/18/8
f 29/23/8 24/26/8 30/19/8
f 14/28/3 26/17/3 20/28/3
f 17/22/3 29/23/3 9/23/3
f 1/25/11 26/17/11 3/17/11
f 13/27/6 25/25/6 1/25/6
f 9/23/12 30/19/12 11/19/12
f 18/26/1 30/19/1 24/26/1
f 15/20/1 27/21/1 5/21/1
f 18/14/13 23/9/13 17/9/13
f 5/21/14 28/18/14 7/18/14
f 2/1/1 4/4/1 14/2/1
f 4/4/2 6/6/2 15/5/2
f 6/6/3 8/8/3 16/7/3
f 8/8/4 10/13/4 17/9/4
f 6/12/5 4/29/5 2/10/5
f 2/10/5 12/30/5 10/11/5
f 10/11/5 8/31/5 6/12/5
f 10/13/6 12/15/6 18/14/6
f 12/15/7 2/32/7 13/16/7
f 11/19/8 1/25/8 3/17/8
f 3/17/8 5/21/8 7/18/8
f 7/18/8 9/23/8 11/19/8
f 16/7/9 22/7/9 21/5/9
f 3/17/8 14/28/8 15/20/8
f 14/2/10 20/2/10 19/3/10
f 7/18/8 16/24/8 17/22/8
f 16/24/6 7/18/6 28/18/6
f 1/25/8 11/19/8 18/26/8
f 25/25/8 19/27/8 20/28/8
f 27/21/8 21/20/8 22/24/8
f 29/23/8 23/22/8 24/26/8
f 14/28/3 3/17/3 26/17/3
f 17/22/3 23/22/3 29/23/3
f 1/25/11 25/25/11 26/17/11
f 13/27/6 19/27/6 25/25/6
f 9/23/12 29/23/12 30/19/12
f 18/26/1 11/19/1 30/19/1
f 15/20/1 21/20/1 27/21/1
f 18/14/13 24/14/13 23/9/13
f 5/21/14 27/21/14 28/18/14
