# Blender 3.4.1
# www.blender.org
mtllib ScaleWidget.mtl
o Cube
v 0.255381 -0.255381 1.198702
v 0.255381 -0.255381 -1.995381
v -0.255381 -0.255381 1.198702
v -0.255381 -0.255381 -1.995381
v 0.255381 0.255381 1.198702
v 0.255381 0.255381 -1.995381
v -0.255381 0.255381 1.198702
v -0.255381 0.255381 -1.995381
v -0.888595 -0.888595 1.198702
v -0.888595 0.888595 1.198702
v 0.888595 -0.888595 1.198702
v 0.888595 0.888595 1.198702
v -0.672238 -0.672238 1.468505
v -0.672238 0.672238 1.468505
v 0.672238 -0.672238 1.468505
v 0.672238 0.672238 1.468505
v 0.344531 0.344531 3.020588
v 0.344531 -0.344531 3.020588
v -0.344531 0.344531 3.020588
v -0.344531 -0.344531 3.020588
v -0.672238 -0.672238 1.601964
v -0.672238 0.672238 1.601964
v 0.672238 -0.672238 1.601964
v 0.672238 0.672238 1.601964
v -0.906906 -0.906906 1.823898
v -0.906906 0.906906 1.823898
v 0.906906 -0.906906 1.823898
v 0.906906 0.906906 1.823898
v -0.906906 -0.906906 2.991614
v -0.906906 0.906906 2.991614
v 0.906906 -0.906906 2.991614
v 0.906906 0.906906 2.991614
vn -1.0000 -0.0000 -0.0000
vn -0.0000 1.0000 -0.0000
vn -0.0000 -0.0000 -1.0000
vn -0.0000 -1.0000 -0.0000
vn 1.0000 -0.0000 -0.0000
vn -0.7801 -0.0000 0.6256
vn -0.0000 0.7801 0.6256
vn -0.0000 -0.7801 0.6256
vn 0.7801 -0.0000 0.6256
vn 0.0515 -0.0000 0.9987
vn 0.6871 -0.0000 -0.7265
vn -0.6871 -0.0000 -0.7265
vn -0.0000 0.6871 -0.7265
vn -0.0000 -0.6871 -0.7265
vn -0.0000 -0.0000 1.0000
vn -0.0515 -0.0000 0.9987
vn -0.0000 -0.0515 0.9987
vn -0.0000 0.0515 0.9987
vt 0.514701 1.000000
vt 0.435925 0.093324
vt 0.075277 0.534647
vt 0.514701 0.529249
vt 0.858902 0.732677
vt 0.439424 1.000000
vt 0.435925 0.168602
vt 0.858902 0.261926
vt 0.075277 0.609924
vt 0.439424 0.529249
vt 0.858902 0.732677
vt 0.589978 1.000000
vt 0.360648 0.093324
vt 0.000000 0.534647
vt 0.589978 0.529249
vt 0.858902 0.261926
vt 0.783625 0.732677
vt 0.934179 0.732677
vt 0.360648 0.168602
vt 0.934179 0.261926
vt 0.783625 0.261926
vt 0.000000 0.609924
vt 0.588683 0.000000
vt 0.648117 0.261926
vt 0.529249 0.261926
vt 0.588683 0.261926
vt 0.529249 0.000000
vt 0.267323 0.261926
vt 0.648117 0.000000
vt 0.707550 0.261926
vt 0.529249 0.000000
vt 0.529249 0.261926
vt 0.707550 0.000000
vt 0.267323 0.000000
vt 0.687881 0.230039
vt 0.628447 0.031887
vt 0.628447 0.230039
vt 0.569014 0.031887
vt 0.747314 0.230039
vt 0.687881 0.031887
vt 0.569014 0.230039
vt 0.747314 0.031887
vt 0.184439 0.350207
vt 0.082884 0.350207
vt 0.184439 0.451763
vt 0.082884 0.451763
vt 0.648116 0.031887
vt 0.707550 0.230039
vt 0.232737 0.232738
vt 0.648116 0.230039
vt 0.588683 0.031887
vt 0.034586 0.232737
vt 0.707550 0.031887
vt 0.766984 0.230039
vt 0.232738 0.034586
vt 0.588683 0.230039
vt 0.766984 0.031887
vt 0.034586 0.034586
vt 0.783625 0.261926
vt 0.267323 0.267323
vt 0.439424 0.796573
vt 0.000000 0.267323
vt 0.439424 0.529249
vt 0.611524 0.261926
vt 0.267323 0.000000
vt 0.783625 0.529249
vt 0.439424 0.261926
vt 0.000000 0.000000
vt 0.611524 0.529249
vt 0.611524 0.261926
vt 0.267323 0.796573
vt 0.000000 0.534647
vt 0.267323 0.529249
vt 0.267323 0.534647
vt 0.611524 0.529249
vt 0.439424 0.261926
vt 0.000000 0.267323
vt 0.267323 0.261926
vt 0.439424 0.529249
vt 0.267323 0.267323
s 0
usemtl Material
f 3/5/1 8/21/1 4/8/1
f 7/18/2 6/16/2 8/20/2
f 2/3/3 8/22/3 6/14/3
f 1/1/4 4/10/4 2/4/4
f 5/12/5 2/4/5 6/15/5
f 13/36/1 22/50/1 14/37/1
f 3/7/3 10/28/3 7/19/3
f 5/13/3 11/31/3 1/2/3
f 14/38/2 24/56/2 16/41/2
f 10/26/6 13/36/6 14/37/6
f 12/32/7 14/38/7 16/41/7
f 9/24/8 15/40/8 13/35/8
f 11/30/9 16/42/9 15/39/9
f 15/40/4 21/48/4 13/35/4
f 7/19/3 12/34/3 5/13/3
f 1/2/3 9/25/3 3/7/3
f 16/42/5 23/54/5 15/39/5
f 18/44/10 32/80/10 17/43/10
f 24/58/11 27/65/11 23/55/11
f 21/49/12 26/62/12 22/52/12
f 22/52/13 28/68/13 24/58/13
f 23/55/14 25/60/14 21/49/14
f 26/63/2 32/78/2 28/67/2
f 27/66/4 29/70/4 25/59/4
f 28/69/5 31/76/5 27/64/5
f 25/61/1 30/73/1 26/63/1
f 17/43/15 20/46/15 18/44/15
f 19/45/16 29/72/16 20/46/16
f 20/46/17 31/77/17 18/44/17
f 17/43/18 30/74/18 19/45/18
f 3/5/1 7/17/1 8/21/1
f 7/18/2 5/11/2 6/16/2
f 2/3/3 4/9/3 8/22/3
f 1/1/4 3/6/4 4/10/4
f 5/12/5 1/1/5 2/4/5
f 13/36/1 21/47/1 22/50/1
f 3/7/3 9/25/3 10/28/3
f 5/13/3 12/34/3 11/31/3
f 14/38/2 22/51/2 24/56/2
f 10/26/6 9/23/6 13/36/6
f 12/32/7 10/27/7 14/38/7
f 9/24/8 11/29/8 15/40/8
f 11/30/9 12/33/9 16/42/9
f 15/40/4 23/53/4 21/48/4
f 7/19/3 10/28/3 12/34/3
f 1/2/3 11/31/3 9/25/3
f 16/42/5 24/57/5 23/54/5
f 18/44/10 31/77/10 32/80/10
f 24/58/11 28/68/11 27/65/11
f 21/49/12 25/60/12 26/62/12
f 22/52/13 26/62/13 28/68/13
f 23/55/14 27/65/14 25/60/14
f 26/63/2 30/73/2 32/78/2
f 27/66/4 31/75/4 29/70/4
f 28/69/5 32/79/5 31/76/5
f 25/61/1 29/71/1 30/73/1
f 17/43/15 19/45/15 20/46/15
f 19/45/16 30/74/16 29/72/16
f 20/46/17 29/72/17 31/77/17
f 17/43/18 32/80/18 30/74/18
