# Blender 4.1.1
# www.blender.org
mtllib SpusShip.mtl
o Cube
v -6.789836 0.764827 -1.205380
v -6.789836 -0.764827 -1.205380
v -6.789836 0.764827 0.324274
v -6.789836 -0.764827 0.324274
v -6.387134 0.764827 0.324274
v -6.387134 0.764827 -1.205380
v -6.387134 -0.764827 -1.205380
v -6.387134 -0.764827 0.324274
v -5.962757 1.173985 0.309055
v -5.962757 1.173985 -1.190162
v -5.962757 -1.173985 -1.190162
v -5.962757 -1.173985 0.309055
v -4.699413 1.173985 0.309055
v -4.699413 1.173985 -1.190162
v -4.699413 -1.173985 -1.190162
v -4.699413 -1.173985 0.309055
v -6.387134 1.173985 0.733432
v -6.387134 1.173985 -1.614538
v -6.387134 -1.173985 0.733432
v -6.387134 -1.173985 -1.614538
v -4.275037 1.173985 0.733432
v -4.275037 1.173985 -1.614538
v -4.275037 -1.173985 0.733432
v -4.275037 -1.173985 -1.614538
v -5.962757 2.942073 0.309055
v -5.962757 2.942073 -1.190162
v -5.962757 -2.942073 0.309055
v -5.962757 -2.942073 -1.190162
v -4.699413 2.942073 0.309055
v -4.699413 2.942073 -1.190162
v -4.699413 -2.942073 0.309055
v -4.699413 -2.942073 -1.190162
v -6.488491 4.363518 -0.227002
v -6.488491 4.363518 -0.654104
v -6.488491 -4.363518 -0.227002
v -6.488491 -4.363518 -0.654104
v -3.814026 3.671927 0.464588
v -3.814026 3.671927 -1.345694
v -3.814026 -3.671927 0.464588
v -3.814026 -3.671927 -1.345694
v -6.848145 5.500000 1.190873
v -6.115784 4.767640 -2.009127
v -6.848145 -5.500000 1.190873
v -6.115784 -4.767640 -2.009127
v -3.814026 2.942073 1.190873
v -4.546387 3.674434 -2.009127
v -3.814026 -2.942073 1.190873
v -4.546387 -3.674434 -2.009127
v -5.235471 5.140347 -0.227002
v -5.235471 5.140347 -0.654104
v -5.235471 -5.140347 -0.227002
v -5.235471 -5.140347 -0.654104
v 5.855806 3.671927 0.464588
v 5.855806 3.671927 -1.345694
v 5.855806 -3.671927 0.464588
v 5.855806 -3.671927 -1.345694
v -4.275037 1.638890 -2.079443
v -4.275037 -1.638890 -2.079443
v 5.855840 1.638890 -2.079443
v 5.855840 -1.638890 -2.079443
v 5.855806 3.671927 0.464588
v 5.855806 3.671927 -1.345694
v 5.855806 -3.671927 0.464588
v 5.855806 -3.671927 -1.345694
v 5.855806 4.770146 0.464588
v 5.855806 4.770146 -1.345694
v 5.855806 -4.770146 0.464588
v 5.855806 -4.770146 -1.345694
v 6.403589 3.284041 0.852474
v 6.403589 3.284041 -1.733580
v 6.403589 -3.284041 0.852474
v 6.403589 -3.284041 -1.733580
v 6.403589 5.158032 0.852474
v 6.403589 5.158032 -1.733580
v 6.403589 -5.158032 0.852474
v 6.403589 -5.158032 -1.733580
v 9.316414 2.754662 1.381853
v 9.316414 2.754662 -2.262960
v 9.316414 -2.754662 1.381853
v 9.316414 -2.754662 -2.262960
v 9.316414 5.687411 1.381853
v 9.316414 5.687411 -2.262960
v 9.316414 -5.687411 1.381853
v 9.316414 -5.687411 -2.262960
v 8.645159 -2.760022 -2.257599
v 8.645159 -5.682051 -2.257599
v 8.645159 -5.682051 1.376493
v 8.645159 -2.760022 1.376493
v 8.645159 5.682051 -2.257599
v 8.645159 2.760022 -2.257599
v 8.645159 2.760022 1.376493
v 8.645159 5.682051 1.376493
v 5.855840 1.638890 2.989945
v 5.855840 -1.638890 2.989945
v -4.275037 -1.638890 2.989945
v -4.275037 1.638890 2.989945
v -6.848145 2.942073 1.190873
v -6.115784 3.674434 -2.009127
v -6.848145 -2.942073 1.190873
v -6.115784 -3.674434 -2.009127
v -3.814026 5.500000 1.190873
v -4.546387 4.767640 -2.009127
v -3.814026 -5.500000 1.190873
v -4.546387 -4.767640 -2.009127
v -6.848145 5.500000 0.337427
v -6.848145 5.500000 -1.218533
v -6.848145 -5.500000 -1.218533
v -6.848145 -5.500000 0.337427
v -6.848145 3.799088 0.337427
v -6.848145 3.799088 -1.218533
v -6.848145 -3.799088 0.337427
v -6.848145 -3.799088 -1.218533
v -4.671041 5.500000 0.337427
v -4.671041 5.500000 -1.218533
v -4.671041 -5.500000 0.337427
v -4.671041 -5.500000 -1.218533
v -6.593831 5.245687 -0.227002
v -6.593831 5.245687 -0.654104
v -6.593831 -5.245687 -0.654104
v -6.593831 -5.245687 -0.227002
v -3.814026 4.770146 0.464588
v -3.814026 4.770146 -1.345694
v -3.814026 -4.770146 0.464588
v -3.814026 -4.770146 -1.345694
v 5.855806 4.770146 0.464588
v 5.855806 4.770146 -1.345694
v 5.855806 -4.770146 0.464588
v 5.855806 -4.770146 -1.345694
v -3.814026 2.942073 -2.009127
v -6.848145 2.942073 -2.009127
v -6.848145 -2.942073 -2.009127
v -3.814026 -2.942073 -2.009127
v -3.814026 5.500000 -2.009127
v -6.848145 5.500000 -2.009127
v -6.848145 -5.500000 -2.009127
v -3.814026 -5.500000 -2.009127
v -4.546387 3.674434 -1.558645
v -6.115784 3.674434 -1.558645
v -6.115784 -3.674434 -1.558645
v -4.546387 -3.674434 -1.558645
v -4.546387 4.767640 -1.558645
v -6.115784 4.767640 -1.558645
v -6.115784 -4.767640 -1.558645
v -4.546387 -4.767640 -1.558645
v -8.015035 1.195243 -0.034326
v -9.771700 1.668643 0.480932
v -9.771700 1.668643 -1.299187
v -8.015035 1.195243 -0.783929
v -9.771700 -1.668643 -1.299187
v -8.015035 -1.195243 -0.783929
v -8.015035 -1.195243 -0.034326
v -9.771700 -1.668643 0.480932
v -6.789836 1.668643 1.190873
v -9.771700 1.668643 1.190873
v -9.771700 1.668643 -2.009127
v -6.789836 1.668643 -2.009127
v -9.771700 -1.668643 -2.009127
v -6.789836 -1.668643 -2.009127
v -6.789836 -1.668643 1.190873
v -9.771700 -1.668643 1.190873
v -7.499776 1.668643 0.480932
v -9.436955 1.333899 -0.034326
v -9.436955 1.333899 -0.783928
v -7.499776 1.668643 -1.299187
v -9.436955 -1.333899 -0.783928
v -7.499776 -1.668643 -1.299187
v -7.499776 -1.668643 0.480932
v -9.436955 -1.333899 -0.034326
vn -0.0000 -0.0000 -1.0000
vn 1.0000 -0.0000 -0.0000
vn -1.0000 -0.0000 -0.0000
vn -0.0000 -0.0000 1.0000
vn -0.0000 1.0000 -0.0000
vn -0.0000 -1.0000 -0.0000
vn 0.0773 -0.9970 -0.0000
vn 0.0773 0.9970 -0.0000
vn -0.9929 -0.1186 -0.0000
vn -0.9929 0.1186 -0.0000
vn -0.5779 -0.0000 -0.8161
vn -0.5779 -0.0000 0.8161
vn -0.0080 -0.0000 -1.0000
vn -0.0080 -1.0000 -0.0000
vn -0.0080 1.0000 -0.0000
vn -0.0080 -0.0000 1.0000
vn -0.5779 -0.8161 -0.0000
vn -0.5779 0.8161 -0.0000
vn -0.2276 -0.0000 0.9737
vn -0.2276 0.9737 -0.0000
vn -0.2276 -0.9737 -0.0000
vn -0.2276 -0.0000 -0.9737
vn -0.8433 0.5374 -0.0000
vn -0.8433 -0.5374 -0.0000
vn -0.5374 0.8433 -0.0000
vn -0.5374 -0.8433 -0.0000
vn -0.0000 0.8433 -0.5374
vn 0.0714 0.9211 0.3828
vn -0.0000 -0.8433 0.5374
vn 0.0714 -0.9211 -0.3828
vn -0.9238 -0.1103 -0.3665
vn -0.8433 -0.0000 0.5374
vn -0.8433 -0.0000 -0.5374
vn -0.9238 0.1103 0.3665
vn 0.0971 0.9953 -0.0000
vn 0.0971 -0.9953 -0.0000
vn -0.0000 0.7364 -0.6766
vn 0.0838 0.8596 0.5040
vn -0.0000 -0.7364 0.6766
vn 0.0838 -0.8596 -0.5040
vn -0.6766 0.7364 -0.0000
vn -0.6766 -0.7364 -0.0000
vn -0.8386 -0.0000 -0.5448
vn -0.8386 -0.0000 0.5448
vn 0.0714 0.9211 -0.3828
vn -0.0000 0.8433 0.5374
vn 0.0714 -0.9211 0.3828
vn -0.0000 -0.8433 -0.5374
vn -0.9238 -0.1103 0.3665
vn -0.9238 0.1103 -0.3665
vn 0.0838 0.8596 -0.5040
vn -0.0000 0.7364 0.6766
vn 0.0838 -0.8596 0.5040
vn -0.0000 -0.7364 -0.6766
vt 0.611266 0.645844
vt 0.625827 0.701168
vt 0.611266 0.701168
vt 0.323764 0.714129
vt 0.352834 0.802141
vt 0.323764 0.769453
vt 0.268440 0.714129
vt 0.352834 0.681440
vt 0.740126 0.108594
vt 0.767237 0.012107
vt 0.767237 0.108594
vt 0.625822 0.756491
vt 0.611266 0.701168
vt 0.625822 0.701168
vt 0.591312 0.664188
vt 0.605871 0.719512
vt 0.591312 0.719512
vt 0.750970 0.754527
vt 0.736410 0.699203
vt 0.750970 0.699203
vt 0.338832 0.447882
vt 0.355647 0.549617
vt 0.338832 0.532802
vt 0.792976 0.895535
vt 0.722854 0.910333
vt 0.737652 0.895535
vt 0.722854 0.825413
vt 0.737652 0.840212
vt 0.577756 0.929064
vt 0.623437 0.865116
vt 0.623437 0.929064
vt 0.970334 0.184648
vt 0.924668 0.248595
vt 0.924668 0.184648
vt 0.695814 0.470353
vt 0.772185 0.555273
vt 0.695814 0.555273
vt 0.995680 0.084920
vt 0.919334 0.000000
vt 0.995680 0.000000
vt 0.807774 0.825413
vt 0.792976 0.840212
vt 0.807774 0.910333
vt 0.711156 0.624845
vt 0.695814 0.555273
vt 0.711156 0.570622
vt 0.783872 0.925682
vt 0.799214 0.995253
vt 0.783872 0.979905
vt 0.756831 0.570622
vt 0.772174 0.640193
vt 0.756831 0.624845
vt 0.738197 0.979905
vt 0.722854 0.910333
vt 0.738197 0.925682
vt 0.772174 0.555273
vt 0.695814 0.640193
vt 0.722854 0.995253
vt 0.799214 0.910333
vt 0.337850 0.868869
vt 0.288845 0.853422
vt 0.337850 0.853422
vt 0.846983 0.384066
vt 0.924668 0.352173
vt 0.892658 0.384066
vt 0.420916 0.975443
vt 0.475139 0.911496
vt 0.475139 0.975443
vt 0.977002 0.531855
vt 0.922779 0.595803
vt 0.922779 0.531855
vt 0.968460 0.595803
vt 0.922779 0.659750
vt 0.924668 0.184648
vt 0.970334 0.120701
vt 0.970334 0.184648
vt 0.977001 0.467908
vt 0.922779 0.531855
vt 0.922779 0.467908
vt 0.366693 0.975443
vt 0.420916 0.911496
vt 0.846983 0.438288
vt 0.924668 0.467908
vt 0.814973 0.467908
vt 0.823915 0.171982
vt 0.872921 0.187429
vt 0.823915 0.187429
vt 0.892658 0.322553
vt 0.814973 0.352172
vt 0.846983 0.322553
vt 0.892658 0.268330
vt 0.814973 0.236437
vt 0.924668 0.236437
vt 0.907486 0.809053
vt 1.000000 0.918727
vt 0.907486 0.918727
vt 0.866383 0.750661
vt 0.898289 0.766108
vt 0.866383 0.766108
vt 1.000000 0.809053
vt 0.907486 0.699380
vt 1.000000 0.699380
vt 0.627558 0.532365
vt 0.611266 0.475625
vt 0.627558 0.475625
vt 0.735533 0.120701
vt 0.695814 0.470353
vt 0.695814 0.120701
vt 0.671444 0.892141
vt 0.639538 0.876694
vt 0.671444 0.876694
vt 0.767262 0.778280
vt 0.750970 0.738742
vt 0.767262 0.738742
vt 0.924668 0.352172
vt 0.814973 0.352173
vt 0.846983 0.268330
vt 0.892658 0.438288
vt 0.066117 0.884706
vt 0.092514 0.974174
vt 0.066117 0.950179
vt 0.841370 0.841383
vt 0.814973 0.930851
vt 0.814973 0.815116
vt 0.026397 0.884706
vt 0.000000 0.974174
vt 0.000000 0.858438
vt 0.881090 0.841383
vt 0.907486 0.930851
vt 0.881090 0.906857
vt 0.092514 0.858438
vt 0.026397 0.950179
vt 0.907486 0.815116
vt 0.841370 0.906857
vt 0.183347 0.366270
vt 0.630340 0.349602
vt 0.695814 0.000000
vt 0.695814 0.349602
vt 0.775253 0.470234
vt 0.814973 0.120701
vt 0.814973 0.470234
vt 0.775253 0.819768
vt 0.814973 0.470234
vt 0.814973 0.819768
vt 0.695814 0.349602
vt 0.630340 0.699203
vt 0.630340 0.349602
vt 0.775253 0.120701
vt 0.735533 0.470353
vt 0.253912 0.447882
vt 0.355647 0.366270
vt 0.366693 0.475625
vt 0.485242 0.658972
vt 0.366693 0.658972
vt -0.000000 0.366270
vt 0.183347 0.000000
vt 0.183347 0.366270
vt 0.366693 0.000000
vt 0.183347 -0.000000
vt 0.237098 0.549617
vt 0.237098 0.366270
vt 0.253912 0.532802
vt 0.485242 0.607448
vt 0.591312 0.739272
vt 0.485242 0.739272
vt 0.033175 0.732593
vt 0.086924 0.752702
vt 0.019146 0.752702
vt 0.663516 0.825413
vt 0.717264 0.805139
vt 0.703235 0.825413
vt 0.558137 0.739272
vt 0.504389 0.759380
vt 0.518417 0.739272
vt 0.366693 0.790795
vt 0.472763 0.658972
vt 0.472763 0.790795
vt 0.191444 0.858679
vt 0.137695 0.838405
vt 0.205473 0.838405
vt 0.591118 0.840840
vt 0.485242 0.865116
vt 0.485436 0.840840
vt 0.105876 0.834162
vt 0.000000 0.858438
vt 0.000194 0.834162
vt 0.498323 0.451351
vt 0.366693 0.475625
vt 0.366887 0.451351
vt 0.338847 0.549811
vt 0.363121 0.681440
vt 0.338847 0.681246
vt 0.630534 0.723473
vt 0.736410 0.699203
vt 0.736216 0.723473
vt 0.118743 0.756739
vt 0.224619 0.732469
vt 0.224425 0.756739
vt 0.630147 0.451351
vt 0.498517 0.475625
vt 0.498711 0.451351
vt 0.509516 0.607255
vt 0.485242 0.475625
vt 0.509516 0.475819
vt 0.611266 0.574273
vt 0.591077 0.494771
vt 0.611266 0.508800
vt 0.237098 0.582792
vt 0.257287 0.662294
vt 0.237098 0.648265
vt 0.597165 0.349602
vt 0.517663 0.369790
vt 0.531692 0.349602
vt 0.465342 0.349602
vt 0.385840 0.369790
vt 0.399869 0.349602
vt 0.257287 0.568763
vt 0.479371 0.369790
vt 0.591077 0.588302
vt 0.611194 0.369790
vt 0.572166 0.759380
vt 0.000000 0.366270
vt 0.118549 0.732593
vt 0.000000 0.732593
vt 0.237098 0.732469
vt 0.118549 0.366270
vt 0.237098 0.366270
vt 0.845969 0.730247
vt 0.814973 0.815115
vt 0.814973 0.699380
vt 0.691858 0.856280
vt 0.722854 0.941149
vt 0.691858 0.912555
vt 0.893683 0.151568
vt 0.924668 0.236437
vt 0.893683 0.207843
vt 0.268082 0.833008
vt 0.237098 0.917877
vt 0.237098 0.802141
vt 0.814973 0.120701
vt 0.924668 0.120701
vt 0.814973 0.236437
vt 0.814973 0.207843
vt 0.268082 0.889283
vt 0.346793 0.917877
vt 0.346793 0.802141
vt 0.346793 0.833008
vt 0.907486 0.730247
vt 0.845969 0.786522
vt 0.630340 0.825413
vt 0.722854 0.825413
vt 0.630340 0.941149
vt 0.630340 0.912555
vt 0.872921 0.171982
vt 0.288845 0.868869
vt 0.814973 0.151568
vt 0.346793 0.889283
vt 0.898289 0.750661
vt 0.907486 0.786522
vt 0.630340 0.856280
vt 0.639538 0.892141
vt 0.145036 0.941908
vt 0.118549 0.858679
vt 0.145036 0.885161
vt 0.551268 0.891598
vt 0.577756 0.974827
vt 0.551268 0.948346
vt 0.184575 0.885161
vt 0.211062 0.968390
vt 0.184575 0.941908
vt 0.511730 0.948346
vt 0.511730 0.891598
vt 0.118549 0.968390
vt 0.211062 0.858679
vt 0.485242 0.974827
vt 0.577756 0.865116
vt 0.695814 0.640193
vt 0.735352 0.696941
vt 0.695814 0.696941
vt 0.774890 0.696941
vt 0.735352 0.640193
vt 0.774890 0.640193
vt 0.627558 0.645844
vt 0.611266 0.589104
vt 0.627558 0.589104
vt 0.627558 0.796030
vt 0.611265 0.756491
vt 0.627558 0.756491
vt 0.607605 0.759050
vt 0.591312 0.719512
vt 0.607605 0.719512
vt 0.607605 0.664188
vt 0.591312 0.607448
vt 0.607605 0.607448
vt 0.627558 0.589104
vt 0.611266 0.532365
vt 0.750970 0.699203
vt 0.767262 0.699203
vt 0.878014 0.539332
vt 0.826743 0.512221
vt 0.878014 0.512221
vt 0.811549 0.000000
vt 0.919334 0.120701
vt 0.811549 0.120701
vt 0.859738 0.627956
vt 0.911008 0.655067
vt 0.859738 0.655067
vt 0.474515 0.911496
vt 0.366693 0.790795
vt 0.474515 0.790795
vt 0.268440 0.769453
vt 0.237098 0.681440
vt 0.237098 0.802141
vt 0.897112 0.493585
vt 0.922779 0.467908
vt 0.897112 0.557967
vt 0.814973 0.583644
vt 0.814973 0.557967
vt 0.840640 0.673703
vt 0.922779 0.699380
vt 0.814973 0.699380
vt 0.840640 0.609321
vt 0.922779 0.583644
vt 0.922779 0.609321
vt 0.922779 0.583644
vt 0.814973 0.583644
vt 0.721490 0.120701
vt 0.695814 0.000000
vt 0.721490 0.000000
vt 0.785873 0.000000
vt 0.811549 0.120701
vt 0.785873 0.120701
vt 0.814973 0.493585
vt 0.826743 0.539332
vt 0.922779 0.673703
vt 0.911008 0.627956
vt 0.740126 0.012107
vt 0.597165 -0.000000
vt 0.531692 0.000000
vt 0.399869 -0.000000
vt 0.465342 0.000000
vt 0.625827 0.645844
vt 0.611266 0.756491
vt 0.605871 0.664188
vt 0.736410 0.754527
vt 0.970334 0.248595
vt 0.772185 0.470353
vt 0.919334 0.084920
vt 0.977002 0.595803
vt 0.968460 0.659750
vt 0.924668 0.120701
vt 0.977001 0.531855
vt 0.366693 0.911496
vt 0.907486 0.809053
vt 0.750970 0.778280
vt 0.630340 -0.000000
vt 0.775253 0.120701
vt 0.775253 0.470234
vt 0.695814 0.699203
vt 0.775253 0.470353
vt 0.485242 0.475625
vt 0.000000 0.000000
vt 0.366693 0.366270
vt 0.591312 0.607448
vt 0.072895 0.732593
vt 0.649487 0.805139
vt 0.366693 0.658972
vt 0.151724 0.858679
vt 0.591312 0.865116
vt 0.106070 0.858438
vt 0.498517 0.475625
vt 0.363121 0.549617
vt 0.630340 0.699203
vt 0.118549 0.732469
vt 0.630340 0.475625
vt 0.485242 0.607448
vt 0.118549 0.366270
vt 0.611266 0.645844
vt 0.611265 0.796030
vt 0.591312 0.759050
vt 0.591312 0.664188
vt 0.611265 0.589104
vt 0.919334 0.000000
vt 0.366693 0.911496
vt 0.695814 0.120701
vt 0.811549 0.000000
s 0
f 1/1/1 7/2/1 2/3/1
f 2/4/2 156/5/2 1/6/2
f 4/7/2 158/8/2 2/4/2
f 168/9/3 163/10/3 165/11/3
f 4/12/4 5/13/4 3/14/4
f 3/15/5 6/16/5 1/17/5
f 2/18/6 8/19/6 4/20/6
f 21/21/3 57/22/3 22/23/3
f 6/24/3 20/25/3 7/26/3
f 7/26/3 19/27/3 8/28/3
f 10/29/1 30/30/1 14/31/1
f 12/32/4 31/33/4 16/34/4
f 18/35/1 24/36/1 20/37/1
f 19/38/4 21/39/4 17/40/4
f 8/28/3 17/41/3 5/42/3
f 5/42/3 18/43/3 6/24/3
f 10/44/5 17/45/5 9/46/5
f 12/47/6 20/48/6 11/49/6
f 13/50/5 22/51/5 14/52/5
f 15/53/6 23/54/6 16/55/6
f 9/46/5 21/56/5 13/50/5
f 14/52/5 18/57/5 10/44/5
f 11/49/6 24/58/6 15/53/6
f 16/55/6 19/59/6 12/47/6
f 119/60/7 51/61/7 120/62/7
f 27/63/5 47/64/5 31/65/5
f 16/66/2 32/67/2 15/68/2
f 11/69/3 27/70/3 12/71/3
f 15/72/1 28/73/1 11/70/1
f 13/74/4 25/75/4 9/76/4
f 14/77/2 29/78/2 13/79/2
f 9/80/3 26/81/3 10/66/3
f 28/82/5 132/83/5 131/84/5
f 117/85/8 50/86/8 118/87/8
f 26/88/6 129/89/6 30/90/6
f 25/91/6 45/92/6 97/93/6
f 45/94/4 41/95/4 97/96/4
f 33/97/9 118/98/9 34/99/9
f 99/100/4 103/101/4 47/102/4
f 44/103/5 144/104/5 104/105/5
f 122/106/1 54/107/1 38/108/1
f 36/109/10 120/110/10 35/111/10
f 42/112/2 138/113/2 98/114/2
f 25/91/6 130/115/6 26/88/6
f 27/63/5 131/84/5 99/116/5
f 29/117/6 129/89/6 45/92/6
f 31/65/5 132/83/5 32/118/5
f 37/119/2 129/120/2 38/121/2
f 39/122/2 132/123/2 47/124/2
f 121/125/2 133/126/2 101/127/2
f 123/128/2 136/129/2 124/130/2
f 37/119/2 101/127/2 45/131/2
f 122/132/2 129/120/2 133/126/2
f 39/122/2 103/133/2 123/128/2
f 124/130/2 132/123/2 40/134/2
f 128/135/4 64/135/4 68/135/4
f 39/136/5 56/137/5 40/138/5
f 123/139/4 55/140/4 39/141/4
f 37/142/4 125/143/4 121/144/4
f 38/145/6 53/146/6 37/147/6
f 40/148/1 128/149/1 124/106/1
f 23/150/3 96/151/3 21/21/3
f 93/152/2 60/153/2 59/154/2
f 96/155/5 59/156/5 57/157/5
f 58/158/6 94/135/6 95/159/6
f 23/150/3 58/160/3 95/161/3
f 22/23/3 58/160/3 24/162/3
f 81/163/2 78/164/2 82/165/2
f 55/135/4 67/135/4 63/135/4
f 54/135/4 66/135/4 62/135/4
f 125/135/4 61/135/4 65/135/4
f 68/166/11 72/167/11 76/168/11
f 67/169/12 71/170/12 63/171/12
f 66/172/11 70/173/11 62/174/11
f 80/175/2 83/176/2 84/177/2
f 65/178/12 69/179/12 73/180/12
f 53/135/4 62/135/4 61/135/4
f 56/135/4 63/135/4 64/135/4
f 126/135/4 65/135/4 66/135/4
f 127/135/4 68/135/4 67/135/4
f 89/181/13 78/182/13 90/183/13
f 85/184/13 84/185/13 86/186/13
f 86/187/14 83/188/14 87/189/14
f 88/190/15 80/191/15 85/192/15
f 87/193/16 79/194/16 88/195/16
f 91/196/16 81/197/16 92/198/16
f 92/199/15 82/200/15 89/201/15
f 90/202/14 77/203/14 91/204/14
f 62/205/17 69/206/17 61/207/17
f 63/208/18 72/209/18 64/210/18
f 65/211/18 74/212/18 66/213/18
f 68/214/17 75/215/17 67/216/17
f 71/170/19 87/193/19 88/195/19
f 71/217/20 85/192/20 72/209/20
f 76/218/21 87/189/21 75/215/21
f 72/167/22 86/186/22 76/168/22
f 70/219/21 91/204/21 69/206/21
f 73/220/20 89/201/20 74/212/20
f 69/179/19 92/198/19 73/180/19
f 74/221/22 90/183/22 70/173/22
f 58/222/1 59/223/1 60/224/1
f 96/225/4 94/226/4 93/227/4
f 109/228/3 130/229/3 97/230/3
f 111/231/3 131/232/3 112/233/3
f 113/234/5 133/235/5 114/236/5
f 115/237/6 136/238/6 103/239/6
f 113/234/5 41/240/5 101/241/5
f 114/236/5 134/242/5 106/243/5
f 116/244/6 135/245/6 136/238/6
f 115/237/6 43/246/6 108/247/6
f 109/228/3 41/101/3 105/248/3
f 110/249/3 134/133/3 130/229/3
f 111/231/3 43/250/3 99/251/3
f 112/233/3 135/252/3 107/253/3
f 34/99/23 109/228/23 33/97/23
f 35/111/24 112/233/24 36/109/24
f 49/254/25 114/236/25 50/86/25
f 52/255/26 115/237/26 51/61/26
f 49/254/27 105/256/27 113/234/27
f 50/86/28 106/243/28 118/87/28
f 52/255/29 107/257/29 116/244/29
f 51/61/30 108/247/30 120/62/30
f 33/97/31 105/248/31 117/258/31
f 34/99/32 106/259/32 110/249/32
f 35/111/33 108/260/33 111/231/33
f 36/109/34 107/253/34 119/261/34
f 46/262/1 130/263/1 98/264/1
f 100/265/1 132/266/1 48/267/1
f 42/268/1 133/269/1 102/270/1
f 104/271/1 135/182/1 44/272/1
f 102/270/1 129/273/1 46/262/1
f 98/264/1 134/274/1 42/268/1
f 48/267/1 136/275/1 104/271/1
f 44/272/1 131/276/1 100/265/1
f 138/277/1 141/278/1 137/279/1
f 140/280/1 143/281/1 139/282/1
f 48/283/6 139/284/6 100/285/6
f 104/286/3 140/287/3 48/288/3
f 46/289/3 141/290/3 102/291/3
f 102/292/6 142/293/6 42/294/6
f 98/295/5 137/296/5 46/103/5
f 100/114/2 143/297/2 44/298/2
f 148/299/35 162/300/35 145/301/35
f 153/302/4 160/303/4 159/304/4
f 151/305/36 165/306/36 150/307/36
f 158/308/1 155/309/1 156/310/1
f 3/311/2 159/312/2 4/7/2
f 3/311/2 156/5/2 153/313/2
f 161/314/5 154/84/5 153/315/5
f 164/316/5 155/317/5 147/318/5
f 166/319/6 157/320/6 158/321/6
f 167/322/6 160/323/6 152/324/6
f 161/314/5 156/325/5 164/316/5
f 166/319/6 159/326/6 167/322/6
f 152/327/3 154/328/3 146/329/3
f 147/330/3 157/331/3 149/332/3
f 145/301/37 146/333/37 161/314/37
f 148/299/38 147/318/38 163/334/38
f 150/307/39 149/335/39 166/319/39
f 151/305/40 152/324/40 168/336/40
f 145/301/41 164/316/41 148/299/41
f 150/307/42 167/322/42 151/305/42
f 168/9/43 146/329/43 162/337/43
f 163/10/44 149/332/44 165/11/44
f 121/338/5 65/211/5 122/339/5
f 123/340/6 124/341/6 68/214/6
f 1/1/1 6/342/1 7/2/1
f 2/4/2 158/8/2 156/5/2
f 4/7/2 159/312/2 158/8/2
f 168/9/3 162/337/3 163/10/3
f 4/12/4 8/343/4 5/13/4
f 3/15/5 5/344/5 6/16/5
f 2/18/6 7/345/6 8/19/6
f 21/21/3 96/151/3 57/22/3
f 6/24/3 18/43/3 20/25/3
f 7/26/3 20/25/3 19/27/3
f 10/29/1 26/276/1 30/30/1
f 12/32/4 27/346/4 31/33/4
f 18/35/1 22/347/1 24/36/1
f 19/38/4 23/348/4 21/39/4
f 8/28/3 19/27/3 17/41/3
f 5/42/3 17/41/3 18/43/3
f 10/44/5 18/57/5 17/45/5
f 12/47/6 19/59/6 20/48/6
f 13/50/5 21/56/5 22/51/5
f 15/53/6 24/58/6 23/54/6
f 9/46/5 17/45/5 21/56/5
f 14/52/5 22/51/5 18/57/5
f 11/49/6 20/48/6 24/58/6
f 16/55/6 23/54/6 19/59/6
f 119/60/7 52/255/7 51/61/7
f 27/63/5 99/116/5 47/64/5
f 16/66/2 31/81/2 32/67/2
f 11/69/3 28/349/3 27/70/3
f 15/72/1 32/350/1 28/73/1
f 13/74/4 29/351/4 25/75/4
f 14/77/2 30/352/2 29/78/2
f 9/80/3 25/353/3 26/81/3
f 28/82/5 32/118/5 132/83/5
f 117/85/8 49/254/8 50/86/8
f 26/88/6 130/115/6 129/89/6
f 25/91/6 29/117/6 45/92/6
f 45/94/4 101/100/4 41/95/4
f 33/97/9 117/258/9 118/98/9
f 99/100/4 43/354/4 103/101/4
f 44/103/5 143/296/5 144/104/5
f 122/106/1 126/149/1 54/107/1
f 36/109/10 119/261/10 120/110/10
f 42/112/2 142/355/2 138/113/2
f 25/91/6 97/93/6 130/115/6
f 27/63/5 28/82/5 131/84/5
f 29/117/6 30/90/6 129/89/6
f 31/65/5 47/64/5 132/83/5
f 37/119/2 45/131/2 129/120/2
f 39/122/2 40/134/2 132/123/2
f 121/125/2 122/132/2 133/126/2
f 123/128/2 103/133/2 136/129/2
f 37/119/2 121/125/2 101/127/2
f 122/132/2 38/121/2 129/120/2
f 39/122/2 47/124/2 103/133/2
f 124/130/2 136/129/2 132/123/2
f 128/135/4 56/135/4 64/135/4
f 39/136/5 55/356/5 56/137/5
f 123/139/4 127/357/4 55/140/4
f 37/142/4 53/358/4 125/143/4
f 38/145/6 54/359/6 53/146/6
f 40/148/1 56/360/1 128/149/1
f 23/150/3 95/161/3 96/151/3
f 93/152/2 94/361/2 60/153/2
f 96/155/5 93/362/5 59/156/5
f 58/158/6 60/363/6 94/135/6
f 23/150/3 24/162/3 58/160/3
f 22/23/3 57/22/3 58/160/3
f 81/163/2 77/364/2 78/164/2
f 55/135/4 127/135/4 67/135/4
f 54/135/4 126/135/4 66/135/4
f 125/135/4 53/135/4 61/135/4
f 68/166/11 64/365/11 72/167/11
f 67/169/12 75/366/12 71/170/12
f 66/172/11 74/221/11 70/173/11
f 80/175/2 79/367/2 83/176/2
f 65/178/12 61/368/12 69/179/12
f 53/135/4 54/135/4 62/135/4
f 56/135/4 55/135/4 63/135/4
f 126/135/4 125/135/4 65/135/4
f 127/135/4 128/135/4 68/135/4
f 89/181/13 82/369/13 78/182/13
f 85/184/13 80/370/13 84/185/13
f 86/187/14 84/371/14 83/188/14
f 88/190/15 79/372/15 80/191/15
f 87/193/16 83/373/16 79/194/16
f 91/196/16 77/374/16 81/197/16
f 92/199/15 81/375/15 82/200/15
f 90/202/14 78/376/14 77/203/14
f 62/205/17 70/219/17 69/206/17
f 63/208/18 71/217/18 72/209/18
f 65/211/18 73/220/18 74/212/18
f 68/214/17 76/218/17 75/215/17
f 71/170/19 75/366/19 87/193/19
f 71/217/20 88/190/20 85/192/20
f 76/218/21 86/187/21 87/189/21
f 72/167/22 85/184/22 86/186/22
f 70/219/21 90/202/21 91/204/21
f 73/220/20 92/199/20 89/201/20
f 69/179/19 91/196/19 92/198/19
f 74/221/22 89/181/22 90/183/22
f 58/222/1 57/377/1 59/223/1
f 96/225/4 95/374/4 94/226/4
f 109/228/3 110/249/3 130/229/3
f 111/231/3 99/251/3 131/232/3
f 113/234/5 101/241/5 133/235/5
f 115/237/6 116/244/6 136/238/6
f 113/234/5 105/256/5 41/240/5
f 114/236/5 133/235/5 134/242/5
f 116/244/6 107/257/6 135/245/6
f 115/237/6 103/239/6 43/246/6
f 109/228/3 97/230/3 41/101/3
f 110/249/3 106/259/3 134/133/3
f 111/231/3 108/260/3 43/250/3
f 112/233/3 131/232/3 135/252/3
f 34/99/23 110/249/23 109/228/23
f 35/111/24 111/231/24 112/233/24
f 49/254/25 113/234/25 114/236/25
f 52/255/26 116/244/26 115/237/26
f 49/254/45 117/85/45 105/256/45
f 50/86/46 114/236/46 106/243/46
f 52/255/47 119/60/47 107/257/47
f 51/61/48 115/237/48 108/247/48
f 33/97/33 109/228/33 105/248/33
f 34/99/49 118/98/49 106/259/49
f 35/111/50 120/110/50 108/260/50
f 36/109/32 112/233/32 107/253/32
f 46/262/1 129/273/1 130/263/1
f 100/265/1 131/276/1 132/266/1
f 42/268/1 134/274/1 133/269/1
f 104/271/1 136/275/1 135/182/1
f 102/270/1 133/269/1 129/273/1
f 98/264/1 130/263/1 134/274/1
f 48/267/1 132/266/1 136/275/1
f 44/272/1 135/182/1 131/276/1
f 138/277/1 142/281/1 141/278/1
f 140/280/1 144/278/1 143/281/1
f 48/283/6 140/378/6 139/284/6
f 104/286/3 144/379/3 140/287/3
f 46/289/3 137/380/3 141/290/3
f 102/292/6 141/381/6 142/293/6
f 98/295/5 138/382/5 137/296/5
f 100/114/2 139/113/2 143/297/2
f 148/299/35 163/334/35 162/300/35
f 153/302/4 154/383/4 160/303/4
f 151/305/36 168/336/36 165/306/36
f 158/308/1 157/384/1 155/309/1
f 3/311/2 153/313/2 159/312/2
f 3/311/2 1/6/2 156/5/2
f 161/314/5 146/333/5 154/84/5
f 164/316/5 156/325/5 155/317/5
f 166/319/6 149/335/6 157/320/6
f 167/322/6 159/326/6 160/323/6
f 161/314/5 153/315/5 156/325/5
f 166/319/6 158/321/6 159/326/6
f 152/327/3 160/385/3 154/328/3
f 147/330/3 155/386/3 157/331/3
f 145/301/51 162/300/51 146/333/51
f 148/299/52 164/316/52 147/318/52
f 150/307/53 165/306/53 149/335/53
f 151/305/54 167/322/54 152/324/54
f 145/301/41 161/314/41 164/316/41
f 150/307/42 166/319/42 167/322/42
f 168/9/43 152/327/43 146/329/43
f 163/10/44 147/330/44 149/332/44
f 125/211/4 66/213/4 65/211/4
f 65/211/5 126/213/5 122/339/5
f 121/338/4 125/211/4 65/211/4
f 128/214/4 67/216/4 68/214/4
f 68/214/6 127/216/6 123/340/6
f 124/341/4 128/214/4 68/214/4
