# Blender 5.2.0 LTS
# www.blender.org
mtllib TankChassis.mtl
o Chassis
v 0.575328 -0.661846 -0.080951
v 0.670977 -0.661846 -0.032689
v 0.610653 -0.721846 -0.020951
v 0.595660 -0.661846 -0.080114
v 0.617459 -0.661846 -0.074066
v 0.577015 -0.680391 -0.076486
v 0.598267 -0.680882 -0.075172
v 0.618370 -0.680262 -0.069476
v 0.582008 -0.697107 -0.067167
v 0.602324 -0.696325 -0.066303
v 0.619021 -0.693593 -0.062729
v 0.667981 -0.680391 -0.030588
v 0.659396 -0.697107 -0.028119
v 0.657063 -0.661846 -0.049132
v 0.653232 -0.680989 -0.047363
v 0.645496 -0.696295 -0.044519
v 0.638636 -0.661846 -0.063381
v 0.635995 -0.680309 -0.060571
v 0.631862 -0.693593 -0.056249
v 0.599693 -0.718908 -0.037968
v 0.589829 -0.710391 -0.053883
v 0.629256 -0.718908 -0.023052
v 0.618436 -0.715429 -0.040711
v 0.608783 -0.707389 -0.055245
v 0.646040 -0.710391 -0.025520
v 0.634345 -0.707346 -0.042399
v 0.623763 -0.701649 -0.054673
v -0.943705 -0.721846 0.429628
v -0.990620 -0.661846 0.485506
v -0.976826 -0.661846 0.381367
v -0.959650 -0.718645 0.442949
v -0.973537 -0.710231 0.456406
v -0.955441 -0.718653 0.416916
v -0.968487 -0.713504 0.430282
v -0.979920 -0.706961 0.442629
v -0.965510 -0.710260 0.404636
v -0.976186 -0.706817 0.418637
v -0.984547 -0.702253 0.430781
v -0.995424 -0.661846 0.465852
v -0.996532 -0.661846 0.443456
v -0.989636 -0.680270 0.478672
v -0.992319 -0.679914 0.459397
v -0.993918 -0.679682 0.440670
v -0.983894 -0.696979 0.468744
v -0.987761 -0.695751 0.452323
v -0.990061 -0.693864 0.437623
v -0.976621 -0.680317 0.386062
v -0.972825 -0.697017 0.393980
v -0.986581 -0.661846 0.399092
v -0.984646 -0.680065 0.404224
v -0.981647 -0.695844 0.409882
v -0.993481 -0.661846 0.420428
v -0.991259 -0.679725 0.422358
v -0.988132 -0.693891 0.424471
v -0.610653 -0.721846 -0.020951
v -0.670977 -0.661846 -0.032689
v -0.575328 -0.661846 -0.080951
v -0.627033 -0.718654 -0.027461
v -0.642657 -0.710260 -0.032314
v -0.604284 -0.718650 -0.039390
v -0.619439 -0.713509 -0.043059
v -0.633362 -0.706982 -0.046040
v -0.596891 -0.710245 -0.056100
v -0.612037 -0.706811 -0.057022
v -0.624907 -0.702260 -0.057154
v -0.656900 -0.661846 -0.047454
v -0.638507 -0.661846 -0.060953
v -0.665606 -0.680311 -0.034973
v -0.650795 -0.679954 -0.047981
v -0.635736 -0.679720 -0.059947
v -0.655978 -0.697015 -0.034908
v -0.643762 -0.695784 -0.047610
v -0.632269 -0.693890 -0.058083
v -0.581697 -0.680286 -0.077755
v -0.589090 -0.696995 -0.069349
v -0.595568 -0.661846 -0.078400
v -0.600708 -0.680035 -0.073537
v -0.605771 -0.695825 -0.067292
v -0.617354 -0.661846 -0.071626
v -0.619047 -0.679697 -0.068332
v -0.620464 -0.693876 -0.064150
v 0.610653 0.721846 -0.020951
v 0.670977 0.661846 -0.032689
v 0.575328 0.661846 -0.080951
v 0.627033 0.718654 -0.027461
v 0.642657 0.710260 -0.032314
v 0.604284 0.718650 -0.039390
v 0.619439 0.713509 -0.043059
v 0.633362 0.706982 -0.046040
v 0.596891 0.710245 -0.056100
v 0.612037 0.706811 -0.057022
v 0.624907 0.702260 -0.057154
v 0.656900 0.661846 -0.047454
v 0.638507 0.661846 -0.060953
v 0.665606 0.680311 -0.034973
v 0.650795 0.679954 -0.047981
v 0.635736 0.679720 -0.059947
v 0.655978 0.697015 -0.034908
v 0.643762 0.695784 -0.047610
v 0.632269 0.693890 -0.058083
v 0.581697 0.680286 -0.077755
v 0.589090 0.696995 -0.069349
v 0.595568 0.661846 -0.078400
v 0.600708 0.680035 -0.073537
v 0.605771 0.695825 -0.067292
v 0.617354 0.661846 -0.071626
v 0.619047 0.679697 -0.068332
v 0.620464 0.693876 -0.064150
v -0.976826 0.661846 0.381367
v -0.990620 0.661846 0.485506
v -0.943705 0.721846 0.429628
v -0.986581 0.661846 0.399092
v -0.993481 0.661846 0.420428
v -0.976621 0.680317 0.386062
v -0.984621 0.679960 0.404229
v -0.991352 0.679725 0.422256
v -0.972825 0.697017 0.393980
v -0.981535 0.695785 0.409982
v -0.988132 0.693891 0.424471
v -0.989636 0.680270 0.478672
v -0.983894 0.696979 0.468744
v -0.995424 0.661846 0.465852
v -0.992366 0.680019 0.459437
v -0.987910 0.695810 0.452419
v -0.996532 0.661846 0.443456
v -0.993801 0.679682 0.440595
v -0.990061 0.693864 0.437623
v -0.955441 0.718653 0.416916
v -0.965510 0.710260 0.404636
v -0.959650 0.718645 0.442949
v -0.968464 0.713503 0.430241
v -0.976241 0.706978 0.418621
v -0.973537 0.710231 0.456406
v -0.979852 0.706800 0.442630
v -0.984547 0.702253 0.430781
v -0.575328 0.661846 -0.080951
v -0.670977 0.661846 -0.032689
v -0.610653 0.721846 -0.020951
v -0.595660 0.661846 -0.080114
v -0.617459 0.661846 -0.074066
v -0.577015 0.680391 -0.076486
v -0.598267 0.680882 -0.075172
v -0.618370 0.680262 -0.069476
v -0.582008 0.697107 -0.067167
v -0.602324 0.696325 -0.066303
v -0.619021 0.693593 -0.062729
v -0.667981 0.680391 -0.030588
v -0.659396 0.697107 -0.028119
v -0.657063 0.661846 -0.049132
v -0.653232 0.680989 -0.047363
v -0.645496 0.696295 -0.044519
v -0.638636 0.661846 -0.063381
v -0.635995 0.680309 -0.060571
v -0.631862 0.693593 -0.056249
v -0.599693 0.718908 -0.037968
v -0.589829 0.710391 -0.053883
v -0.629256 0.718908 -0.023052
v -0.618436 0.715429 -0.040711
v -0.608783 0.707389 -0.055245
v -0.646040 0.710391 -0.025520
v -0.634345 0.707346 -0.042399
v -0.623763 0.701649 -0.054673
v -0.856039 -0.661846 0.829591
v -0.789048 -0.721846 0.825469
v -0.774184 -0.661846 0.885469
v -0.851850 -0.680390 0.828853
v -0.841863 -0.697107 0.827986
v -0.847256 -0.661846 0.847397
v -0.842308 -0.680989 0.847095
v -0.833098 -0.696295 0.845694
v -0.833127 -0.661846 0.863247
v -0.829069 -0.680309 0.861753
v -0.823101 -0.693593 0.858463
v -0.783545 -0.718908 0.843477
v -0.778926 -0.710391 0.859912
v -0.808844 -0.718908 0.826206
v -0.803709 -0.715429 0.844829
v -0.798838 -0.707389 0.859863
v -0.827031 -0.710391 0.827073
v -0.820731 -0.707346 0.844980
v -0.814107 -0.701648 0.857909
v -0.794708 -0.661846 0.883269
v -0.815004 -0.661846 0.875619
v -0.774002 -0.680390 0.881995
v -0.795297 -0.680882 0.879276
v -0.813990 -0.680262 0.872059
v -0.775635 -0.697107 0.873196
v -0.796151 -0.696325 0.870917
v -0.812111 -0.693593 0.865965
v -0.856039 0.661846 0.829591
v -0.774184 0.661846 0.885469
v -0.789048 0.721846 0.825469
v -0.846162 0.661846 0.846714
v -0.831644 0.661846 0.862318
v -0.851581 0.680282 0.831651
v -0.840175 0.679926 0.847404
v -0.828281 0.679693 0.861503
v -0.841721 0.696982 0.832316
v -0.832722 0.695751 0.847508
v -0.823813 0.693866 0.859835
v -0.776866 0.680301 0.882268
v -0.779975 0.696998 0.873865
v -0.793729 0.661846 0.882507
v -0.795825 0.680049 0.877476
v -0.797889 0.695825 0.871121
v -0.813549 0.661846 0.874670
v -0.813500 0.679711 0.871378
v -0.813020 0.693877 0.867106
v -0.808774 0.718642 0.829020
v -0.826935 0.710230 0.831407
v -0.786366 0.718646 0.843924
v -0.804727 0.713494 0.845679
v -0.821006 0.706955 0.847011
v -0.783257 0.710242 0.860620
v -0.800857 0.706802 0.860442
v -0.815322 0.702243 0.859510
v 0.976826 0.661846 0.381367
v 0.943705 0.721846 0.429628
v 0.990620 0.661846 0.485506
v 0.976621 0.680317 0.386062
v 0.972825 0.697017 0.393980
v 0.986581 0.661846 0.399092
v 0.984646 0.680065 0.404224
v 0.981647 0.695844 0.409882
v 0.993481 0.661846 0.420428
v 0.991259 0.679725 0.422358
v 0.988132 0.693891 0.424471
v 0.959650 0.718645 0.442949
v 0.973537 0.710231 0.456406
v 0.955441 0.718653 0.416916
v 0.968487 0.713504 0.430282
v 0.979920 0.706961 0.442629
v 0.965510 0.710260 0.404636
v 0.976186 0.706817 0.418637
v 0.984547 0.702253 0.430781
v 0.995424 0.661846 0.465852
v 0.996532 0.661846 0.443456
v 0.989636 0.680270 0.478672
v 0.992319 0.679914 0.459397
v 0.993918 0.679682 0.440670
v 0.983894 0.696979 0.468744
v 0.987761 0.695751 0.452323
v 0.990061 0.693864 0.437623
v 0.976826 -0.661846 0.381367
v 0.990620 -0.661846 0.485506
v 0.943705 -0.721846 0.429628
v 0.986581 -0.661846 0.399092
v 0.993481 -0.661846 0.420428
v 0.976621 -0.680317 0.386062
v 0.984621 -0.679960 0.404229
v 0.991352 -0.679725 0.422256
v 0.972825 -0.697017 0.393980
v 0.981535 -0.695785 0.409982
v 0.988132 -0.693891 0.424471
v 0.989636 -0.680270 0.478672
v 0.983894 -0.696979 0.468744
v 0.995424 -0.661846 0.465852
v 0.992366 -0.680019 0.459437
v 0.987910 -0.695810 0.452419
v 0.996532 -0.661846 0.443456
v 0.993801 -0.679681 0.440595
v 0.990061 -0.693864 0.437623
v 0.955441 -0.718653 0.416916
v 0.965510 -0.710260 0.404636
v 0.959650 -0.718645 0.442949
v 0.968464 -0.713503 0.430241
v 0.976241 -0.706978 0.418621
v 0.973537 -0.710231 0.456406
v 0.979852 -0.706801 0.442630
v 0.984547 -0.702253 0.430781
v 0.789048 0.721846 0.825469
v 0.774184 0.661846 0.885469
v 0.856039 0.661846 0.829591
v 0.783545 0.718908 0.843477
v 0.778926 0.710391 0.859912
v 0.808844 0.718908 0.826206
v 0.803710 0.715429 0.844829
v 0.798838 0.707389 0.859863
v 0.827031 0.710391 0.827073
v 0.820731 0.707346 0.844980
v 0.814107 0.701648 0.857909
v 0.794708 0.661846 0.883269
v 0.815005 0.661846 0.875619
v 0.774003 0.680390 0.881995
v 0.795297 0.680882 0.879276
v 0.813991 0.680262 0.872059
v 0.775635 0.697107 0.873196
v 0.796151 0.696325 0.870917
v 0.812111 0.693593 0.865965
v 0.851850 0.680390 0.828853
v 0.841863 0.697107 0.827986
v 0.847256 0.661846 0.847397
v 0.842309 0.680989 0.847095
v 0.833098 0.696295 0.845694
v 0.833127 0.661846 0.863247
v 0.829069 0.680309 0.861753
v 0.823101 0.693593 0.858463
v 0.789048 -0.721846 0.825469
v 0.856039 -0.661846 0.829591
v 0.774184 -0.661846 0.885469
v 0.808774 -0.718642 0.829020
v 0.826935 -0.710230 0.831407
v 0.786366 -0.718646 0.843924
v 0.804727 -0.713494 0.845679
v 0.821006 -0.706955 0.847011
v 0.783257 -0.710242 0.860620
v 0.800857 -0.706802 0.860442
v 0.815322 -0.702243 0.859509
v 0.846162 -0.661846 0.846715
v 0.831644 -0.661846 0.862318
v 0.851581 -0.680282 0.831651
v 0.840176 -0.679926 0.847404
v 0.828281 -0.679693 0.861503
v 0.841721 -0.696982 0.832316
v 0.832722 -0.695751 0.847508
v 0.823813 -0.693866 0.859835
v 0.776866 -0.680301 0.882268
v 0.779976 -0.696998 0.873865
v 0.793729 -0.661846 0.882507
v 0.795825 -0.680049 0.877476
v 0.797889 -0.695825 0.871121
v 0.813549 -0.661846 0.874670
v 0.813500 -0.679711 0.871378
v 0.813020 -0.693877 0.867106
vn 0.0198 -0.1168 -0.9930
vn 0.7806 -0.0967 -0.6175
vn 0.0662 -0.9894 -0.1289
vn 0.1507 -0.1126 -0.9821
vn 0.3566 -0.1028 -0.9286
vn 0.0219 -0.3605 -0.9325
vn 0.1550 -0.3477 -0.9247
vn 0.3482 -0.3105 -0.8845
vn 0.0257 -0.5976 -0.8014
vn 0.1529 -0.5628 -0.8123
vn 0.3229 -0.4918 -0.8086
vn 0.7420 -0.3205 -0.5888
vn 0.6431 -0.5631 -0.5190
vn 0.6885 -0.0980 -0.7186
vn 0.6494 -0.3192 -0.6902
vn 0.5674 -0.5366 -0.6246
vn 0.5307 -0.0981 -0.8419
vn 0.5040 -0.3013 -0.8095
vn 0.4612 -0.4826 -0.7446
vn 0.0540 -0.9363 -0.3472
vn 0.0361 -0.7964 -0.6037
vn 0.2577 -0.9301 -0.2616
vn 0.2262 -0.8646 -0.4486
vn 0.1741 -0.7352 -0.6551
vn 0.4807 -0.7756 -0.4091
vn 0.4302 -0.7203 -0.5441
vn 0.3491 -0.6330 -0.6909
vn -0.1403 -0.9899 -0.0224
vn -0.9480 -0.0830 0.3073
vn -0.8375 -0.0733 -0.5414
vn -0.3341 -0.9425 0.0118
vn -0.5673 -0.8103 0.1469
vn -0.3351 -0.9342 -0.1221
vn -0.4742 -0.8767 -0.0804
vn -0.6593 -0.7508 0.0406
vn -0.5443 -0.7785 -0.3126
vn -0.6390 -0.7340 -0.2299
vn -0.7523 -0.6484 -0.1166
vn -0.9864 -0.0902 0.1375
vn -0.9967 -0.0753 -0.0320
vn -0.9149 -0.3126 0.2555
vn -0.9574 -0.2681 0.1074
vn -0.9783 -0.2058 -0.0225
vn -0.7920 -0.5710 0.2160
vn -0.8614 -0.4925 0.1239
vn -0.9149 -0.4035 -0.0120
vn -0.8231 -0.2832 -0.4923
vn -0.7271 -0.5306 -0.4357
vn -0.9169 -0.0883 -0.3892
vn -0.8969 -0.2536 -0.3622
vn -0.8098 -0.4656 -0.3570
vn -0.9708 -0.0753 -0.2277
vn -0.9495 -0.1987 -0.2427
vn -0.8879 -0.3881 -0.2469
vn -0.0671 -0.9893 -0.1292
vn -0.7670 -0.0723 -0.6376
vn -0.0553 -0.0777 -0.9954
vn -0.2180 -0.9331 -0.2860
vn -0.4655 -0.7754 -0.4266
vn -0.1073 -0.9366 -0.3337
vn -0.2268 -0.8691 -0.4395
vn -0.4261 -0.7214 -0.5459
vn -0.0695 -0.7945 -0.6032
vn -0.1927 -0.7335 -0.6519
vn -0.3527 -0.6296 -0.6923
vn -0.6535 -0.0834 -0.7523
vn -0.5279 -0.0704 -0.8464
vn -0.7154 -0.2793 -0.6404
vn -0.6214 -0.2443 -0.7445
vn -0.5331 -0.1869 -0.8251
vn -0.6319 -0.5261 -0.5691
vn -0.5940 -0.4531 -0.6647
vn -0.5194 -0.3740 -0.7683
vn -0.0895 -0.2942 -0.9515
vn -0.0798 -0.5483 -0.8324
vn -0.2161 -0.0831 -0.9728
vn -0.2343 -0.2486 -0.9398
vn -0.1892 -0.4709 -0.8616
vn -0.3675 -0.0720 -0.9272
vn -0.3532 -0.1889 -0.9163
vn -0.3209 -0.3820 -0.8667
vn 0.0671 0.9893 -0.1292
vn 0.7670 0.0723 -0.6376
vn 0.0553 0.0777 -0.9954
vn 0.2180 0.9331 -0.2860
vn 0.4655 0.7754 -0.4266
vn 0.1073 0.9366 -0.3337
vn 0.2268 0.8691 -0.4395
vn 0.4261 0.7214 -0.5459
vn 0.0695 0.7945 -0.6032
vn 0.1927 0.7335 -0.6519
vn 0.3527 0.6296 -0.6923
vn 0.6535 0.0834 -0.7523
vn 0.5279 0.0704 -0.8464
vn 0.7154 0.2793 -0.6404
vn 0.6214 0.2443 -0.7445
vn 0.5331 0.1869 -0.8251
vn 0.6319 0.5261 -0.5691
vn 0.5940 0.4531 -0.6647
vn 0.5194 0.3740 -0.7683
vn 0.0895 0.2942 -0.9515
vn 0.0798 0.5483 -0.8324
vn 0.2161 0.0831 -0.9728
vn 0.2343 0.2486 -0.9398
vn 0.1892 0.4709 -0.8616
vn 0.3675 0.0720 -0.9272
vn 0.3532 0.1889 -0.9163
vn 0.3209 0.3820 -0.8667
vn -0.8373 0.0736 -0.5417
vn -0.9482 0.0825 0.3068
vn -0.1404 0.9898 -0.0223
vn -0.9170 0.0891 -0.3889
vn -0.9710 0.0746 -0.2273
vn -0.8229 0.2838 -0.4922
vn -0.8962 0.2555 -0.3626
vn -0.9496 0.1981 -0.2429
vn -0.7283 0.5306 -0.4336
vn -0.8097 0.4630 -0.3605
vn -0.8867 0.3894 -0.2491
vn -0.9152 0.3117 0.2556
vn -0.7910 0.5715 0.2186
vn -0.9864 0.0891 0.1380
vn -0.9579 0.2663 0.1072
vn -0.8608 0.4944 0.1204
vn -0.9965 0.0768 -0.0332
vn -0.9788 0.2033 -0.0242
vn -0.9145 0.4043 -0.0133
vn -0.3336 0.9348 -0.1222
vn -0.5439 0.7774 -0.3159
vn -0.3358 0.9418 0.0115
vn -0.4743 0.8773 -0.0736
vn -0.6405 0.7321 -0.2320
vn -0.5669 0.8113 0.1429
vn -0.6572 0.7527 0.0381
vn -0.7527 0.6494 -0.1085
vn -0.0198 0.1168 -0.9930
vn -0.7806 0.0967 -0.6175
vn -0.0662 0.9894 -0.1289
vn -0.1507 0.1126 -0.9821
vn -0.3566 0.1028 -0.9286
vn -0.0219 0.3605 -0.9325
vn -0.1550 0.3477 -0.9247
vn -0.3482 0.3105 -0.8845
vn -0.0257 0.5976 -0.8014
vn -0.1529 0.5628 -0.8123
vn -0.3229 0.4918 -0.8086
vn -0.7420 0.3205 -0.5888
vn -0.6431 0.5631 -0.5190
vn -0.6885 0.0980 -0.7186
vn -0.6494 0.3192 -0.6902
vn -0.5674 0.5366 -0.6246
vn -0.5307 0.0981 -0.8419
vn -0.5040 0.3013 -0.8095
vn -0.4612 0.4826 -0.7446
vn -0.0540 0.9363 -0.3472
vn -0.0361 0.7964 -0.6037
vn -0.2577 0.9301 -0.2616
vn -0.2262 0.8646 -0.4486
vn -0.1741 0.7352 -0.6551
vn -0.4807 0.7756 -0.4091
vn -0.4302 0.7203 -0.5441
vn -0.3491 0.6330 -0.6909
vn -0.9097 -0.1088 0.4008
vn -0.0706 -0.9919 0.1054
vn -0.0532 -0.0921 0.9943
vn -0.8530 -0.3583 0.3795
vn -0.7175 -0.6143 0.3284
vn -0.8261 -0.1062 0.5534
vn -0.7700 -0.3504 0.5333
vn -0.6559 -0.5845 0.4776
vn -0.6585 -0.0984 0.7461
vn -0.6203 -0.3163 0.7178
vn -0.5559 -0.5179 0.6502
vn -0.0680 -0.9423 0.3277
vn -0.0580 -0.8009 0.5960
vn -0.2708 -0.9462 0.1770
vn -0.2596 -0.8869 0.3821
vn -0.2253 -0.7531 0.6181
vn -0.5171 -0.8158 0.2590
vn -0.4866 -0.7632 0.4251
vn -0.4186 -0.6687 0.6144
vn -0.2297 -0.0939 0.9687
vn -0.4598 -0.0940 0.8830
vn -0.0525 -0.3257 0.9440
vn -0.2303 -0.3259 0.9169
vn -0.4454 -0.3082 0.8406
vn -0.0525 -0.5873 0.8077
vn -0.2177 -0.5647 0.7961
vn -0.4053 -0.5106 0.7583
vn -0.9001 0.0845 0.4274
vn -0.0712 0.0805 0.9942
vn -0.0761 0.9905 0.1148
vn -0.7959 0.1018 0.5968
vn -0.6570 0.0854 0.7491
vn -0.8381 0.3204 0.4416
vn -0.7524 0.2905 0.5912
vn -0.6531 0.2276 0.7222
vn -0.7189 0.5798 0.3836
vn -0.6915 0.5126 0.5090
vn -0.6135 0.4332 0.6603
vn -0.1040 0.3074 0.9459
vn -0.0905 0.5620 0.8222
vn -0.2662 0.1003 0.9587
vn -0.2744 0.2823 0.9192
vn -0.2228 0.5019 0.8358
vn -0.4587 0.0862 0.8844
vn -0.4310 0.2238 0.8742
vn -0.3865 0.4262 0.8179
vn -0.2423 0.9458 0.2164
vn -0.5068 0.8144 0.2827
vn -0.1102 0.9419 0.3173
vn -0.2486 0.8910 0.3798
vn -0.4739 0.7708 0.4257
vn -0.0808 0.8018 0.5921
vn -0.2223 0.7653 0.6041
vn -0.4031 0.6850 0.6069
vn 0.8375 0.0733 -0.5414
vn 0.1403 0.9899 -0.0224
vn 0.9480 0.0830 0.3073
vn 0.8231 0.2832 -0.4923
vn 0.7271 0.5306 -0.4357
vn 0.9169 0.0883 -0.3892
vn 0.8969 0.2536 -0.3622
vn 0.8098 0.4656 -0.3570
vn 0.9708 0.0753 -0.2277
vn 0.9495 0.1987 -0.2427
vn 0.8879 0.3881 -0.2469
vn 0.3341 0.9425 0.0118
vn 0.5673 0.8103 0.1469
vn 0.3351 0.9342 -0.1221
vn 0.4742 0.8767 -0.0804
vn 0.6593 0.7508 0.0406
vn 0.5443 0.7785 -0.3126
vn 0.6390 0.7340 -0.2299
vn 0.7523 0.6484 -0.1166
vn 0.9864 0.0902 0.1375
vn 0.9967 0.0753 -0.0320
vn 0.9149 0.3126 0.2555
vn 0.9574 0.2681 0.1074
vn 0.9783 0.2058 -0.0225
vn 0.7920 0.5710 0.2160
vn 0.8614 0.4925 0.1239
vn 0.9149 0.4035 -0.0120
vn 0.8373 -0.0736 -0.5417
vn 0.9482 -0.0825 0.3068
vn 0.1404 -0.9898 -0.0223
vn 0.9170 -0.0891 -0.3889
vn 0.9710 -0.0746 -0.2273
vn 0.8229 -0.2838 -0.4922
vn 0.8962 -0.2555 -0.3626
vn 0.9496 -0.1981 -0.2429
vn 0.7283 -0.5306 -0.4336
vn 0.8097 -0.4630 -0.3605
vn 0.8867 -0.3894 -0.2491
vn 0.9152 -0.3117 0.2556
vn 0.7910 -0.5715 0.2186
vn 0.9864 -0.0891 0.1380
vn 0.9579 -0.2663 0.1072
vn 0.8608 -0.4944 0.1204
vn 0.9965 -0.0768 -0.0332
vn 0.9788 -0.2033 -0.0242
vn 0.9145 -0.4043 -0.0133
vn 0.3336 -0.9348 -0.1222
vn 0.5439 -0.7774 -0.3159
vn 0.3358 -0.9418 0.0115
vn 0.4743 -0.8773 -0.0736
vn 0.6405 -0.7321 -0.2320
vn 0.5669 -0.8113 0.1429
vn 0.6572 -0.7527 0.0381
vn 0.7527 -0.6494 -0.1085
vn 0.0706 0.9919 0.1054
vn 0.0532 0.0921 0.9943
vn 0.9097 0.1088 0.4008
vn 0.0680 0.9423 0.3277
vn 0.0580 0.8009 0.5960
vn 0.2708 0.9462 0.1770
vn 0.2596 0.8869 0.3821
vn 0.2253 0.7531 0.6181
vn 0.5171 0.8158 0.2590
vn 0.4866 0.7632 0.4251
vn 0.4186 0.6687 0.6144
vn 0.2297 0.0939 0.9687
vn 0.4598 0.0940 0.8830
vn 0.0525 0.3257 0.9440
vn 0.2303 0.3259 0.9169
vn 0.4454 0.3082 0.8406
vn 0.0525 0.5873 0.8077
vn 0.2177 0.5647 0.7961
vn 0.4053 0.5106 0.7583
vn 0.8530 0.3583 0.3795
vn 0.7175 0.6143 0.3284
vn 0.8261 0.1062 0.5534
vn 0.7700 0.3504 0.5333
vn 0.6559 0.5845 0.4776
vn 0.6585 0.0984 0.7461
vn 0.6203 0.3163 0.7178
vn 0.5559 0.5179 0.6502
vn 0.0761 -0.9905 0.1148
vn 0.9001 -0.0845 0.4274
vn 0.0712 -0.0805 0.9942
vn 0.2423 -0.9458 0.2164
vn 0.5068 -0.8144 0.2827
vn 0.1102 -0.9419 0.3173
vn 0.2486 -0.8910 0.3798
vn 0.4739 -0.7708 0.4257
vn 0.0808 -0.8018 0.5921
vn 0.2223 -0.7653 0.6041
vn 0.4031 -0.6850 0.6069
vn 0.7959 -0.1018 0.5968
vn 0.6570 -0.0854 0.7491
vn 0.8381 -0.3204 0.4416
vn 0.7524 -0.2905 0.5912
vn 0.6531 -0.2276 0.7222
vn 0.7188 -0.5798 0.3836
vn 0.6915 -0.5126 0.5090
vn 0.6135 -0.4333 0.6603
vn 0.1040 -0.3074 0.9459
vn 0.0905 -0.5620 0.8222
vn 0.2662 -0.1003 0.9587
vn 0.2744 -0.2823 0.9192
vn 0.2228 -0.5019 0.8358
vn 0.4587 -0.0862 0.8844
vn 0.4310 -0.2238 0.8742
vn 0.3865 -0.4262 0.8179
vt 0.016246 0.435417
vt 0.011224 0.430369
vt 0.016246 0.429912
vt 0.016246 0.441320
vt 0.011091 0.436123
vt 0.016246 0.448748
vt 0.011259 0.441566
vt 0.006698 0.431721
vt 0.006910 0.437222
vt 0.011246 0.448859
vt 0.007650 0.441743
vt 0.011224 0.455796
vt 0.016246 0.452353
vt 0.016246 0.455810
vt 0.006698 0.455295
vt 0.011062 0.452215
vt 0.000000 0.454354
vt 0.006918 0.451844
vt 0.000000 0.451052
vt 0.007650 0.448072
vt 0.897981 0.891203
vt 0.903331 0.893310
vt 0.898550 0.896240
vt 0.902589 0.888235
vt 0.914227 0.890696
vt 0.000000 0.433839
vt 0.000000 0.438970
vt 0.907600 0.902778
vt 0.903130 0.906080
vt 0.914227 0.894753
vt 0.000000 0.443702
vt 0.775983 0.470346
vt 0.775806 0.463636
vt 0.779425 0.467169
vt 0.772376 0.466029
vt 0.772463 0.460541
vt 0.768733 0.462269
vt 0.768383 0.454698
vt 0.782604 0.456617
vt 0.786438 0.459449
vt 0.779395 0.454246
vt 0.775983 0.451726
vt 0.903498 0.374647
vt 0.899694 0.379636
vt 0.898068 0.374647
vt 0.914314 0.374647
vt 0.904819 0.379539
vt 0.016246 0.003006
vt 0.011416 0.000000
vt 0.016246 0.000000
vt 0.901632 0.390893
vt 0.914314 0.379476
vt 0.906153 0.390893
vt 0.011405 0.002969
vt 0.007576 0.000000
vt 0.011244 0.009064
vt 0.016246 0.006426
vt 0.016246 0.009652
vt 0.006723 0.008403
vt 0.011313 0.005947
vt 0.000000 0.007723
vt 0.007040 0.005502
vt 0.000000 0.004891
vt 0.007569 0.002994
vt 0.000000 0.002520
vt 0.897981 0.560523
vt 0.903967 0.558144
vt 0.902974 0.562247
vt 0.899744 0.556088
vt 0.908365 0.549513
vt 0.000000 0.095122
vt 0.007057 0.096996
vt 0.000000 0.097787
vt 0.914227 0.560148
vt 0.914227 0.564249
vt 0.914227 0.556664
vt 0.007569 0.100323
vt 0.000000 0.104329
vt 0.016246 0.095720
vt 0.011246 0.093273
vt 0.016246 0.092464
vt 0.016246 0.099225
vt 0.011343 0.096372
vt 0.011412 0.106524
vt 0.011406 0.099359
vt 0.006723 0.094185
vt 0.007573 0.106141
vt 0.011253 0.116637
vt 0.016246 0.112882
vt 0.016246 0.118362
vt 0.006729 0.114635
vt 0.011321 0.111490
vt 0.000000 0.112523
vt 0.007045 0.110119
vt 0.016246 0.106983
vt 0.000000 0.108422
vt 0.636314 0.560523
vt 0.642300 0.558144
vt 0.641307 0.562247
vt 0.638077 0.556088
vt 0.646699 0.549513
vt 0.390893 0.453152
vt 0.383836 0.451278
vt 0.390893 0.450487
vt 0.652560 0.560148
vt 0.652560 0.564249
vt 0.652560 0.556664
vt 0.383323 0.447951
vt 0.390893 0.443945
vt 0.374647 0.452554
vt 0.379647 0.455001
vt 0.374647 0.455810
vt 0.374647 0.449049
vt 0.379550 0.451903
vt 0.379481 0.441750
vt 0.379487 0.448915
vt 0.384170 0.454089
vt 0.383320 0.442133
vt 0.379640 0.431637
vt 0.374647 0.435392
vt 0.374647 0.429912
vt 0.384164 0.433639
vt 0.379572 0.436784
vt 0.390893 0.435751
vt 0.383847 0.438155
vt 0.374647 0.441291
vt 0.390893 0.439852
vt 0.374647 0.006426
vt 0.379648 0.009064
vt 0.374647 0.009652
vt 0.374647 0.003006
vt 0.379552 0.005949
vt 0.379476 0.000000
vt 0.379488 0.002973
vt 0.384170 0.008403
vt 0.383837 0.005500
vt 0.383317 0.000000
vt 0.383324 0.002994
vt 0.899694 0.011257
vt 0.903498 0.016246
vt 0.898068 0.016246
vt 0.901632 0.000000
vt 0.904814 0.011325
vt 0.507066 0.989457
vt 0.506708 0.997024
vt 0.502505 0.995380
vt 0.914314 0.016246
vt 0.906144 0.000000
vt 0.914314 0.011416
vt 0.510796 0.991167
vt 0.514316 1.000000
vt 0.514316 0.981380
vt 0.514150 0.988084
vt 0.510709 0.985697
vt 0.517758 0.984557
vt 0.520933 0.995112
vt 0.390893 0.007723
vt 0.390893 0.004888
vt 0.517728 0.997480
vt 0.390893 0.002520
vt 0.374647 0.112857
vt 0.379668 0.117905
vt 0.374647 0.118362
vt 0.374647 0.106954
vt 0.379802 0.112151
vt 0.374647 0.099526
vt 0.379634 0.106708
vt 0.384195 0.116553
vt 0.383983 0.111052
vt 0.379646 0.099415
vt 0.383243 0.106531
vt 0.379668 0.092478
vt 0.374647 0.095922
vt 0.374647 0.092464
vt 0.384195 0.092979
vt 0.379831 0.096059
vt 0.390893 0.093920
vt 0.383975 0.096430
vt 0.390893 0.097222
vt 0.383243 0.100202
vt 0.636314 0.891203
vt 0.641665 0.893310
vt 0.636883 0.896240
vt 0.640922 0.888235
vt 0.652560 0.890696
vt 0.390893 0.114435
vt 0.390893 0.109304
vt 0.645934 0.902778
vt 0.641463 0.906080
vt 0.652560 0.894753
vt 0.390893 0.104572
vt 0.797804 0.379668
vt 0.792675 0.374647
vt 0.798031 0.374647
vt 0.797038 0.390893
vt 0.792263 0.379831
vt 0.668371 0.501937
vt 0.661801 0.496386
vt 0.666764 0.494444
vt 0.781786 0.374647
vt 0.791708 0.390893
vt 0.781786 0.379646
vt 0.663522 0.503642
vt 0.652560 0.500000
vt 0.668805 0.512221
vt 0.663563 0.508251
vt 0.668606 0.506861
vt 0.663930 0.513711
vt 0.652560 0.509570
vt 0.781786 0.014962
vt 0.774876 0.010298
vt 0.781786 0.009570
vt 0.652560 0.505436
vt 0.774136 0.005976
vt 0.781786 0.005436
vt 0.765540 0.010689
vt 0.770561 0.016295
vt 0.765540 0.016246
vt 0.765540 0.005193
vt 0.770694 0.010529
vt 0.770539 0.000000
vt 0.770526 0.005468
vt 0.775088 0.015853
vt 0.774136 0.000000
vt 0.792739 0.016246
vt 0.797072 0.011254
vt 0.798031 0.016246
vt 0.781786 0.016246
vt 0.791975 0.011350
vt 0.407138 0.005587
vt 0.402306 0.000000
vt 0.407138 0.000000
vt 0.795932 0.000000
vt 0.781786 0.011413
vt 0.791214 0.000000
vt 0.402301 0.005600
vt 0.398469 0.000000
vt 0.402142 0.015519
vt 0.407138 0.010953
vt 0.407138 0.016246
vt 0.397621 0.014677
vt 0.402210 0.010386
vt 0.390893 0.013789
vt 0.397938 0.009827
vt 0.390893 0.009024
vt 0.398466 0.005730
vt 0.407138 0.939505
vt 0.401666 0.943750
vt 0.402142 0.938779
vt 0.406177 0.944846
vt 0.401306 0.948158
vt 0.405531 0.949763
vt 0.399673 0.955160
vt 0.390893 0.942702
vt 0.390893 0.937937
vt 0.390893 0.946619
vt 0.390893 0.951726
vt 0.390893 0.005107
vt 0.379648 0.539210
vt 0.374647 0.541848
vt 0.374647 0.538622
vt 0.384170 0.539871
vt 0.379580 0.542327
vt 0.390893 0.540551
vt 0.383853 0.542772
vt 0.374647 0.545268
vt 0.379488 0.545305
vt 0.390893 0.543383
vt 0.383324 0.545280
vt 0.514316 0.470346
vt 0.514139 0.463636
vt 0.517758 0.467169
vt 0.510709 0.466029
vt 0.510796 0.460541
vt 0.507066 0.462269
vt 0.506716 0.454698
vt 0.520937 0.456617
vt 0.524771 0.459449
vt 0.517728 0.454246
vt 0.514316 0.451726
vt 0.121712 0.922921
vt 0.117908 0.927910
vt 0.116282 0.922921
vt 0.132528 0.922921
vt 0.123033 0.927813
vt 0.379476 0.548274
vt 0.374647 0.548274
vt 0.119846 0.939167
vt 0.132528 0.927751
vt 0.124367 0.939167
vt 0.383317 0.548274
vt 0.390893 0.545754
vt 0.016246 0.541848
vt 0.011244 0.539210
vt 0.016246 0.538622
vt 0.016246 0.545268
vt 0.011341 0.542325
vt 0.011416 0.548274
vt 0.011405 0.545301
vt 0.006723 0.539871
vt 0.007056 0.542774
vt 0.007576 0.548274
vt 0.007569 0.545280
vt 0.117909 0.559531
vt 0.121712 0.564520
vt 0.116282 0.564520
vt 0.119846 0.548274
vt 0.123028 0.559599
vt 0.768732 0.989457
vt 0.768375 0.997024
vt 0.764172 0.995380
vt 0.132528 0.564520
vt 0.124358 0.548274
vt 0.132528 0.559691
vt 0.772462 0.991167
vt 0.775983 1.000000
vt 0.775983 0.981380
vt 0.775817 0.988083
vt 0.772376 0.985697
vt 0.779425 0.984557
vt 0.782600 0.995112
vt 0.000000 0.540551
vt 0.000000 0.543386
vt 0.779395 0.997480
vt 0.000000 0.545754
vt 0.407138 0.512221
vt 0.401897 0.508251
vt 0.406939 0.506861
vt 0.402263 0.513711
vt 0.390893 0.509570
vt 0.390893 0.436764
vt 0.397803 0.441428
vt 0.390893 0.442156
vt 0.401856 0.503642
vt 0.406704 0.501937
vt 0.390893 0.505436
vt 0.398543 0.445750
vt 0.390893 0.446290
vt 0.407138 0.441037
vt 0.402117 0.435431
vt 0.407138 0.435480
vt 0.407138 0.446533
vt 0.401984 0.441197
vt 0.402139 0.451726
vt 0.402152 0.446258
vt 0.397591 0.435873
vt 0.398543 0.451726
vt 0.016018 0.927943
vt 0.010889 0.922921
vt 0.016246 0.922921
vt 0.015252 0.939167
vt 0.010478 0.928105
vt 0.400134 0.496386
vt 0.405097 0.494444
vt -0.000000 0.922921
vt 0.009922 0.939167
vt -0.000000 0.927920
vt 0.390893 0.500000
vt 0.668805 0.939505
vt 0.663333 0.943750
vt 0.663809 0.938779
vt 0.667844 0.944846
vt 0.662973 0.948158
vt 0.667197 0.949763
vt 0.661340 0.955160
vt 0.652560 0.942702
vt 0.652560 0.937937
vt 0.652560 0.946619
vt 0.652560 0.951726
vt 0.010953 0.564520
vt 0.015286 0.559528
vt 0.016246 0.564520
vt 0.000000 0.564520
vt 0.010189 0.559624
vt 0.765540 0.446139
vt 0.770373 0.451726
vt 0.765540 0.451726
vt 0.014146 0.548274
vt 0.000000 0.559687
vt 0.009428 0.548274
vt 0.770377 0.446126
vt 0.774210 0.451726
vt 0.770537 0.436207
vt 0.765540 0.440772
vt 0.765540 0.435480
vt 0.775058 0.437049
vt 0.770469 0.441340
vt 0.781786 0.437937
vt 0.774740 0.441899
vt 0.781786 0.442702
vt 0.774213 0.445996
vt 0.781786 0.446619
vt 0.652560 0.885565
vt 0.786438 0.992277
vt 0.904758 0.546848
vt 0.643092 0.546848
vt 0.374647 0.000000
vt 0.016246 0.548274
vt 0.914227 0.885565
vt 0.765540 0.000000
vt 0.652560 0.514962
vt 0.390893 0.514962
vt 0.407138 0.451726
vt 0.502505 0.456345
vt 0.764172 0.456345
vt 0.914314 0.383317
vt 0.914314 0.007576
vt 0.524771 0.992277
vt 0.781786 0.383243
vt 0.781786 0.007576
vt 0.404067 0.956879
vt 0.132528 0.931591
vt 0.132528 0.555850
vt -0.000000 0.931517
vt 0.665734 0.956879
vt 0.000000 0.555850
s 1
usemtl Material
f 4/1/4 6/2/6 1/3/1
f 5/4/5 7/5/7 4/1/4
f 17/6/17 8/7/8 5/4/5
f 7/5/7 9/8/9 6/2/6
f 8/7/8 10/9/10 7/5/7
f 18/10/18 11/11/11 8/7/8
f 12/12/12 14/13/14 2/14/2
f 13/15/13 15/16/15 12/12/12
f 25/17/25 16/18/16 13/15/13
f 15/16/15 17/6/17 14/13/14
f 16/18/16 18/10/18 15/16/15
f 26/19/26 19/20/19 16/18/16
f 3/21/3 23/22/23 22/23/22
f 20/24/20 24/25/24 23/22/23
f 21/26/21 10/9/10 24/27/24
f 22/23/22 26/28/26 25/29/25
f 23/22/23 27/30/27 26/28/26
f 24/27/24 11/11/11 27/31/27
f 11/11/11 19/20/19 27/31/27
f 28/32/28 34/33/34 33/34/33
f 31/35/31 35/36/35 34/33/34
f 32/37/32 45/38/45 35/36/35
f 33/34/33 37/39/37 36/40/36
f 34/33/34 38/41/38 37/39/37
f 35/36/35 46/42/46 38/41/38
f 39/43/39 41/44/41 29/45/29
f 40/46/40 42/47/42 39/43/39
f 52/48/52 43/49/43 40/50/40
f 42/47/42 44/51/44 41/44/41
f 43/52/43 45/53/45 42/47/42
f 53/54/53 46/55/46 43/49/43
f 47/56/47 49/57/49 30/58/30
f 48/59/48 50/60/50 47/56/47
f 36/61/36 51/62/51 48/59/48
f 50/60/50 52/48/52 49/57/49
f 51/62/51 53/54/53 50/60/50
f 37/63/37 54/64/54 51/62/51
f 38/65/38 46/55/46 54/64/54
f 55/66/55 61/67/61 60/68/60
f 58/69/58 62/70/62 61/67/61
f 59/71/59 72/72/72 62/73/62
f 60/68/60 64/74/64 63/75/63
f 61/67/61 65/76/65 64/74/64
f 62/73/62 73/77/73 65/78/65
f 66/79/66 68/80/68 56/81/56
f 67/82/67 69/83/69 66/79/66
f 67/82/67 80/84/80 70/85/70
f 69/83/69 71/86/71 68/80/68
f 70/85/70 72/72/72 69/83/69
f 70/85/70 81/87/81 73/77/73
f 74/88/74 76/89/76 57/90/57
f 75/91/75 77/92/77 74/88/74
f 63/93/63 78/94/78 75/91/75
f 77/92/77 79/95/79 76/89/76
f 78/94/78 80/84/80 77/92/77
f 64/96/64 81/87/81 78/94/78
f 65/78/65 73/77/73 81/87/81
f 82/97/82 88/98/88 87/99/87
f 85/100/85 89/101/89 88/98/88
f 86/102/86 99/103/99 89/104/89
f 87/99/87 91/105/91 90/106/90
f 88/98/88 92/107/92 91/105/91
f 89/104/89 100/108/100 92/109/92
f 93/110/93 95/111/95 83/112/83
f 94/113/94 96/114/96 93/110/93
f 94/113/94 107/115/107 97/116/97
f 96/114/96 98/117/98 95/111/95
f 97/116/97 99/103/99 96/114/96
f 97/116/97 108/118/108 100/108/100
f 101/119/101 103/120/103 84/121/84
f 102/122/102 104/123/104 101/119/101
f 90/124/90 105/125/105 102/122/102
f 104/123/104 106/126/106 103/120/103
f 105/125/105 107/115/107 104/123/104
f 91/127/91 108/118/108 105/125/105
f 92/109/92 100/108/100 108/118/108
f 112/128/112 114/129/114 109/130/109
f 113/131/113 115/132/115 112/128/112
f 113/131/113 126/133/126 116/134/116
f 115/132/115 117/135/117 114/129/114
f 116/134/116 118/136/118 115/132/115
f 116/134/116 127/137/127 119/138/119
f 120/139/120 122/140/122 110/141/110
f 121/142/121 123/143/123 120/139/120
f 133/144/133 124/145/124 121/146/121
f 123/143/123 125/147/125 122/140/122
f 124/148/124 126/149/126 123/143/123
f 134/150/134 127/151/127 124/145/124
f 111/152/111 131/153/131 130/154/130
f 128/155/128 132/156/132 131/153/131
f 129/157/129 118/136/118 132/158/132
f 130/154/130 134/150/134 133/144/133
f 131/153/131 135/159/135 134/150/134
f 132/158/132 119/138/119 135/160/135
f 119/138/119 127/137/127 135/160/135
f 139/161/139 141/162/141 136/163/136
f 140/164/140 142/165/142 139/161/139
f 152/166/152 143/167/143 140/164/140
f 142/165/142 144/168/144 141/162/141
f 143/167/143 145/169/145 142/165/142
f 153/170/153 146/171/146 143/167/143
f 147/172/147 149/173/149 137/174/137
f 148/175/148 150/176/150 147/172/147
f 160/177/160 151/178/151 148/175/148
f 150/176/150 152/166/152 149/173/149
f 151/178/151 153/170/153 150/176/150
f 161/179/161 154/180/154 151/178/151
f 138/181/138 158/182/158 157/183/157
f 155/184/155 159/185/159 158/182/158
f 156/186/156 145/169/145 159/187/159
f 157/183/157 161/188/161 160/189/160
f 158/182/158 162/190/162 161/188/161
f 159/187/159 146/171/146 162/191/162
f 146/171/146 154/180/154 162/191/162
f 166/192/166 168/193/168 163/194/163
f 167/195/167 169/196/169 166/192/166
f 179/197/179 170/198/170 167/199/167
f 169/196/169 171/200/171 168/193/168
f 170/201/170 172/202/172 169/196/169
f 180/203/180 173/204/173 170/198/170
f 164/205/164 177/206/177 176/207/176
f 174/208/174 178/209/178 177/206/177
f 175/210/175 188/211/188 178/212/178
f 176/207/176 180/203/180 179/197/179
f 177/206/177 181/213/181 180/203/180
f 178/212/178 189/214/189 181/215/181
f 182/216/182 184/217/184 165/218/165
f 183/219/183 185/220/185 182/216/182
f 183/219/183 172/221/172 186/222/186
f 185/220/185 187/223/187 184/217/184
f 186/222/186 188/211/188 185/220/185
f 186/222/186 173/224/173 189/214/189
f 173/224/173 181/215/181 189/214/189
f 193/225/193 195/226/195 190/227/190
f 194/228/194 196/229/196 193/225/193
f 206/230/206 197/231/197 194/232/194
f 196/229/196 198/233/198 195/226/195
f 197/234/197 199/235/199 196/229/196
f 207/236/207 200/237/200 197/231/197
f 201/238/201 203/239/203 191/240/191
f 202/241/202 204/242/204 201/238/201
f 214/243/214 205/244/205 202/241/202
f 204/242/204 206/230/206 203/239/203
f 205/244/205 207/236/207 204/242/204
f 215/245/215 208/246/208 205/244/205
f 192/247/192 212/248/212 211/249/211
f 209/250/209 213/251/213 212/248/212
f 210/252/210 199/253/199 213/251/213
f 211/249/211 215/254/215 214/255/214
f 212/248/212 216/256/216 215/254/215
f 213/251/213 200/257/200 216/256/216
f 200/237/200 208/246/208 216/258/216
f 220/259/220 222/260/222 217/261/217
f 221/262/221 223/263/223 220/259/220
f 233/264/233 224/265/224 221/262/221
f 223/263/223 225/266/225 222/260/222
f 224/265/224 226/267/226 223/263/223
f 234/268/234 227/269/227 224/265/224
f 218/270/218 231/271/231 230/272/230
f 228/273/228 232/274/232 231/271/231
f 229/275/229 242/276/242 232/274/232
f 230/272/230 234/277/234 233/278/233
f 231/271/231 235/279/235 234/277/234
f 232/274/232 243/280/243 235/279/235
f 236/281/236 238/282/238 219/283/219
f 237/284/237 239/285/239 236/281/236
f 225/266/225 240/286/240 237/287/237
f 239/285/239 241/288/241 238/282/238
f 240/289/240 242/290/242 239/285/239
f 226/267/226 243/291/243 240/286/240
f 227/269/227 235/292/235 243/291/243
f 247/293/247 249/294/249 244/295/244
f 248/296/248 250/297/250 247/293/247
f 248/296/248 261/298/261 251/299/251
f 250/297/250 252/300/252 249/294/249
f 251/299/251 253/301/253 250/297/250
f 251/299/251 262/302/262 254/303/254
f 255/304/255 257/305/257 245/306/245
f 256/307/256 258/308/258 255/304/255
f 268/309/268 259/310/259 256/311/256
f 258/308/258 260/312/260 257/305/257
f 259/313/259 261/314/261 258/308/258
f 269/315/269 262/316/262 259/310/259
f 246/317/246 266/318/266 265/319/265
f 263/320/263 267/321/267 266/318/266
f 264/322/264 253/301/253 267/323/267
f 265/319/265 269/315/269 268/309/268
f 266/318/266 270/324/270 269/315/269
f 267/323/267 254/303/254 270/325/270
f 254/303/254 262/302/262 270/325/270
f 271/326/271 277/327/277 276/328/276
f 274/329/274 278/330/278 277/327/277
f 275/331/275 288/332/288 278/333/278
f 276/328/276 280/334/280 279/335/279
f 277/327/277 281/336/281 280/334/280
f 278/333/278 289/337/289 281/338/281
f 282/339/282 284/340/284 272/341/272
f 283/342/283 285/343/285 282/339/282
f 283/342/283 296/344/296 286/345/286
f 285/343/285 287/346/287 284/340/284
f 286/345/286 288/332/288 285/343/285
f 286/345/286 297/347/297 289/337/289
f 290/348/290 292/349/292 273/350/273
f 291/351/291 293/352/293 290/348/290
f 279/335/279 294/353/294 291/354/291
f 293/352/293 295/355/295 292/349/292
f 294/356/294 296/357/296 293/352/293
f 280/334/280 297/358/297 294/353/294
f 281/338/281 289/337/289 297/347/297
f 298/359/298 304/360/304 303/361/303
f 301/362/301 305/363/305 304/360/304
f 302/364/302 315/365/315 305/363/305
f 303/361/303 307/366/307 306/367/306
f 304/360/304 308/368/308 307/366/307
f 305/363/305 316/369/316 308/368/308
f 309/370/309 311/371/311 299/372/299
f 310/373/310 312/374/312 309/370/309
f 322/375/322 313/376/313 310/377/310
f 312/374/312 314/378/314 311/371/311
f 313/379/313 315/380/315 312/374/312
f 323/381/323 316/382/316 313/376/313
f 317/383/317 319/384/319 300/385/300
f 318/386/318 320/387/320 317/383/317
f 306/388/306 321/389/321 318/386/318
f 320/387/320 322/375/322 319/384/319
f 321/389/321 323/381/323 320/387/320
f 307/390/307 324/391/324 321/389/321
f 308/392/308 316/382/316 324/391/324
f 84/121/84 141/162/141 101/119/101
f 101/119/101 144/168/144 102/122/102
f 144/168/144 90/124/90 102/122/102
f 156/393/156 87/99/87 90/106/90
f 155/184/155 82/97/82 87/99/87
f 84/121/84 4/1/4 1/3/1
f 103/120/103 5/4/5 4/1/4
f 106/126/106 17/6/17 5/4/5
f 94/113/94 14/13/14 17/6/17
f 93/110/93 2/14/2 14/13/14
f 246/317/246 22/23/22 263/320/263
f 263/320/263 25/29/25 264/394/264
f 264/322/264 13/15/13 252/300/252
f 13/15/13 249/294/249 252/300/252
f 12/12/12 244/295/244 249/294/249
f 109/130/109 147/172/147 137/174/137
f 114/129/114 148/175/148 147/172/147
f 148/175/148 129/157/129 160/177/160
f 160/189/160 128/155/128 157/183/157
f 157/183/157 111/152/111 138/181/138
f 56/81/56 47/56/47 30/58/30
f 68/80/68 48/59/48 47/56/47
f 71/86/71 36/61/36 48/59/48
f 59/395/59 33/34/33 36/40/36
f 58/69/58 28/32/28 33/34/33
f 83/112/83 220/259/220 217/261/217
f 95/111/95 221/262/221 220/259/220
f 98/117/98 233/264/233 221/262/221
f 86/396/86 230/272/230 233/278/233
f 85/100/85 218/270/218 230/272/230
f 110/141/110 39/43/39 29/45/29
f 122/140/122 40/46/40 39/43/39
f 125/397/125 52/48/52 40/50/40
f 113/131/113 49/57/49 52/48/52
f 112/128/112 30/58/30 49/57/49
f 57/90/57 139/161/139 136/163/136
f 76/89/76 140/164/140 139/161/139
f 79/95/79 152/166/152 140/164/140
f 67/82/67 149/173/149 152/166/152
f 66/79/66 137/174/137 149/173/149
f 245/306/245 236/281/236 219/283/219
f 257/305/257 237/284/237 236/281/236
f 260/398/260 225/266/225 237/287/237
f 248/296/248 222/260/222 225/266/225
f 247/293/247 217/261/217 222/260/222
f 57/90/57 6/2/6 74/88/74
f 74/88/74 9/8/9 75/91/75
f 9/8/9 63/93/63 75/91/75
f 21/399/21 60/68/60 63/75/63
f 20/24/20 55/66/55 60/68/60
f 165/218/165 203/239/203 182/216/182
f 182/216/182 206/230/206 183/219/183
f 183/219/183 194/232/194 171/400/171
f 171/200/171 193/225/193 168/193/168
f 193/225/193 163/194/163 168/193/168
f 300/385/300 184/217/184 317/383/317
f 317/383/317 187/223/187 318/386/318
f 187/223/187 306/388/306 318/386/318
f 175/401/175 303/361/303 306/367/306
f 174/208/174 298/359/298 303/361/303
f 191/240/191 284/340/284 201/238/201
f 201/238/201 287/346/287 202/241/202
f 287/346/287 214/243/214 202/241/202
f 275/402/275 211/249/211 214/255/214
f 274/329/274 192/247/192 211/249/211
f 272/341/272 319/384/319 282/339/282
f 282/339/282 322/375/322 283/342/283
f 283/342/283 310/377/310 295/403/295
f 295/355/295 309/370/309 292/349/292
f 309/370/309 273/350/273 292/349/292
f 110/141/110 195/226/195 120/139/120
f 120/139/120 198/233/198 121/142/121
f 121/146/121 210/252/210 133/144/133
f 133/144/133 209/250/209 130/154/130
f 130/154/130 192/247/192 111/152/111
f 219/283/219 290/348/290 273/350/273
f 238/282/238 291/351/291 290/348/290
f 241/404/241 279/335/279 291/354/291
f 229/275/229 276/328/276 279/335/279
f 276/328/276 218/270/218 271/326/271
f 245/306/245 311/371/311 255/304/255
f 255/304/255 314/378/314 256/307/256
f 256/311/256 302/364/302 268/309/268
f 268/309/268 301/362/301 265/319/265
f 265/319/265 298/359/298 246/317/246
f 29/45/29 166/192/166 163/194/163
f 41/44/41 167/195/167 166/192/166
f 44/405/44 179/197/179 167/199/167
f 32/37/32 176/207/176 179/197/179
f 176/207/176 28/32/28 164/205/164
f 217/261/217 2/14/2 83/112/83
f 246/317/246 55/66/55 3/21/3
f 1/3/1 136/163/136 84/121/84
f 30/58/30 137/174/137 56/81/56
f 246/317/246 164/205/164 28/32/28
f 29/45/29 190/227/190 110/141/110
f 111/152/111 82/97/82 138/181/138
f 111/152/111 271/326/271 218/270/218
f 272/341/272 165/218/165 300/385/300
f 219/283/219 299/372/299 245/306/245
f 4/1/4 7/5/7 6/2/6
f 5/4/5 8/7/8 7/5/7
f 17/6/17 18/10/18 8/7/8
f 7/5/7 10/9/10 9/8/9
f 8/7/8 11/11/11 10/9/10
f 18/10/18 19/20/19 11/11/11
f 12/12/12 15/16/15 14/13/14
f 13/15/13 16/18/16 15/16/15
f 25/17/25 26/19/26 16/18/16
f 15/16/15 18/10/18 17/6/17
f 16/18/16 19/20/19 18/10/18
f 26/19/26 27/31/27 19/20/19
f 3/21/3 20/24/20 23/22/23
f 20/24/20 21/399/21 24/25/24
f 21/26/21 9/8/9 10/9/10
f 22/23/22 23/22/23 26/28/26
f 23/22/23 24/25/24 27/30/27
f 24/27/24 10/9/10 11/11/11
f 28/32/28 31/35/31 34/33/34
f 31/35/31 32/37/32 35/36/35
f 32/37/32 44/405/44 45/38/45
f 33/34/33 34/33/34 37/39/37
f 34/33/34 35/36/35 38/41/38
f 35/36/35 45/38/45 46/42/46
f 39/43/39 42/47/42 41/44/41
f 40/46/40 43/52/43 42/47/42
f 52/48/52 53/54/53 43/49/43
f 42/47/42 45/53/45 44/51/44
f 43/52/43 46/406/46 45/53/45
f 53/54/53 54/64/54 46/55/46
f 47/56/47 50/60/50 49/57/49
f 48/59/48 51/62/51 50/60/50
f 36/61/36 37/63/37 51/62/51
f 50/60/50 53/54/53 52/48/52
f 51/62/51 54/64/54 53/54/53
f 37/63/37 38/65/38 54/64/54
f 55/66/55 58/69/58 61/67/61
f 58/69/58 59/395/59 62/70/62
f 59/71/59 71/86/71 72/72/72
f 60/68/60 61/67/61 64/74/64
f 61/67/61 62/70/62 65/76/65
f 62/73/62 72/72/72 73/77/73
f 66/79/66 69/83/69 68/80/68
f 67/82/67 70/85/70 69/83/69
f 67/82/67 79/95/79 80/84/80
f 69/83/69 72/72/72 71/86/71
f 70/85/70 73/77/73 72/72/72
f 70/85/70 80/84/80 81/87/81
f 74/88/74 77/92/77 76/89/76
f 75/91/75 78/94/78 77/92/77
f 63/93/63 64/96/64 78/94/78
f 77/92/77 80/84/80 79/95/79
f 78/94/78 81/87/81 80/84/80
f 64/96/64 65/78/65 81/87/81
f 82/97/82 85/100/85 88/98/88
f 85/100/85 86/396/86 89/101/89
f 86/102/86 98/117/98 99/103/99
f 87/99/87 88/98/88 91/105/91
f 88/98/88 89/101/89 92/107/92
f 89/104/89 99/103/99 100/108/100
f 93/110/93 96/114/96 95/111/95
f 94/113/94 97/116/97 96/114/96
f 94/113/94 106/126/106 107/115/107
f 96/114/96 99/103/99 98/117/98
f 97/116/97 100/108/100 99/103/99
f 97/116/97 107/115/107 108/118/108
f 101/119/101 104/123/104 103/120/103
f 102/122/102 105/125/105 104/123/104
f 90/124/90 91/127/91 105/125/105
f 104/123/104 107/115/107 106/126/106
f 105/125/105 108/118/108 107/115/107
f 91/127/91 92/109/92 108/118/108
f 112/128/112 115/132/115 114/129/114
f 113/131/113 116/134/116 115/132/115
f 113/131/113 125/397/125 126/133/126
f 115/132/115 118/136/118 117/135/117
f 116/134/116 119/138/119 118/136/118
f 116/134/116 126/133/126 127/137/127
f 120/139/120 123/143/123 122/140/122
f 121/142/121 124/148/124 123/143/123
f 133/144/133 134/150/134 124/145/124
f 123/143/123 126/149/126 125/147/125
f 124/148/124 127/407/127 126/149/126
f 134/150/134 135/159/135 127/151/127
f 111/152/111 128/155/128 131/153/131
f 128/155/128 129/408/129 132/156/132
f 129/157/129 117/135/117 118/136/118
f 130/154/130 131/153/131 134/150/134
f 131/153/131 132/156/132 135/159/135
f 132/158/132 118/136/118 119/138/119
f 139/161/139 142/165/142 141/162/141
f 140/164/140 143/167/143 142/165/142
f 152/166/152 153/170/153 143/167/143
f 142/165/142 145/169/145 144/168/144
f 143/167/143 146/171/146 145/169/145
f 153/170/153 154/180/154 146/171/146
f 147/172/147 150/176/150 149/173/149
f 148/175/148 151/178/151 150/176/150
f 160/177/160 161/179/161 151/178/151
f 150/176/150 153/170/153 152/166/152
f 151/178/151 154/180/154 153/170/153
f 161/179/161 162/191/162 154/180/154
f 138/181/138 155/184/155 158/182/158
f 155/184/155 156/393/156 159/185/159
f 156/186/156 144/168/144 145/169/145
f 157/183/157 158/182/158 161/188/161
f 158/182/158 159/185/159 162/190/162
f 159/187/159 145/169/145 146/171/146
f 166/192/166 169/196/169 168/193/168
f 167/195/167 170/201/170 169/196/169
f 179/197/179 180/203/180 170/198/170
f 169/196/169 172/202/172 171/200/171
f 170/201/170 173/409/173 172/202/172
f 180/203/180 181/213/181 173/204/173
f 164/205/164 174/208/174 177/206/177
f 174/208/174 175/401/175 178/209/178
f 175/210/175 187/223/187 188/211/188
f 176/207/176 177/206/177 180/203/180
f 177/206/177 178/209/178 181/213/181
f 178/212/178 188/211/188 189/214/189
f 182/216/182 185/220/185 184/217/184
f 183/219/183 186/222/186 185/220/185
f 183/219/183 171/400/171 172/221/172
f 185/220/185 188/211/188 187/223/187
f 186/222/186 189/214/189 188/211/188
f 186/222/186 172/221/172 173/224/173
f 193/225/193 196/229/196 195/226/195
f 194/228/194 197/234/197 196/229/196
f 206/230/206 207/236/207 197/231/197
f 196/229/196 199/235/199 198/233/198
f 197/234/197 200/410/200 199/235/199
f 207/236/207 208/246/208 200/237/200
f 201/238/201 204/242/204 203/239/203
f 202/241/202 205/244/205 204/242/204
f 214/243/214 215/245/215 205/244/205
f 204/242/204 207/236/207 206/230/206
f 205/244/205 208/246/208 207/236/207
f 215/245/215 216/258/216 208/246/208
f 192/247/192 209/250/209 212/248/212
f 209/250/209 210/252/210 213/251/213
f 210/252/210 198/411/198 199/253/199
f 211/249/211 212/248/212 215/254/215
f 212/248/212 213/251/213 216/256/216
f 213/251/213 199/253/199 200/257/200
f 220/259/220 223/263/223 222/260/222
f 221/262/221 224/265/224 223/263/223
f 233/264/233 234/268/234 224/265/224
f 223/263/223 226/267/226 225/266/225
f 224/265/224 227/269/227 226/267/226
f 234/268/234 235/292/235 227/269/227
f 218/270/218 228/273/228 231/271/231
f 228/273/228 229/275/229 232/274/232
f 229/275/229 241/404/241 242/276/242
f 230/272/230 231/271/231 234/277/234
f 231/271/231 232/274/232 235/279/235
f 232/274/232 242/276/242 243/280/243
f 236/281/236 239/285/239 238/282/238
f 237/284/237 240/289/240 239/285/239
f 225/266/225 226/267/226 240/286/240
f 239/285/239 242/290/242 241/288/241
f 240/289/240 243/412/243 242/290/242
f 226/267/226 227/269/227 243/291/243
f 247/293/247 250/297/250 249/294/249
f 248/296/248 251/299/251 250/297/250
f 248/296/248 260/398/260 261/298/261
f 250/297/250 253/301/253 252/300/252
f 251/299/251 254/303/254 253/301/253
f 251/299/251 261/298/261 262/302/262
f 255/304/255 258/308/258 257/305/257
f 256/307/256 259/313/259 258/308/258
f 268/309/268 269/315/269 259/310/259
f 258/308/258 261/314/261 260/312/260
f 259/313/259 262/413/262 261/314/261
f 269/315/269 270/324/270 262/316/262
f 246/317/246 263/320/263 266/318/266
f 263/320/263 264/394/264 267/321/267
f 264/322/264 252/300/252 253/301/253
f 265/319/265 266/318/266 269/315/269
f 266/318/266 267/321/267 270/324/270
f 267/323/267 253/301/253 254/303/254
f 271/326/271 274/329/274 277/327/277
f 274/329/274 275/402/275 278/330/278
f 275/331/275 287/346/287 288/332/288
f 276/328/276 277/327/277 280/334/280
f 277/327/277 278/330/278 281/336/281
f 278/333/278 288/332/288 289/337/289
f 282/339/282 285/343/285 284/340/284
f 283/342/283 286/345/286 285/343/285
f 283/342/283 295/403/295 296/344/296
f 285/343/285 288/332/288 287/346/287
f 286/345/286 289/337/289 288/332/288
f 286/345/286 296/344/296 297/347/297
f 290/348/290 293/352/293 292/349/292
f 291/351/291 294/356/294 293/352/293
f 279/335/279 280/334/280 294/353/294
f 293/352/293 296/357/296 295/355/295
f 294/356/294 297/414/297 296/357/296
f 280/334/280 281/336/281 297/358/297
f 298/359/298 301/362/301 304/360/304
f 301/362/301 302/364/302 305/363/305
f 302/364/302 314/415/314 315/365/315
f 303/361/303 304/360/304 307/366/307
f 304/360/304 305/363/305 308/368/308
f 305/363/305 315/365/315 316/369/316
f 309/370/309 312/374/312 311/371/311
f 310/373/310 313/379/313 312/374/312
f 322/375/322 323/381/323 313/376/313
f 312/374/312 315/380/315 314/378/314
f 313/379/313 316/416/316 315/380/315
f 323/381/323 324/391/324 316/382/316
f 317/383/317 320/387/320 319/384/319
f 318/386/318 321/389/321 320/387/320
f 306/388/306 307/390/307 321/389/321
f 320/387/320 323/381/323 322/375/322
f 321/389/321 324/391/324 323/381/323
f 307/390/307 308/392/308 324/391/324
f 84/121/84 136/163/136 141/162/141
f 101/119/101 141/162/141 144/168/144
f 144/168/144 156/186/156 90/124/90
f 156/393/156 155/184/155 87/99/87
f 155/184/155 138/181/138 82/97/82
f 84/121/84 103/120/103 4/1/4
f 103/120/103 106/126/106 5/4/5
f 106/126/106 94/113/94 17/6/17
f 94/113/94 93/110/93 14/13/14
f 93/110/93 83/112/83 2/14/2
f 246/317/246 3/21/3 22/23/22
f 263/320/263 22/23/22 25/29/25
f 264/322/264 25/17/25 13/15/13
f 13/15/13 12/12/12 249/294/249
f 12/12/12 2/14/2 244/295/244
f 109/130/109 114/129/114 147/172/147
f 114/129/114 117/135/117 148/175/148
f 148/175/148 117/135/117 129/157/129
f 160/189/160 129/408/129 128/155/128
f 157/183/157 128/155/128 111/152/111
f 56/81/56 68/80/68 47/56/47
f 68/80/68 71/86/71 48/59/48
f 71/86/71 59/71/59 36/61/36
f 59/395/59 58/69/58 33/34/33
f 58/69/58 55/66/55 28/32/28
f 83/112/83 95/111/95 220/259/220
f 95/111/95 98/117/98 221/262/221
f 98/117/98 86/102/86 233/264/233
f 86/396/86 85/100/85 230/272/230
f 85/100/85 82/97/82 218/270/218
f 110/141/110 122/140/122 39/43/39
f 122/140/122 125/147/125 40/46/40
f 125/397/125 113/131/113 52/48/52
f 113/131/113 112/128/112 49/57/49
f 112/128/112 109/130/109 30/58/30
f 57/90/57 76/89/76 139/161/139
f 76/89/76 79/95/79 140/164/140
f 79/95/79 67/82/67 152/166/152
f 67/82/67 66/79/66 149/173/149
f 66/79/66 56/81/56 137/174/137
f 245/306/245 257/305/257 236/281/236
f 257/305/257 260/312/260 237/284/237
f 260/398/260 248/296/248 225/266/225
f 248/296/248 247/293/247 222/260/222
f 247/293/247 244/295/244 217/261/217
f 57/90/57 1/3/1 6/2/6
f 74/88/74 6/2/6 9/8/9
f 9/8/9 21/26/21 63/93/63
f 21/399/21 20/24/20 60/68/60
f 20/24/20 3/21/3 55/66/55
f 165/218/165 191/240/191 203/239/203
f 182/216/182 203/239/203 206/230/206
f 183/219/183 206/230/206 194/232/194
f 171/200/171 194/228/194 193/225/193
f 193/225/193 190/227/190 163/194/163
f 300/385/300 165/218/165 184/217/184
f 317/383/317 184/217/184 187/223/187
f 187/223/187 175/210/175 306/388/306
f 175/401/175 174/208/174 303/361/303
f 174/208/174 164/205/164 298/359/298
f 191/240/191 272/341/272 284/340/284
f 201/238/201 284/340/284 287/346/287
f 287/346/287 275/331/275 214/243/214
f 275/402/275 274/329/274 211/249/211
f 274/329/274 271/326/271 192/247/192
f 272/341/272 300/385/300 319/384/319
f 282/339/282 319/384/319 322/375/322
f 283/342/283 322/375/322 310/377/310
f 295/355/295 310/373/310 309/370/309
f 309/370/309 299/372/299 273/350/273
f 110/141/110 190/227/190 195/226/195
f 120/139/120 195/226/195 198/233/198
f 121/146/121 198/411/198 210/252/210
f 133/144/133 210/252/210 209/250/209
f 130/154/130 209/250/209 192/247/192
f 219/283/219 238/282/238 290/348/290
f 238/282/238 241/288/241 291/351/291
f 241/404/241 229/275/229 279/335/279
f 229/275/229 228/273/228 276/328/276
f 276/328/276 228/273/228 218/270/218
f 245/306/245 299/372/299 311/371/311
f 255/304/255 311/371/311 314/378/314
f 256/311/256 314/415/314 302/364/302
f 268/309/268 302/364/302 301/362/301
f 265/319/265 301/362/301 298/359/298
f 29/45/29 41/44/41 166/192/166
f 41/44/41 44/51/44 167/195/167
f 44/405/44 32/37/32 179/197/179
f 32/37/32 31/35/31 176/207/176
f 176/207/176 31/35/31 28/32/28
f 217/261/217 244/295/244 2/14/2
f 246/317/246 28/32/28 55/66/55
f 1/3/1 57/90/57 136/163/136
f 30/58/30 109/130/109 137/174/137
f 246/317/246 298/359/298 164/205/164
f 29/45/29 163/194/163 190/227/190
f 111/152/111 218/270/218 82/97/82
f 111/152/111 192/247/192 271/326/271
f 272/341/272 191/240/191 165/218/165
f 219/283/219 273/350/273 299/372/299
