# Blender 5.2.0 LTS
# www.blender.org
mtllib TankGun.mtl
o Icosphere
v -0.015871 -0.005157 -0.994140
v -0.009809 0.013500 -0.994141
v 0.009809 0.013500 -0.994140
v 0.015871 -0.005157 -0.994140
v 0.000000 -0.016687 -0.994140
v -0.527031 -0.708717 -0.456674
v -0.511161 -0.720248 -0.456674
v -0.511161 -0.730561 -0.439987
v -0.527031 -0.725405 -0.429673
v -0.536840 -0.711905 -0.439987
v -0.842954 0.263574 -0.456674
v -0.852762 0.260388 -0.439987
v -0.852762 0.277075 -0.429674
v -0.842954 0.290575 -0.439987
v -0.836892 0.282231 -0.456674
v -0.009809 0.883148 -0.456670
v -0.015870 0.891491 -0.439983
v 0.000000 0.896648 -0.429669
v 0.015870 0.891491 -0.439983
v 0.009809 0.883148 -0.456670
v 0.836892 0.282231 -0.456674
v 0.842954 0.290575 -0.439987
v 0.852762 0.277075 -0.429674
v 0.852762 0.260388 -0.439987
v 0.842954 0.263574 -0.456674
v 0.511161 -0.720248 -0.456674
v 0.527031 -0.708717 -0.456674
v 0.536840 -0.711905 -0.439987
v 0.527031 -0.725405 -0.429673
v 0.511161 -0.730561 -0.439987
v -0.852762 -0.277075 0.429674
v -0.842954 -0.290575 0.439987
v -0.836892 -0.282231 0.456674
v -0.842954 -0.263574 0.456674
v -0.852762 -0.260388 0.439987
v -0.527031 0.725405 0.429673
v -0.536840 0.711905 0.439987
v -0.527031 0.708717 0.456674
v -0.511161 0.720248 0.456674
v -0.511161 0.730561 0.439987
v 0.527031 0.725405 0.429673
v 0.511161 0.730561 0.439987
v 0.511161 0.720248 0.456674
v 0.527031 0.708717 0.456674
v 0.536840 0.711905 0.439987
v 0.852762 -0.277075 0.429674
v 0.852762 -0.260388 0.439987
v 0.842954 -0.263574 0.456674
v 0.836892 -0.282231 0.456674
v 0.842954 -0.290575 0.439987
v 0.000000 -0.896648 0.429669
v 0.015870 -0.891491 0.439983
v 0.009809 -0.883148 0.456670
v -0.009809 -0.883148 0.456670
v -0.015870 -0.891491 0.439983
v 0.009809 -0.013500 0.994140
v 0.015871 0.005157 0.994140
v 0.000000 0.016687 0.994140
v -0.015871 0.005157 0.994140
v -0.009809 -0.013500 0.994141
v -0.501085 0.153100 -0.847654
v -0.495378 0.170665 -0.847654
v -0.315392 -0.418395 -0.847654
v -0.300451 -0.429250 -0.847654
v -0.801541 -0.260441 -0.531739
v -0.810775 -0.263442 -0.516028
v 0.000000 -0.842792 -0.531737
v -0.000000 -0.852502 -0.516026
v 0.300451 -0.429250 -0.847654
v 0.315392 -0.418395 -0.847654
v -0.009235 0.523875 -0.847651
v 0.009234 0.523875 -0.847651
v -0.495380 0.681834 -0.531737
v -0.501087 0.689690 -0.516026
v 0.495378 0.170665 -0.847654
v 0.501085 0.153100 -0.847654
v 0.495380 0.681834 -0.531737
v 0.501087 0.689690 -0.516026
v 0.801541 -0.260441 -0.531739
v 0.810775 -0.263442 -0.516028
v -0.300452 -0.950131 -0.004855
v -0.315394 -0.945276 0.004855
v 0.300452 -0.950131 -0.004855
v 0.315394 -0.945276 0.004855
v -0.996473 -0.007855 -0.004855
v -0.996473 0.007855 0.004855
v -0.810780 -0.579357 -0.004855
v -0.801546 -0.592067 0.004855
v -0.315394 0.945276 -0.004855
v -0.300452 0.950131 0.004855
v -0.801546 0.592067 -0.004855
v -0.810780 0.579357 0.004855
v 0.801546 0.592067 -0.004855
v 0.810780 0.579357 0.004855
v 0.315394 0.945276 -0.004855
v 0.300452 0.950131 0.004855
v 0.810780 -0.579357 -0.004855
v 0.801546 -0.592067 0.004855
v 0.996473 -0.007855 -0.004855
v 0.996473 0.007855 0.004855
v -0.501087 -0.689690 0.516026
v -0.495380 -0.681834 0.531737
v -0.810775 0.263442 0.516028
v -0.801541 0.260441 0.531739
v -0.000000 0.852502 0.516026
v 0.000000 0.842792 0.531737
v 0.810775 0.263442 0.516028
v 0.801541 0.260441 0.531739
v 0.501087 -0.689690 0.516026
v 0.495380 -0.681834 0.531737
v -0.495378 -0.170665 0.847654
v -0.501085 -0.153100 0.847654
v -0.009235 -0.523875 0.847651
v 0.009235 -0.523875 0.847651
v -0.315392 0.418395 0.847654
v -0.300451 0.429250 0.847654
v 0.300451 0.429250 0.847654
v 0.315392 0.418395 0.847654
v 0.501085 -0.153100 0.847654
v 0.495378 -0.170665 0.847654
vn -0.0000 -0.0000 -1.0000
vn -0.5257 -0.7236 -0.4472
vn -0.8506 0.2764 -0.4472
vn -0.0000 0.8944 -0.4472
vn 0.8506 0.2764 -0.4472
vn 0.5257 -0.7236 -0.4472
vn -0.8506 -0.2764 0.4472
vn -0.5257 0.7236 0.4472
vn 0.5257 0.7236 0.4472
vn 0.8506 -0.2764 0.4472
vn -0.0000 -0.8944 0.4472
vn -0.0000 -0.0000 1.0000
vn -0.2624 0.0853 -0.9612
vn -0.4328 -0.5957 -0.6766
vn -0.8625 0.0043 -0.5061
vn -0.2706 -0.8189 -0.5061
vn 0.4328 -0.5957 -0.6766
vn -0.0000 0.2759 -0.9612
vn -0.2624 0.8216 -0.5061
vn 0.2624 0.0853 -0.9612
vn 0.7003 0.5034 -0.5061
vn 0.6952 -0.5105 -0.5061
vn -0.4328 -0.8716 -0.2302
vn 0.1622 -0.9595 0.2302
vn -0.9627 0.1423 -0.2302
vn -0.8625 -0.4507 0.2302
vn -0.1622 0.9595 -0.2302
vn -0.6952 0.6810 0.2302
vn 0.8625 0.4507 -0.2302
vn 0.4328 0.8716 0.2302
vn 0.6952 -0.6810 -0.2302
vn 0.9627 -0.1423 0.2302
vn -0.7003 -0.5034 0.5061
vn -0.6952 0.5105 0.5061
vn 0.2706 0.8189 0.5061
vn 0.8625 -0.0043 0.5061
vn 0.2624 -0.8216 0.5061
vn -0.7003 -0.2275 0.6766
vn -0.0000 -0.2759 0.9612
vn -0.4328 0.5957 0.6766
vn 0.4328 0.5957 0.6766
vn 0.7003 -0.2275 0.6766
vn -0.7003 0.2275 -0.6766
vn -0.1622 -0.2232 -0.9612
vn -0.6952 -0.5105 -0.5061
vn 0.2706 -0.8189 -0.5061
vn 0.1622 -0.2232 -0.9612
vn -0.0000 0.7363 -0.6766
vn -0.7003 0.5034 -0.5061
vn 0.7003 0.2275 -0.6766
vn 0.2624 0.8216 -0.5061
vn 0.8625 0.0043 -0.5061
vn -0.1622 -0.9595 0.2302
vn 0.4328 -0.8716 -0.2302
vn -0.9627 -0.1423 0.2302
vn -0.6952 -0.6810 -0.2302
vn -0.4328 0.8716 0.2302
vn -0.8625 0.4507 -0.2302
vn 0.6952 0.6810 0.2302
vn 0.1622 0.9595 -0.2302
vn 0.8625 -0.4507 0.2302
vn 0.9627 0.1423 -0.2302
vn -0.2624 -0.8216 0.5061
vn -0.8625 -0.0043 0.5061
vn -0.2706 0.8189 0.5061
vn 0.6952 0.5105 0.5061
vn 0.7003 -0.5034 0.5061
vn -0.2624 -0.0853 0.9612
vn -0.0000 -0.7363 0.6766
vn -0.1622 0.2232 0.9612
vn 0.1622 0.2232 0.9612
vn 0.2624 -0.0853 0.9612
vn -0.1967 0.2707 -0.9424
vn 0.1967 0.2707 -0.9424
vn 0.3182 -0.1034 -0.9424
vn -0.3182 -0.1034 -0.9424
vn -0.0000 -0.3346 -0.9424
vn -0.5834 -0.4684 -0.6636
vn -0.7801 -0.5323 -0.3290
vn -0.2652 -0.6996 -0.6636
vn -0.2652 -0.9064 -0.3290
vn -0.5834 -0.8030 -0.1222
vn -0.7473 0.0360 -0.6636
vn -0.6257 0.4101 -0.6636
vn -0.7473 0.5774 -0.3290
vn -0.9439 -0.0279 -0.3290
vn -0.9439 0.3067 -0.1222
vn -0.1967 0.7218 -0.6636
vn 0.1967 0.7218 -0.6636
vn 0.3182 0.8891 -0.3290
vn -0.3182 0.8891 -0.3290
vn -0.0000 0.9925 -0.1222
vn 0.6257 0.4101 -0.6636
vn 0.7473 0.0360 -0.6636
vn 0.9439 -0.0279 -0.3290
vn 0.7473 0.5774 -0.3290
vn 0.9439 0.3067 -0.1222
vn 0.2652 -0.6996 -0.6636
vn 0.2652 -0.9064 -0.3290
vn 0.5834 -0.4684 -0.6636
vn 0.7801 -0.5323 -0.3290
vn 0.5834 -0.8030 -0.1222
vn -0.9439 -0.3067 0.1222
vn -0.9439 0.0279 0.3290
vn -0.7473 -0.5774 0.3290
vn -0.6257 -0.4101 0.6636
vn -0.7473 -0.0360 0.6636
vn -0.5834 0.8030 0.1222
vn -0.2652 0.9064 0.3290
vn -0.7801 0.5323 0.3290
vn -0.5834 0.4684 0.6636
vn -0.2652 0.6996 0.6636
vn 0.5834 0.8030 0.1222
vn 0.7801 0.5323 0.3290
vn 0.2652 0.9064 0.3290
vn 0.2652 0.6996 0.6636
vn 0.5834 0.4684 0.6636
vn 0.9439 -0.3067 0.1222
vn 0.7473 -0.5774 0.3290
vn 0.9439 0.0279 0.3290
vn 0.7473 -0.0360 0.6636
vn 0.6257 -0.4101 0.6636
vn -0.0000 -0.9925 0.1222
vn -0.3182 -0.8891 0.3290
vn -0.1967 -0.7218 0.6636
vn 0.3182 -0.8891 0.3290
vn 0.1967 -0.7218 0.6636
vn -0.1967 -0.2707 0.9424
vn -0.3182 0.1034 0.9424
vn -0.0000 0.3346 0.9424
vn 0.3182 0.1034 0.9424
vn 0.1967 -0.2707 0.9424
vn -0.3568 0.4911 -0.7947
vn -0.5773 -0.1876 -0.7947
vn -0.0000 -0.6071 -0.7947
vn -0.9342 -0.3035 -0.1876
vn -0.0000 -0.9822 -0.1876
vn 0.5773 -0.1876 -0.7947
vn 0.3568 0.4911 -0.7947
vn -0.5773 0.7947 -0.1876
vn 0.5773 0.7947 -0.1876
vn 0.9342 -0.3035 -0.1876
vn -0.5773 -0.7947 0.1876
vn 0.5773 -0.7947 0.1876
vn -0.9342 0.3035 0.1876
vn -0.0000 0.9822 0.1876
vn 0.9342 0.3035 0.1876
vn -0.3568 -0.4911 0.7947
vn -0.5773 0.1876 0.7947
vn -0.0000 0.6071 0.7947
vn 0.5773 0.1876 0.7947
vn 0.3568 -0.4911 0.7947
vn 0.8507 0.2764 -0.4472
vn -0.8507 -0.2764 0.4472
vt 0.180606 0.002101
vt 0.181819 0.000000
vt 0.183032 0.002101
vt 0.273459 0.155638
vt 0.272728 0.159778
vt 0.270115 0.158619
vt 1.000000 0.157461
vt 0.997387 0.158619
vt 0.997325 0.155917
vt 0.820795 0.158619
vt 0.816176 0.158619
vt 0.817451 0.155638
vt 0.638977 0.158619
vt 0.634358 0.158619
vt 0.635633 0.155638
vt 0.457221 0.155917
vt 0.454546 0.159778
vt 0.452540 0.158619
vt 0.184129 0.313237
vt 0.179813 0.316079
vt 0.179509 0.313237
vt 0.910304 0.312820
vt 0.907085 0.316079
vt 0.906781 0.313237
vt 0.729583 0.313237
vt 0.726239 0.316219
vt 0.724963 0.313237
vt 0.547765 0.313237
vt 0.544421 0.316219
vt 0.543145 0.313237
vt 0.365947 0.313237
vt 0.361631 0.316079
vt 0.361327 0.313237
vt 0.272728 0.472382
vt 0.271515 0.470281
vt 0.272728 0.469293
vt 0.137644 0.079493
vt 0.136445 0.078592
vt 0.227274 0.078731
vt 0.270053 0.155917
vt 0.225982 0.079476
vt 0.181819 0.158953
vt 0.093585 0.155917
vt 0.181819 0.155969
vt 0.274734 0.158619
vt 0.363637 0.155969
vt 0.363637 0.158953
vt 0.500000 0.078731
vt 0.501292 0.079476
vt 0.863636 0.078731
vt 0.909091 0.003089
vt 0.864928 0.079476
vt 0.909091 0.158953
vt 0.820857 0.155917
vt 0.909091 0.155969
vt 0.545455 0.003089
vt 0.590829 0.078592
vt 0.589630 0.079493
vt 0.727273 0.155969
vt 0.727273 0.158953
vt 0.545455 0.158953
vt 0.545455 0.155969
vt 0.319474 0.235445
vt 0.316891 0.236937
vt 0.407800 0.235445
vt 0.410383 0.236937
vt 0.090910 0.160550
vt 0.137656 0.235445
vt 0.135073 0.236937
vt 0.228565 0.236937
vt 0.181819 0.311832
vt 0.225982 0.235445
vt 0.818182 0.159778
vt 0.864928 0.235445
vt 0.862345 0.236937
vt 0.953254 0.235445
vt 0.954545 0.236191
vt 0.636364 0.159778
vt 0.683110 0.235445
vt 0.680527 0.236937
vt 0.774019 0.236937
vt 0.727273 0.311832
vt 0.771436 0.235445
vt 0.501292 0.235445
vt 0.498709 0.236937
vt 0.592201 0.236937
vt 0.545455 0.311832
vt 0.589618 0.235445
vt 0.272728 0.316413
vt 0.272728 0.313429
vt 0.090910 0.316413
vt 0.002675 0.313377
vt 0.090909 0.313429
vt 0.729279 0.316079
vt 0.818182 0.313429
vt 0.818182 0.316413
vt 0.636364 0.316413
vt 0.636364 0.313429
vt 0.364671 0.316219
vt 0.454546 0.313429
vt 0.454546 0.316413
vt 0.136445 0.393513
vt 0.135065 0.392924
vt 0.318183 0.393651
vt 0.316891 0.392906
vt 0.862345 0.392906
vt 0.908484 0.315972
vt 0.863636 0.393651
vt 0.774019 0.392906
vt 0.772727 0.393651
vt 0.592209 0.392924
vt 0.590829 0.393513
vt 0.954626 0.078869
vt 0.998787 0.155360
vt 0.181819 0.003089
vt 0.453815 0.155638
vt 0.544242 0.002101
vt 0.681738 0.078869
vt 0.639039 0.155917
vt 0.363637 0.311832
vt 0.909091 0.311832
vt 0.999393 0.158512
vt 0.228553 0.392889
vt 0.818182 0.469293
vt 0.819395 0.470281
vt 0.816969 0.470281
vt 0.498721 0.392889
vt 0.455759 0.470281
vt 0.454546 0.469293
vt 0.953246 0.079458
vt 0.727273 0.003089
vt 0.771441 0.079473
vt 0.683118 0.079458
vt 0.319469 0.079473
vt 0.363637 0.003089
vt 0.407805 0.079473
vt 0.093585 0.159005
vt 0.046741 0.236934
vt 0.457159 0.158619
vt 0.182853 0.316219
vt 0.002675 0.316465
vt 0.046741 0.392909
vt 0.680532 0.392909
vt 0.547461 0.316079
vt 0.410378 0.392909
vt 0.090910 0.469293
vt 0.636364 0.469293
vt 0.273941 0.470281
vt 0.907878 0.002101
vt 0.546668 0.002101
vt 0.227354 0.393790
vt 0.499920 0.393790
s 0
f 2/1/1 4/2/1 5/3/1
f 7/4/2 9/5/2 10/6/2
f 12/7/3 14/8/3 15/9/3
f 17/10/4 19/11/4 20/12/4
f 22/13/5 24/14/5 25/15/5
f 27/16/6 29/17/6 30/18/6
f 32/19/7 34/20/7 35/21/7
f 37/22/8 39/23/8 40/24/8
f 42/25/9 44/26/9 45/27/9
f 47/28/10 49/29/10 50/30/10
f 52/31/11 54/32/11 55/33/11
f 57/34/12 59/35/12 60/36/12
f 2/1/13 61/37/13 62/38/13
f 64/39/14 6/40/14 63/41/14
f 66/42/15 11/43/15 65/44/15
f 8/45/16 67/46/16 68/47/16
f 27/16/17 69/48/17 70/49/17
f 72/50/18 2/51/18 71/52/18
f 74/53/19 16/54/19 73/55/19
f 4/56/20 75/57/20 76/58/20
f 22/13/21 77/59/21 78/60/21
f 80/61/22 27/16/22 79/62/22
f 9/5/23 81/63/23 82/64/23
f 52/31/24 83/65/24 84/66/24
f 13/67/25 85/68/25 86/69/25
f 88/70/26 31/71/26 87/72/26
f 18/73/27 89/74/27 90/75/27
f 37/22/28 91/76/28 92/77/28
f 23/78/29 93/79/29 94/80/29
f 96/81/30 41/82/30 95/83/30
f 29/17/31 97/84/31 98/85/31
f 100/86/32 46/87/32 99/88/32
f 102/89/33 32/19/33 101/90/33
f 104/91/34 37/92/34 103/93/34
f 43/94/35 105/95/35 106/96/35
f 108/97/36 47/28/36 107/98/36
f 53/99/37 109/100/37 110/101/37
f 34/20/38 111/102/38 112/103/38
f 114/104/39 60/36/39 113/105/39
f 116/106/40 38/107/40 115/108/40
f 44/26/41 117/109/41 118/110/41
f 49/29/42 119/111/42 120/112/42
f 15/9/43 61/113/43 11/114/43
f 5/3/44 63/41/44 1/115/44
f 66/42/45 6/40/45 10/6/45
f 68/47/46 26/116/46 30/18/46
f 70/49/47 5/117/47 4/56/47
f 72/50/48 16/54/48 20/12/48
f 74/53/49 15/9/49 14/8/49
f 76/118/50 21/119/50 25/15/50
f 78/60/51 20/12/51 19/11/51
f 80/61/52 25/15/52 24/14/52
f 82/64/53 51/120/53 55/33/53
f 29/17/54 83/65/54 30/18/54
f 35/21/55 85/68/55 31/71/55
f 88/70/56 10/6/56 9/5/56
f 90/75/57 36/121/57 40/24/57
f 13/122/58 91/76/58 14/8/58
f 45/27/59 93/79/59 41/82/59
f 18/73/60 95/83/60 19/11/60
f 98/85/61 46/87/61 50/30/61
f 23/78/62 99/88/62 24/14/62
f 54/32/63 101/90/63 55/33/63
f 104/91/64 35/21/64 34/20/64
f 106/96/65 40/24/65 39/23/65
f 108/97/66 45/27/66 44/26/66
f 49/29/67 109/100/67 50/30/67
f 59/35/68 111/123/68 60/36/68
f 114/104/69 54/32/69 53/99/69
f 58/124/70 115/108/70 59/125/70
f 118/110/71 58/124/71 57/126/71
f 120/127/72 57/128/72 56/129/72
f 2/51/73 62/130/73 71/52/73
f 3/131/74 72/132/74 75/133/74
f 4/56/75 76/58/75 70/49/75
f 1/115/76 63/41/76 61/37/76
f 64/134/77 5/135/77 69/136/77
f 63/41/78 6/40/78 65/44/78
f 66/42/79 10/6/79 87/72/79
f 7/4/80 64/134/80 67/46/80
f 8/45/81 68/47/81 81/63/81
f 9/5/82 82/64/82 88/70/82
f 61/37/83 65/44/83 11/43/83
f 62/130/84 15/9/84 73/55/84
f 74/53/85 14/8/85 91/76/85
f 12/137/86 66/42/86 85/68/86
f 13/67/87 86/69/87 92/138/87
f 71/52/88 73/55/88 16/54/88
f 72/132/89 20/12/89 77/59/89
f 78/60/90 19/11/90 95/83/90
f 17/10/91 74/53/91 89/74/91
f 18/73/92 90/75/92 96/81/92
f 75/133/93 77/59/93 21/119/93
f 76/58/94 25/15/94 79/62/94
f 80/61/95 24/14/95 99/88/95
f 22/13/96 78/60/96 93/79/96
f 23/78/97 94/80/97 100/86/97
f 67/46/98 69/136/98 26/116/98
f 68/47/99 30/18/99 83/65/99
f 70/49/100 79/62/100 27/16/100
f 28/139/101 80/61/101 97/84/101
f 29/17/102 98/85/102 84/66/102
f 85/68/103 87/72/103 31/71/103
f 86/69/104 35/21/104 103/93/104
f 88/70/105 101/90/105 32/19/105
f 33/140/106 102/89/106 111/123/106
f 104/91/107 34/20/107 112/103/107
f 89/74/108 91/76/108 36/121/108
f 90/75/109 40/24/109 105/95/109
f 92/138/110 103/93/110 37/92/110
f 38/141/111 104/91/111 115/142/111
f 106/96/112 39/23/112 116/106/112
f 93/79/113 95/83/113 41/82/113
f 94/80/114 45/27/114 107/98/114
f 96/81/115 105/95/115 42/25/115
f 43/94/116 106/96/116 117/109/116
f 108/97/117 44/26/117 118/143/117
f 97/84/118 99/88/118 46/87/118
f 98/85/119 50/30/119 109/100/119
f 100/86/120 107/98/120 47/28/120
f 48/144/121 108/97/121 119/111/121
f 110/101/122 49/29/122 120/127/122
f 81/63/123 83/65/123 51/120/123
f 82/64/124 55/33/124 101/90/124
f 102/89/125 54/32/125 113/105/125
f 84/66/126 109/100/126 52/31/126
f 53/99/127 110/101/127 114/145/127
f 111/123/128 113/105/128 60/36/128
f 115/142/129 112/103/129 59/146/129
f 117/109/130 116/106/130 58/124/130
f 119/111/131 118/143/131 57/147/131
f 114/145/132 120/127/132 56/129/132
f 71/52/133 62/130/133 73/55/133
f 61/37/134 63/41/134 65/44/134
f 67/46/135 64/134/135 69/136/135
f 85/68/136 66/42/136 87/72/136
f 81/63/137 68/47/137 83/65/137
f 70/49/138 76/58/138 79/62/138
f 75/133/139 72/132/139 77/59/139
f 89/74/140 74/53/140 91/76/140
f 93/79/141 78/60/141 95/83/141
f 97/84/142 80/61/142 99/88/142
f 88/70/143 82/64/143 101/90/143
f 84/66/144 98/85/144 109/100/144
f 92/138/145 86/69/145 103/93/145
f 96/81/146 90/75/146 105/95/146
f 100/86/147 94/80/147 107/98/147
f 111/123/148 102/89/148 113/105/148
f 115/142/149 104/91/149 112/103/149
f 117/109/150 106/96/150 116/106/150
f 119/111/151 108/97/151 118/143/151
f 114/145/152 110/101/152 120/127/152
f 5/3/1 1/115/1 2/1/1
f 2/1/1 3/2/1 4/2/1
f 10/6/2 6/40/2 7/4/2
f 7/4/2 8/45/2 9/5/2
f 15/9/3 11/114/3 12/7/3
f 12/7/3 13/122/3 14/8/3
f 20/12/4 16/54/4 17/10/4
f 17/10/4 18/73/4 19/11/4
f 25/15/153 21/119/153 22/13/153
f 22/13/5 23/78/5 24/14/5
f 30/18/6 26/116/6 27/16/6
f 27/16/6 28/139/6 29/17/6
f 35/21/7 31/71/7 32/19/7
f 32/19/154 33/140/154 34/20/154
f 40/24/8 36/121/8 37/22/8
f 37/22/8 38/107/8 39/23/8
f 45/27/9 41/82/9 42/25/9
f 42/25/9 43/94/9 44/26/9
f 50/30/10 46/87/10 47/28/10
f 47/28/10 48/144/10 49/29/10
f 55/33/11 51/120/11 52/31/11
f 52/31/11 53/99/11 54/32/11
f 60/36/12 56/148/12 57/34/12
f 57/34/12 58/34/12 59/35/12
f 2/1/13 1/115/13 61/37/13
f 64/39/14 7/4/14 6/40/14
f 66/42/15 12/137/15 11/43/15
f 8/45/16 7/4/16 67/46/16
f 27/16/17 26/116/17 69/48/17
f 72/50/18 3/149/18 2/51/18
f 74/53/19 17/10/19 16/54/19
f 4/56/20 3/150/20 75/57/20
f 22/13/21 21/119/21 77/59/21
f 80/61/22 28/139/22 27/16/22
f 9/5/23 8/45/23 81/63/23
f 52/31/24 51/120/24 83/65/24
f 13/67/25 12/137/25 85/68/25
f 88/70/26 32/19/26 31/71/26
f 18/73/27 17/10/27 89/74/27
f 37/22/28 36/121/28 91/76/28
f 23/78/29 22/13/29 93/79/29
f 96/81/30 42/25/30 41/82/30
f 29/17/31 28/139/31 97/84/31
f 100/86/32 47/28/32 46/87/32
f 102/89/33 33/140/33 32/19/33
f 104/91/34 38/141/34 37/92/34
f 43/94/35 42/25/35 105/95/35
f 108/97/36 48/144/36 47/28/36
f 53/99/37 52/31/37 109/100/37
f 34/20/38 33/140/38 111/102/38
f 114/104/39 56/148/39 60/36/39
f 116/106/40 39/23/40 38/107/40
f 44/26/41 43/94/41 117/109/41
f 49/29/42 48/144/42 119/111/42
f 15/9/43 62/130/43 61/113/43
f 5/3/44 64/39/44 63/41/44
f 66/42/45 65/44/45 6/40/45
f 68/47/46 67/46/46 26/116/46
f 70/49/47 69/48/47 5/117/47
f 72/50/48 71/52/48 16/54/48
f 74/53/49 73/55/49 15/9/49
f 76/118/50 75/133/50 21/119/50
f 78/60/51 77/59/51 20/12/51
f 80/61/52 79/62/52 25/15/52
f 82/64/53 81/63/53 51/120/53
f 29/17/54 84/66/54 83/65/54
f 35/21/55 86/69/55 85/68/55
f 88/70/56 87/72/56 10/6/56
f 90/75/57 89/74/57 36/121/57
f 13/122/58 92/77/58 91/76/58
f 45/27/59 94/80/59 93/79/59
f 18/73/60 96/81/60 95/83/60
f 98/85/61 97/84/61 46/87/61
f 23/78/62 100/86/62 99/88/62
f 54/32/63 102/89/63 101/90/63
f 104/91/64 103/93/64 35/21/64
f 106/96/65 105/95/65 40/24/65
f 108/97/66 107/98/66 45/27/66
f 49/29/67 110/101/67 109/100/67
f 59/35/68 112/151/68 111/123/68
f 114/104/69 113/105/69 54/32/69
f 58/124/70 116/106/70 115/108/70
f 118/110/71 117/109/71 58/124/71
f 120/127/72 119/152/72 57/128/72
o Cylinder
v -0.073416 -0.000000 0.369021
v -0.152243 0.072826 0.424176
v -0.152243 -0.072826 0.424176
v -3.857569 -0.072826 0.175818
v -3.936395 -0.000000 0.291305
v -3.857569 0.072826 0.175818
v -0.073416 -0.260937 0.260937
v -0.152243 -0.248442 0.351434
v -0.152243 -0.351434 0.248442
v -3.857569 -0.072826 0.175818
v -3.857569 -0.175818 0.072826
v -3.936395 -0.205984 0.205984
v -0.073416 -0.369021 0.000000
v -0.152242 -0.424176 0.072826
v -0.152242 -0.424176 -0.072826
v -3.857569 -0.175818 0.072826
v -3.857569 -0.175818 -0.072826
v -3.936395 -0.291305 0.000000
v -0.073416 -0.260937 -0.260937
v -0.152242 -0.351434 -0.248442
v -0.152242 -0.248442 -0.351434
v -3.857569 -0.175818 -0.072826
v -3.857569 -0.072826 -0.175818
v -3.936395 -0.205984 -0.205984
v -0.073416 0.000000 -0.369021
v -0.152242 -0.072826 -0.424176
v -0.152242 0.072826 -0.424176
v -3.857569 -0.072826 -0.175818
v -3.857569 0.072826 -0.175818
v -3.936395 -0.000000 -0.291305
v -0.073416 0.260937 -0.260937
v -0.152242 0.248442 -0.351434
v -0.152242 0.351434 -0.248442
v -3.857569 0.072826 -0.175818
v -3.857569 0.175818 -0.072826
v -3.936395 0.205984 -0.205984
v -0.073416 0.369021 0.000000
v -0.152242 0.424176 -0.072826
v -0.152242 0.424176 0.072826
v -3.857569 0.175818 -0.072826
v -3.857569 0.175818 0.072826
v -3.936395 0.291305 0.000000
v -0.073416 0.260937 0.260937
v -0.152242 0.351434 0.248442
v -0.152243 0.248442 0.351434
v -3.857569 0.175818 0.072826
v -3.857569 0.072826 0.175818
v -3.936395 0.205984 0.205984
v -3.936395 -0.260937 0.260937
v -3.857569 -0.351434 0.248442
v -3.857569 -0.248442 0.351434
v -3.857569 -0.072826 0.424176
v -3.857569 0.072826 0.424176
v -3.936395 -0.000000 0.369021
v -3.936395 -0.369021 0.000000
v -3.857569 -0.424176 -0.072826
v -3.857569 -0.424176 0.072826
v -3.936395 -0.260937 -0.260937
v -3.857569 -0.248442 -0.351434
v -3.857569 -0.351434 -0.248442
v -3.936395 -0.000000 -0.369021
v -3.857569 0.072826 -0.424176
v -3.857569 -0.072826 -0.424176
v -3.936395 0.260937 -0.260937
v -3.857569 0.351434 -0.248442
v -3.857569 0.248442 -0.351434
v -3.936395 0.369021 0.000000
v -3.857569 0.424176 0.072826
v -3.857569 0.424176 -0.072826
v -3.936395 0.260937 0.260937
v -3.857569 0.248442 0.351434
v -3.857569 0.351434 0.248442
v -0.380184 -0.072826 0.175818
v -0.301357 -0.085321 0.085321
v -0.380184 -0.175818 0.072826
v -0.380184 -0.072826 0.175818
v -0.380184 0.072826 0.175818
v -0.301357 -0.000000 0.120663
v -0.380184 -0.175818 0.072826
v -0.301357 -0.120663 0.000000
v -0.380184 -0.175818 -0.072826
v -0.380184 -0.175818 -0.072826
v -0.301357 -0.085321 -0.085321
v -0.380184 -0.072826 -0.175818
v -0.380184 -0.072826 -0.175818
v -0.301357 0.000000 -0.120663
v -0.380184 0.072826 -0.175818
v -0.380184 0.072826 -0.175818
v -0.301357 0.085321 -0.085321
v -0.380184 0.175818 -0.072826
v -0.380184 0.175818 -0.072826
v -0.301357 0.120663 -0.000000
v -0.380184 0.175818 0.072826
v -0.380184 0.175818 0.072826
v -0.301357 0.085321 0.085321
v -0.380184 0.072826 0.175818
vn 0.6795 -0.0000 0.7337
vn 0.6731 0.1865 0.7157
vn 0.6731 -0.1865 0.7157
vn -0.9050 0.1876 -0.3818
vn -0.7720 -0.0000 -0.6356
vn -0.5690 -0.0000 -0.8223
vn 0.6795 -0.5188 0.5188
vn 0.6731 -0.3742 0.6379
vn 0.6731 -0.6379 0.3742
vn -0.4590 0.1955 0.8666
vn -0.6690 0.5726 -0.4739
vn -0.7720 0.4495 -0.4495
vn 0.6795 -0.7337 -0.0000
vn 0.6731 -0.7157 0.1865
vn 0.6731 -0.7157 -0.1865
vn -0.4144 0.5866 -0.6958
vn -0.4052 0.6356 0.6572
vn -0.7720 0.6357 0.0001
vn 0.6795 -0.5188 -0.5188
vn 0.6731 -0.6379 -0.3742
vn 0.6731 -0.3742 -0.6379
vn -0.6649 0.5864 0.4627
vn -0.6850 0.2404 0.6877
vn -0.7720 0.4495 0.4495
vn 0.6795 -0.0000 -0.7337
vn 0.6731 -0.1865 -0.7157
vn 0.6731 0.1865 -0.7157
vn -0.5690 -0.0000 0.8223
vn -0.4823 -0.0000 0.8760
vn -0.7720 -0.0000 0.6356
vn 0.6795 0.5188 -0.5188
vn 0.6731 0.3742 -0.6379
vn 0.6731 0.6379 -0.3742
vn -0.6772 -0.2581 0.6890
vn -0.6961 -0.5477 0.4642
vn -0.7720 -0.4495 0.4495
vn 0.6795 0.7337 -0.0000
vn 0.6731 0.7157 -0.1865
vn 0.6731 0.7157 0.1865
vn -0.4502 -0.4863 0.7489
vn -0.7162 -0.4122 0.5632
vn -0.7720 -0.6356 -0.0000
vn 0.6795 0.5188 0.5188
vn 0.6731 0.6379 0.3742
vn 0.6731 0.3742 0.6379
vn -0.8257 -0.5281 0.1984
vn -0.6850 -0.2404 -0.6877
vn -0.7720 -0.4495 -0.4495
vn -0.6795 -0.5188 0.5188
vn -0.6731 -0.6379 0.3742
vn -0.6731 -0.3742 0.6379
vn -0.6731 -0.1865 0.7157
vn -0.6731 0.1865 0.7157
vn -0.6795 -0.0000 0.7337
vn -0.6795 -0.7337 -0.0000
vn -0.6731 -0.7157 -0.1865
vn -0.6731 -0.7157 0.1865
vn -0.6795 -0.5188 -0.5188
vn -0.6731 -0.3742 -0.6379
vn -0.6731 -0.6379 -0.3742
vn -0.6795 -0.0000 -0.7337
vn -0.6731 0.1865 -0.7157
vn -0.6731 -0.1865 -0.7157
vn -0.6795 0.5188 -0.5188
vn -0.6731 0.6379 -0.3742
vn -0.6731 0.3742 -0.6379
vn -0.6795 0.7337 -0.0000
vn -0.6731 0.7157 0.1865
vn -0.6731 0.7157 -0.1865
vn -0.6795 0.5188 0.5188
vn -0.6731 0.3742 0.6379
vn -0.6731 0.6379 0.3742
vn -0.7601 0.1942 -0.6201
vn -0.6585 0.7272 -0.1938
vn -0.7143 0.0746 -0.6958
vn -0.9642 -0.0000 -0.2653
vn -0.6515 0.7550 -0.0742
vn -0.6154 0.7141 0.3335
vn -0.5415 0.5945 0.5945
vn -0.2267 0.2291 0.9466
vn -0.3675 0.0720 0.9272
vn -0.6262 -0.2007 0.7534
vn -0.5958 -0.3954 0.6990
vn -0.6282 -0.5828 0.5154
vn -0.6239 -0.6585 0.4208
vn -0.7908 -0.6082 -0.0693
vn -0.8405 -0.4958 -0.2182
vn -0.8418 -0.3134 -0.4394
vn -0.0000 0.1951 0.9808
vn -0.0000 -0.1951 0.9808
vn -0.0000 -0.8315 0.5556
vn -0.0000 -0.5556 0.8315
vn -0.0000 -0.9808 -0.1951
vn -0.0000 -0.9808 0.1951
vn -0.0000 -0.5556 -0.8315
vn -0.0000 -0.8315 -0.5556
vn -0.0000 0.1951 -0.9808
vn -0.0000 -0.1951 -0.9808
vn -0.0000 0.8315 -0.5556
vn -0.0000 0.5556 -0.8315
vn -0.0000 0.9808 0.1951
vn -0.0000 0.9808 -0.1951
vn -0.0000 0.5556 0.8315
vn -0.0000 0.8315 0.5556
vn -0.0000 -0.3827 0.9239
vn -0.0000 -0.7313 0.6820
vn -0.0000 -0.6315 0.7754
vn -0.0000 -0.7071 0.7071
vn -0.0000 -1.0000 -0.0000
vn -0.0000 0.8266 0.5628
vn -0.0000 0.7071 0.7071
vn -0.0000 -0.2867 0.9580
vn -0.0000 -0.0000 1.0000
vn -0.0000 0.6923 -0.7216
vn -0.0000 0.8609 -0.5087
vn -0.0000 0.7313 -0.6820
vn -0.0000 0.9791 0.2036
vn -0.0000 0.9901 -0.1406
vn -0.0000 -0.7071 -0.7071
vn -0.0000 -0.0000 -1.0000
vn -0.0000 0.3634 -0.9316
vn 1.0000 -0.0000 -0.0000
vn -0.0000 0.3827 -0.9239
vn -1.0000 -0.0000 -0.0000
vn -0.0000 0.9367 -0.3502
vn -0.0000 -0.7547 0.6561
vt 0.011737 0.500000
vt 0.028335 0.510203
vt 0.000000 0.510203
vt 0.288469 0.342874
vt 0.250000 0.403878
vt 0.211531 0.342874
vt 0.871088 0.500000
vt 0.896252 0.510203
vt 0.846664 0.510203
vt 0.288469 0.342874
vt 0.342874 0.288470
vt 0.358808 0.358808
vt 0.746088 0.500000
vt 0.771252 0.510203
vt 0.721664 0.510203
vt 0.342874 0.288469
vt 0.342874 0.211531
vt 0.403878 0.250000
vt 0.621088 0.500000
vt 0.646252 0.510203
vt 0.596665 0.510203
vt 0.342874 0.211531
vt 0.288469 0.157126
vt 0.358808 0.141192
vt 0.496088 0.500000
vt 0.521252 0.510203
vt 0.471665 0.510203
vt 0.288469 0.157126
vt 0.211530 0.157126
vt 0.250000 0.096122
vt 0.378912 0.500000
vt 0.403335 0.510203
vt 0.353748 0.510203
vt 0.211530 0.157126
vt 0.157126 0.211530
vt 0.141192 0.141192
vt 0.253912 0.500000
vt 0.278335 0.510203
vt 0.228748 0.510203
vt 0.157126 0.211531
vt 0.157126 0.288469
vt 0.096122 0.250000
vt 0.128912 0.500000
vt 0.153335 0.510203
vt 0.103748 0.510203
vt 0.211530 0.342874
vt 0.141192 0.358808
vt 0.871088 1.000000
vt 0.846665 0.989797
vt 0.896252 0.989797
vt 0.000000 0.989797
vt 0.028335 0.989797
vt 0.011737 1.000000
vt 0.746088 1.000000
vt 0.721665 0.989797
vt 0.771252 0.989797
vt 0.621088 1.000000
vt 0.596665 0.989797
vt 0.646252 0.989797
vt 0.496088 1.000000
vt 0.471665 0.989797
vt 0.521252 0.989797
vt 0.378912 1.000000
vt 0.353748 0.989797
vt 0.403335 0.989797
vt 0.253912 1.000000
vt 0.228748 0.989797
vt 0.278335 0.989797
vt 0.128912 1.000000
vt 0.103748 0.989797
vt 0.153335 0.989797
vt 0.288470 0.342874
vt 0.295070 0.295070
vt 0.342874 0.288470
vt 0.250000 0.313738
vt 0.342874 0.288470
vt 0.313738 0.250000
vt 0.342874 0.211531
vt 0.342874 0.211531
vt 0.295070 0.204930
vt 0.250000 0.186262
vt 0.211530 0.157126
vt 0.204930 0.204930
vt 0.157126 0.211531
vt 0.186262 0.250000
vt 0.157126 0.288469
vt 0.204930 0.295070
vt 0.971665 0.510203
vt 0.988263 0.500000
vt 0.971665 0.989797
vt 0.887836 0.112164
vt 0.612164 0.112164
vt 0.612164 0.387836
vt 0.250000 0.444930
vt 0.112164 0.387836
vt 0.387836 0.387836
vt 0.387836 0.112164
vt 0.444930 0.250000
vt 0.250000 0.055070
vt 0.055070 0.250000
vt 0.112164 0.112164
vt 0.988263 1.000000
vt 0.750000 0.444930
vt 0.887837 0.387836
vt 0.944930 0.250000
vt 0.750000 0.055070
vt 0.555070 0.250000
s 1
f 121/153/155 122/154/156 123/155/157
f 124/156/158 125/157/159 126/158/160
f 127/159/161 128/160/162 129/161/163
f 130/162/164 131/163/165 132/164/166
f 133/165/167 134/166/168 135/167/169
f 136/168/170 137/169/171 138/170/172
f 139/171/173 140/172/174 141/173/175
f 142/174/176 143/175/177 144/176/178
f 145/177/179 146/178/180 147/179/181
f 148/180/182 149/181/183 150/182/184
f 151/183/185 152/184/186 153/185/187
f 154/186/188 155/187/189 156/188/190
f 157/189/191 158/190/192 159/191/193
f 160/192/194 161/193/195 162/194/196
f 163/195/197 164/196/198 165/197/199
f 166/193/200 167/198/201 168/199/202
f 169/200/203 170/201/204 171/202/205
f 172/203/206 173/204/207 174/205/208
f 175/206/209 176/207/210 177/208/211
f 178/209/212 179/210/213 180/211/214
f 181/212/215 182/213/216 183/214/217
f 184/215/218 185/216/219 186/217/220
f 187/218/221 188/219/222 189/220/223
f 190/221/224 191/222/225 192/223/226
f 193/224/227 194/225/218 195/226/228
f 196/162/229 197/158/230 198/227/215
f 199/228/231 200/229/221 201/230/232
f 202/231/233 203/232/224 204/175/234
f 205/175/235 206/233/208 207/234/236
f 208/186/237 209/235/203 210/187/238
f 211/236/239 212/237/209 213/238/240
f 214/238/241 215/239/212 216/158/242
f 123/240/157 127/159/161 121/241/155
f 172/242/206 169/200/203 171/202/205
f 173/204/243 123/155/244 122/154/243
f 129/161/245 171/202/246 170/201/245
f 134/166/168 127/159/161 129/161/163
f 170/201/204 175/206/209 177/208/211
f 135/167/247 177/208/248 176/207/247
f 140/172/174 133/165/167 135/167/169
f 180/211/214 175/206/209 178/209/212
f 179/210/249 140/172/250 180/211/250
f 146/178/180 139/171/173 141/173/175
f 183/214/217 178/209/212 181/212/215
f 147/179/251 183/214/252 182/213/251
f 152/184/186 145/177/179 147/179/181
f 186/217/220 181/212/215 184/215/218
f 153/185/253 186/217/254 185/216/253
f 153/185/187 157/189/191 151/183/185
f 185/216/219 187/218/221 189/220/223
f 159/191/255 189/220/256 188/219/255
f 164/196/198 157/189/191 159/191/193
f 192/223/226 187/218/221 190/221/224
f 165/197/257 192/223/258 191/222/257
f 122/154/156 163/195/197 165/197/199
f 173/204/207 190/221/224 174/205/208
f 132/164/166 124/156/158 130/162/164
f 138/170/172 131/163/165 136/168/170
f 138/170/172 142/174/176 144/176/178
f 150/182/184 143/175/177 148/180/182
f 150/182/184 154/186/188 156/188/190
f 162/194/196 155/187/189 160/192/194
f 162/194/196 166/193/200 168/199/202
f 125/157/159 167/198/201 126/158/160
f 196/162/229 194/225/218 193/224/227
f 199/228/231 194/225/218 200/229/221
f 201/230/232 203/232/224 202/231/233
f 205/175/235 203/232/224 206/233/208
f 207/234/236 209/235/203 208/186/237
f 210/187/238 212/237/209 211/236/239
f 213/238/240 215/239/212 214/238/241
f 216/158/242 198/227/215 197/158/230
f 208/186/259 155/187/260 154/186/261
f 161/193/262 211/236/263 213/238/263
f 142/174/264 204/175/265 143/175/265
f 149/181/266 205/175/267 207/234/267
f 130/162/268 195/226/269 131/163/270
f 137/169/271 199/228/272 201/230/271
f 167/198/273 214/238/273 216/158/273
f 197/158/274 124/156/275 126/158/274
f 139/243/276 151/244/276 163/245/276
f 172/242/244 128/160/246 123/240/244
f 191/222/257 122/154/243 165/197/257
f 124/156/275 193/224/277 130/162/268
f 132/164/278 174/246/278 125/157/278
f 167/198/274 197/158/274 126/158/274
f 125/157/278 190/247/278 168/199/278
f 170/201/245 134/166/248 129/161/245
f 138/170/278 169/248/278 132/164/278
f 131/163/270 199/228/272 136/168/279
f 176/207/247 140/172/250 135/167/247
f 138/170/278 178/249/278 175/250/278
f 137/169/271 202/231/264 142/174/264
f 179/210/249 146/178/252 141/173/249
f 150/182/278 178/249/278 144/176/278
f 143/175/267 205/175/267 148/180/267
f 182/213/251 152/184/254 147/179/251
f 156/188/278 181/251/278 150/182/278
f 149/181/266 208/186/259 154/186/261
f 185/216/253 158/190/256 153/185/253
f 156/188/278 187/252/278 184/253/278
f 155/187/260 211/236/280 160/192/280
f 188/219/255 164/196/258 159/191/255
f 161/193/262 214/238/263 166/193/267
f 162/194/278 190/247/278 187/252/278
f 212/237/278 206/233/278 200/229/278
f 123/240/157 128/160/162 127/159/161
f 172/242/206 174/254/208 169/200/203
f 173/204/243 172/203/244 123/155/244
f 129/161/245 128/160/246 171/202/246
f 134/166/168 133/165/167 127/159/161
f 170/201/204 169/200/203 175/206/209
f 135/167/247 134/166/248 177/208/248
f 140/172/174 139/171/173 133/165/167
f 180/211/214 176/207/210 175/206/209
f 179/210/249 141/173/249 140/172/250
f 146/178/180 145/177/179 139/171/173
f 183/214/217 179/210/213 178/209/212
f 147/179/251 146/178/252 183/214/252
f 152/184/186 151/183/185 145/177/179
f 186/217/220 182/213/216 181/212/215
f 153/185/253 152/184/254 186/217/254
f 153/185/187 158/190/192 157/189/191
f 185/216/219 184/215/218 187/218/221
f 159/191/255 158/190/256 189/220/256
f 164/196/198 163/195/197 157/189/191
f 192/223/226 188/219/222 187/218/221
f 165/197/257 164/196/258 192/223/258
f 122/154/156 121/153/155 163/195/197
f 173/204/207 191/222/225 190/221/224
f 132/164/166 125/157/159 124/156/158
f 138/170/172 132/164/166 131/163/165
f 138/170/172 137/169/171 142/174/176
f 150/182/184 144/176/178 143/175/177
f 150/182/184 149/181/183 154/186/188
f 162/194/196 156/188/190 155/187/189
f 162/194/196 161/193/195 166/193/200
f 125/157/159 168/199/202 167/198/201
f 196/162/229 198/227/215 194/225/218
f 199/228/231 195/226/228 194/225/218
f 201/230/232 200/229/221 203/232/224
f 205/175/235 204/175/234 203/232/224
f 207/234/236 206/233/208 209/235/203
f 210/187/238 209/235/203 212/237/209
f 213/238/240 212/237/209 215/239/212
f 216/158/242 215/239/212 198/227/215
f 208/186/259 210/187/260 155/187/260
f 161/193/262 160/192/263 211/236/263
f 142/174/264 202/231/264 204/175/265
f 149/181/266 148/180/267 205/175/267
f 130/162/268 193/224/277 195/226/269
f 137/169/271 136/168/279 199/228/272
f 167/198/273 166/193/273 214/238/273
f 197/158/274 196/162/274 124/156/275
f 163/245/276 121/255/276 127/256/276
f 127/256/276 133/257/276 139/243/276
f 139/243/276 145/258/276 151/244/276
f 151/244/276 157/259/276 163/245/276
f 163/245/276 127/256/276 139/243/276
f 172/242/244 171/202/246 128/160/246
f 191/222/257 173/204/243 122/154/243
f 124/156/275 196/162/274 193/224/277
f 132/164/278 169/248/278 174/246/278
f 167/198/274 216/158/274 197/158/274
f 125/157/278 174/246/278 190/247/278
f 170/201/245 177/208/248 134/166/248
f 138/170/278 175/250/278 169/248/278
f 131/163/270 195/226/269 199/228/272
f 176/207/247 180/211/250 140/172/250
f 138/170/278 144/176/278 178/249/278
f 137/169/271 201/230/271 202/231/264
f 179/210/249 183/214/252 146/178/252
f 150/182/278 181/251/278 178/249/278
f 143/175/267 204/175/267 205/175/267
f 182/213/251 186/217/254 152/184/254
f 156/188/278 184/253/278 181/251/278
f 149/181/266 207/234/267 208/186/259
f 185/216/253 189/220/256 158/190/256
f 156/188/278 162/194/278 187/252/278
f 155/187/260 210/187/260 211/236/280
f 188/219/255 192/223/258 164/196/258
f 161/193/262 213/238/263 214/238/263
f 162/194/278 168/199/278 190/247/278
f 200/229/278 194/225/278 198/227/278
f 198/227/278 215/239/278 212/237/278
f 212/237/278 209/235/278 206/233/278
f 206/233/278 203/232/278 200/229/278
f 200/229/278 198/227/278 212/237/278
